foo.ufo
<glyph name="exclam" format="1">
  <advance width="240"/>
  <unicode hex="0021"/>
  <outline>
    <contour>
      <point x="125" y="204" type="curve" smooth="yes"/>
      <point x="125" y="312"/>
      <point x="179" y="683"/>
      <point x="184" y="724" type="curve" smooth="yes"/>
      <point x="185" y="734"/>
      <point x="142" y="735"/>
      <point x="119" y="735" type="curve" smooth="yes"/>
      <point x="96" y="735"/>
      <point x="55" y="733"/>
      <point x="56" y="724" type="curve" smooth="yes"/>
      <point x="61" y="682"/>
      <point x="112" y="307"/>
      <point x="112" y="204" type="curve" smooth="yes"/>
      <point x="112" y="199"/>
      <point x="125" y="198"/>
    </contour>
    <contour>
      <point x="57" y="47" type="curve" smooth="yes"/>
      <point x="57" y="12"/>
      <point x="85" y="-15"/>
      <point x="120" y="-15" type="curve" smooth="yes"/>
      <point x="155" y="-15"/>
      <point x="183" y="12"/>
      <point x="183" y="47" type="curve" smooth="yes"/>
      <point x="183" y="82"/>
      <point x="155" y="110"/>
      <point x="120" y="110" type="curve" smooth="yes"/>
      <point x="85" y="110"/>
      <point x="57" y="82"/>
    </contour>
  </outline>
</glyph>
<glyph name="quotedbl" format="1">
  <advance width="346"/>
  <unicode hex="0022"/>
  <outline>
    <contour>
      <point x="126" y="435" type="curve" smooth="yes"/>
      <point x="133" y="511"/>
      <point x="144" y="672"/>
      <point x="149" y="716" type="curve" smooth="yes"/>
      <point x="150" y="725"/>
      <point x="49" y="725"/>
      <point x="51" y="715" type="curve" smooth="yes"/>
      <point x="61" y="672"/>
      <point x="89" y="498"/>
      <point x="101" y="435" type="curve" smooth="yes"/>
      <point x="102" y="430"/>
      <point x="126" y="430"/>
    </contour>
    <contour>
      <point x="247" y="435" type="curve" smooth="yes"/>
      <point x="259" y="501"/>
      <point x="285" y="672"/>
      <point x="295" y="716" type="curve" smooth="yes"/>
      <point x="297" y="725"/>
      <point x="196" y="725"/>
      <point x="197" y="715" type="curve" smooth="yes"/>
      <point x="202" y="672"/>
      <point x="215" y="508"/>
      <point x="222" y="435" type="curve" smooth="yes"/>
      <point x="222" y="430"/>
      <point x="246" y="430"/>
    </contour>
  </outline>
</glyph>
<glyph name="numbersign" format="1">
  <advance width="730"/>
  <unicode hex="0023"/>
  <outline>
    <contour>
      <point x="417" y="0" type="line"/>
      <point x="414" y="-5"/>
      <point x="452" y="-6"/>
      <point x="454" y="0" type="curve"/>
      <point x="544" y="720" type="line"/>
      <point x="546" y="726"/>
      <point x="510" y="728"/>
      <point x="507" y="720" type="curve"/>
    </contour>
    <contour>
      <point x="190" y="0" type="line"/>
      <point x="187" y="-5"/>
      <point x="225" y="-6"/>
      <point x="227" y="0" type="curve"/>
      <point x="320" y="720" type="line"/>
      <point x="322" y="726"/>
      <point x="286" y="728"/>
      <point x="283" y="720" type="curve"/>
    </contour>
    <contour>
      <point x="652" y="236" type="line"/>
      <point x="671" y="236"/>
      <point x="672" y="271"/>
      <point x="652" y="271" type="curve" smooth="yes"/>
      <point x="46" y="271" type="line" smooth="yes"/>
      <point x="25" y="271"/>
      <point x="26" y="236"/>
      <point x="46" y="236" type="curve" smooth="yes"/>
    </contour>
    <contour>
      <point x="685" y="472" type="line"/>
      <point x="704" y="472"/>
      <point x="705" y="507"/>
      <point x="685" y="507" type="curve" smooth="yes"/>
      <point x="80" y="507" type="line" smooth="yes"/>
      <point x="59" y="507"/>
      <point x="60" y="472"/>
      <point x="80" y="472" type="curve" smooth="yes"/>
    </contour>
  </outline>
</glyph>
<glyph name="dollar" format="1">
  <advance width="630"/>
  <unicode hex="0024"/>
  <outline>
    <contour>
      <point x="314" y="690" type="curve" smooth="yes"/>
      <point x="396" y="690"/>
      <point x="418" y="650"/>
      <point x="439" y="611" type="curve" smooth="yes"/>
      <point x="458" y="576"/>
      <point x="473" y="534"/>
      <point x="477" y="524" type="curve" smooth="yes"/>
      <point x="482" y="513"/>
      <point x="497" y="515"/>
      <point x="497" y="528" type="curve" smooth="yes"/>
      <point x="497" y="715" type="line"/>
      <point x="497" y="715"/>
      <point x="494" y="718"/>
      <point x="488" y="715" type="curve" smooth="yes"/>
      <point x="433" y="677" type="line"/>
      <point x="405" y="703"/>
      <point x="368" y="720"/>
      <point x="314" y="720" type="curve" smooth="yes"/>
      <point x="194" y="720"/>
      <point x="107" y="629"/>
      <point x="107" y="522" type="curve" smooth="yes"/>
      <point x="107" y="255"/>
      <point x="472" y="344"/>
      <point x="472" y="153" type="curve" smooth="yes"/>
      <point x="472" y="71"/>
      <point x="413" y="30"/>
      <point x="325" y="30" type="curve" smooth="yes"/>
      <point x="255" y="30"/>
      <point x="190" y="52"/>
      <point x="156" y="110" type="curve" smooth="yes"/>
      <point x="133" y="150"/>
      <point x="107" y="224"/>
      <point x="107" y="224" type="curve" smooth="yes"/>
      <point x="102" y="238"/>
      <point x="85" y="232"/>
      <point x="85" y="222" type="curve" smooth="yes"/>
      <point x="85" y="9" type="line" smooth="yes"/>
      <point x="85" y="2"/>
      <point x="89" y="2"/>
      <point x="96" y="5" type="curve" smooth="yes"/>
      <point x="145" y="70" type="line"/>
      <point x="189" y="28"/>
      <point x="251" y="0"/>
      <point x="322" y="0" type="curve" smooth="yes"/>
      <point x="463" y="0"/>
      <point x="555" y="92"/>
      <point x="555" y="203" type="curve" smooth="yes"/>
      <point x="555" y="448"/>
      <point x="184" y="367"/>
      <point x="184" y="576" type="curve" smooth="yes"/>
      <point x="184" y="654"/>
      <point x="242" y="690"/>
    </contour>
    <contour>
      <point x="308" y="-76" type="line"/>
      <point x="305" y="-81"/>
      <point x="336" y="-82"/>
      <point x="338" y="-76" type="curve" smooth="yes"/>
      <point x="338" y="795" type="line" smooth="yes"/>
      <point x="340" y="801"/>
      <point x="311" y="803"/>
      <point x="308" y="795" type="curve" smooth="yes"/>
    </contour>
  </outline>
</glyph>
<glyph name="ampersand" format="1">
  <advance width="825"/>
  <unicode hex="0026"/>
  <outline>
    <contour>
      <point x="287" y="456" type="line"/>
      <point x="205" y="412"/>
      <point x="160" y="365"/>
      <point x="160" y="290" type="curve" smooth="yes"/>
      <point x="160" y="142"/>
      <point x="269" y="36"/>
      <point x="376" y="36" type="curve" smooth="yes"/>
      <point x="528" y="36"/>
      <point x="631" y="269"/>
      <point x="634" y="445" type="curve" smooth="yes"/>
      <point x="634" y="454"/>
      <point x="633" y="455"/>
      <point x="625" y="455" type="curve" smooth="yes"/>
      <point x="533" y="455" type="line" smooth="yes"/>
      <point x="528" y="455"/>
      <point x="528" y="470"/>
      <point x="533" y="470" type="curve" smooth="yes"/>
      <point x="761" y="470" type="line" smooth="yes"/>
      <point x="766" y="470"/>
      <point x="766" y="455"/>
      <point x="761" y="455" type="curve" smooth="yes"/>
      <point x="663" y="455" type="line" smooth="yes"/>
      <point x="655" y="455"/>
      <point x="654" y="453"/>
      <point x="654" y="445" type="curve" smooth="yes"/>
      <point x="643" y="208"/>
      <point x="516" y="-15"/>
      <point x="282" y="-15" type="curve" smooth="yes"/>
      <point x="153" y="-15"/>
      <point x="70" y="79"/>
      <point x="70" y="197" type="curve" smooth="yes"/>
      <point x="70" y="300"/>
      <point x="141" y="384"/>
      <point x="264" y="460" type="curve"/>
    </contour>
    <contour>
      <point x="715" y="31" type="curve" smooth="yes"/>
      <point x="722" y="24"/>
      <point x="731" y="15"/>
      <point x="746" y="15" type="curve" smooth="yes"/>
      <point x="776" y="15" type="line" smooth="yes"/>
      <point x="781" y="15"/>
      <point x="781" y="0"/>
      <point x="776" y="0" type="curve" smooth="yes"/>
      <point x="590" y="0" type="line"/>
      <point x="570" y="22" type="line"/>
      <point x="479" y="109"/>
      <point x="393" y="199"/>
      <point x="319" y="288" type="curve" smooth="yes"/>
      <point x="226" y="399"/>
      <point x="189" y="475"/>
      <point x="189" y="560" type="curve" smooth="yes"/>
      <point x="189" y="657"/>
      <point x="253" y="735"/>
      <point x="353" y="735" type="curve" smooth="yes"/>
      <point x="414" y="735"/>
      <point x="454" y="692"/>
      <point x="454" y="635" type="curve" smooth="yes"/>
      <point x="454" y="577"/>
      <point x="417" y="533"/>
      <point x="365" y="500" type="curve" smooth="yes"/>
      <point x="361" y="498"/>
      <point x="354" y="509"/>
      <point x="358" y="512" type="curve" smooth="yes"/>
      <point x="409" y="545"/>
      <point x="434" y="584"/>
      <point x="434" y="632" type="curve" smooth="yes"/>
      <point x="434" y="684"/>
      <point x="402" y="720"/>
      <point x="353" y="720" type="curve" smooth="yes"/>
      <point x="299" y="720"/>
      <point x="264" y="692"/>
      <point x="264" y="625" type="curve" smooth="yes"/>
      <point x="264" y="518"/>
      <point x="341" y="428"/>
      <point x="404" y="355" type="curve" smooth="yes"/>
      <point x="492" y="251"/>
      <point x="615" y="121"/>
    </contour>
  </outline>
</glyph>
<glyph name="quotesingle" format="1">
  <advance width="205"/>
  <unicode hex="0027"/>
  <outline>
    <contour>
      <point x="116" y="435" type="curve" smooth="yes"/>
      <point x="123" y="511"/>
      <point x="149" y="677"/>
      <point x="154" y="716" type="curve" smooth="yes"/>
      <point x="155" y="725"/>
      <point x="50" y="725"/>
      <point x="51" y="715" type="curve" smooth="yes"/>
      <point x="56" y="677"/>
      <point x="84" y="508"/>
      <point x="91" y="435" type="curve" smooth="yes"/>
      <point x="91" y="430"/>
      <point x="116" y="430"/>
    </contour>
  </outline>
</glyph>
<glyph name="parenleft" format="1">
  <advance width="297"/>
  <unicode hex="0028"/>
  <outline>
    <contour>
      <point x="264" y="-134" type="curve"/>
      <point x="267" y="-137"/>
      <point x="277" y="-125"/>
      <point x="274" y="-123" type="curve" smooth="yes"/>
      <point x="274" y="-123"/>
      <point x="100" y="27"/>
      <point x="100" y="315" type="curve" smooth="yes"/>
      <point x="100" y="601"/>
      <point x="276" y="720"/>
      <point x="276" y="720" type="curve" smooth="yes"/>
      <point x="278" y="721"/>
      <point x="270" y="732"/>
      <point x="267" y="730" type="curve" smooth="yes"/>
      <point x="267" y="730"/>
      <point x="80" y="599"/>
      <point x="80" y="316" type="curve" smooth="yes"/>
      <point x="80" y="18"/>
      <point x="264" y="-134"/>
    </contour>
  </outline>
</glyph>
<glyph name="asterisk" format="1">
  <advance width="445"/>
  <unicode hex="002A"/>
  <outline>
    <contour>
      <point x="237" y="379" type="curve"/>
      <point x="246" y="512" type="line"/>
      <point x="361" y="449" type="line" smooth="yes"/>
      <point x="366" y="446"/>
      <point x="379" y="473"/>
      <point x="374" y="476" type="curve" smooth="yes"/>
      <point x="259" y="554" type="line"/>
      <point x="373" y="630" type="line" smooth="yes"/>
      <point x="379" y="633"/>
      <point x="369" y="657"/>
      <point x="364" y="655" type="curve" smooth="yes"/>
      <point x="246" y="594" type="line"/>
      <point x="237" y="725" type="line" smooth="yes"/>
      <point x="237" y="732"/>
      <point x="208" y="732"/>
      <point x="208" y="725" type="curve" smooth="yes"/>
      <point x="198" y="594" type="line"/>
      <point x="85" y="655" type="line" smooth="yes"/>
      <point x="79" y="659"/>
      <point x="66" y="632"/>
      <point x="72" y="628" type="curve"/>
      <point x="186" y="552" type="line"/>
      <point x="73" y="472" type="line" smooth="yes"/>
      <point x="66" y="469"/>
      <point x="81" y="441"/>
      <point x="88" y="445" type="curve" smooth="yes"/>
      <point x="198" y="512" type="line"/>
      <point x="208" y="379" type="line" smooth="yes"/>
      <point x="208" y="373"/>
      <point x="237" y="373"/>
    </contour>
  </outline>
</glyph>
<glyph name="plus" format="1">
  <advance width="649"/>
  <unicode hex="002B"/>
  <outline>
    <contour>
      <point x="85" y="283" type="line"/>
      <point x="80" y="286"/>
      <point x="79" y="250"/>
      <point x="85" y="248" type="curve"/>
      <point x="304" y="248" type="line"/>
      <point x="304" y="11" type="line"/>
      <point x="301" y="6"/>
      <point x="342" y="5"/>
      <point x="344" y="11" type="curve"/>
      <point x="344" y="248" type="line"/>
      <point x="563" y="248" type="line"/>
      <point x="569" y="246"/>
      <point x="571" y="280"/>
      <point x="563" y="283" type="curve"/>
      <point x="344" y="283" type="line"/>
      <point x="344" y="521" type="line"/>
      <point x="346" y="527"/>
      <point x="307" y="529"/>
      <point x="304" y="521" type="curve"/>
      <point x="304" y="283" type="line"/>
    </contour>
  </outline>
</glyph>
<glyph name="comma" format="1">
  <advance width="237"/>
  <unicode hex="002C"/>
  <outline>
    <contour>
      <point x="41" y="-167" type="curve" smooth="yes"/>
      <point x="119" y="-142"/>
      <point x="187" y="-68"/>
      <point x="187" y="25" type="curve" smooth="yes"/>
      <point x="187" y="90"/>
      <point x="151" y="120"/>
      <point x="111" y="120" type="curve" smooth="yes"/>
      <point x="66" y="120"/>
      <point x="43" y="86"/>
      <point x="43" y="54" type="curve" smooth="yes"/>
      <point x="43" y="8"/>
      <point x="74" y="-11"/>
      <point x="103" y="-11" type="curve" smooth="yes"/>
      <point x="127" y="-11"/>
      <point x="150" y="2"/>
      <point x="157" y="24" type="curve" smooth="yes"/>
      <point x="158" y="27"/>
      <point x="160" y="29"/>
      <point x="162" y="29" type="curve" smooth="yes"/>
      <point x="165" y="29"/>
      <point x="167" y="27"/>
      <point x="167" y="17" type="curve" smooth="yes"/>
      <point x="167" y="-49"/>
      <point x="122" y="-122"/>
      <point x="36" y="-153" type="curve" smooth="yes"/>
      <point x="32" y="-155"/>
      <point x="37" y="-168"/>
    </contour>
  </outline>
</glyph>
<glyph name="hyphen" format="1">
  <advance width="386"/>
  <unicode hex="002D"/>
  <outline>
    <contour>
      <point x="323" y="253" type="line"/>
      <point x="328" y="253"/>
      <point x="328" y="273"/>
      <point x="323" y="273" type="curve" smooth="yes"/>
      <point x="63" y="273" type="line" smooth="yes"/>
      <point x="58" y="273"/>
      <point x="58" y="253"/>
      <point x="63" y="253" type="curve" smooth="yes"/>
    </contour>
  </outline>
</glyph>
<glyph name="period" format="1">
  <advance width="235"/>
  <unicode hex="002E"/>
  <outline>
    <contour>
      <point x="50" y="52" type="curve" smooth="yes"/>
      <point x="50" y="15"/>
      <point x="80" y="-15"/>
      <point x="117" y="-15" type="curve" smooth="yes"/>
      <point x="155" y="-15"/>
      <point x="185" y="15"/>
      <point x="185" y="52" type="curve" smooth="yes"/>
      <point x="185" y="90"/>
      <point x="155" y="120"/>
      <point x="117" y="120" type="curve" smooth="yes"/>
      <point x="80" y="120"/>
      <point x="50" y="90"/>
    </contour>
  </outline>
</glyph>
<glyph name="slash" format="1">
  <advance width="416"/>
  <unicode hex="002F"/>
  <outline>
    <contour>
      <point x="31" y="-130" type="line"/>
      <point x="28" y="-135"/>
      <point x="67" y="-136"/>
      <point x="69" y="-130" type="curve" smooth="yes"/>
      <point x="385" y="720" type="line" smooth="yes"/>
      <point x="387" y="726"/>
      <point x="350" y="728"/>
      <point x="347" y="720" type="curve" smooth="yes"/>
    </contour>
  </outline>
</glyph>
<glyph name="zero" format="1">
  <advance width="655"/>
  <unicode hex="0030"/>
  <outline>
    <contour>
      <point x="325" y="-15" type="curve" smooth="yes"/>
      <point x="485" y="-15"/>
      <point x="590" y="121"/>
      <point x="590" y="258" type="curve" smooth="yes"/>
      <point x="590" y="394"/>
      <point x="485" y="520"/>
      <point x="326" y="520" type="curve" smooth="yes"/>
      <point x="167" y="520"/>
      <point x="65" y="394"/>
      <point x="65" y="258" type="curve" smooth="yes"/>
      <point x="65" y="120"/>
      <point x="168" y="-15"/>
    </contour>
    <contour>
      <point x="326" y="505" type="curve" smooth="yes"/>
      <point x="437" y="505"/>
      <point x="470" y="415"/>
      <point x="470" y="260" type="curve" smooth="yes"/>
      <point x="470" y="107"/>
      <point x="435" y="0"/>
      <point x="325" y="0" type="curve" smooth="yes"/>
      <point x="219" y="0"/>
      <point x="185" y="108"/>
      <point x="185" y="261" type="curve" smooth="yes"/>
      <point x="185" y="416"/>
      <point x="217" y="505"/>
    </contour>
  </outline>
</glyph>
<glyph name="one" format="1">
  <advance width="438"/>
  <unicode hex="0031"/>
  <outline>
    <contour>
      <point x="285" y="518" type="line"/>
      <point x="285" y="522"/>
      <point x="279" y="526"/>
      <point x="272" y="523" type="curve" smooth="yes"/>
      <point x="243" y="511"/>
      <point x="159" y="477"/>
      <point x="78" y="452" type="curve" smooth="yes"/>
      <point x="73" y="450"/>
      <point x="77" y="436"/>
      <point x="82" y="437" type="curve" smooth="yes"/>
      <point x="162" y="462" type="line" smooth="yes"/>
      <point x="172" y="465"/>
      <point x="175" y="463"/>
      <point x="175" y="454" type="curve" smooth="yes"/>
      <point x="175" y="23" type="line" smooth="yes"/>
      <point x="175" y="16"/>
      <point x="173" y="15"/>
      <point x="168" y="15" type="curve" smooth="yes"/>
      <point x="79" y="15" type="line" smooth="yes"/>
      <point x="74" y="15"/>
      <point x="74" y="0"/>
      <point x="79" y="0" type="curve" smooth="yes"/>
      <point x="379" y="0" type="line" smooth="yes"/>
      <point x="384" y="0"/>
      <point x="384" y="15"/>
      <point x="379" y="15" type="curve" smooth="yes"/>
      <point x="292" y="15" type="line" smooth="yes"/>
      <point x="287" y="15"/>
      <point x="285" y="17"/>
      <point x="285" y="23" type="curve" smooth="yes"/>
    </contour>
  </outline>
</glyph>
<glyph name="two" format="1">
  <advance width="606"/>
  <unicode hex="0032"/>
  <outline>
    <contour>
      <point x="239" y="35" type="line"/>
      <point x="162" y="35"/>
      <point x="130" y="22"/>
      <point x="108" y="16" type="curve"/>
      <point x="107" y="19" type="line"/>
      <point x="162" y="42"/>
      <point x="472" y="190"/>
      <point x="472" y="353" type="curve" smooth="yes"/>
      <point x="472" y="471"/>
      <point x="363" y="520"/>
      <point x="256" y="520" type="curve" smooth="yes"/>
      <point x="151" y="520"/>
      <point x="75" y="457"/>
      <point x="75" y="368" type="curve" smooth="yes"/>
      <point x="75" y="327"/>
      <point x="105" y="305"/>
      <point x="135" y="305" type="curve" smooth="yes"/>
      <point x="163" y="305"/>
      <point x="190" y="324"/>
      <point x="190" y="367" type="curve" smooth="yes"/>
      <point x="190" y="376"/>
      <point x="104" y="420"/>
      <point x="104" y="420" type="curve"/>
      <point x="111" y="456"/>
      <point x="169" y="505"/>
      <point x="237" y="505" type="curve" smooth="yes"/>
      <point x="337" y="505"/>
      <point x="357" y="407"/>
      <point x="357" y="324" type="curve" smooth="yes"/>
      <point x="357" y="155"/>
      <point x="187" y="71"/>
      <point x="71" y="15" type="curve"/>
      <point x="70" y="2"/>
      <point x="75" y="0"/>
      <point x="75" y="0" type="curve"/>
      <point x="504" y="0" type="line"/>
      <point x="540" y="149" type="line" smooth="yes"/>
      <point x="541" y="151"/>
      <point x="533" y="153"/>
      <point x="532" y="150" type="curve" smooth="yes"/>
      <point x="494" y="52"/>
      <point x="488" y="35"/>
      <point x="467" y="35" type="curve" smooth="yes"/>
    </contour>
  </outline>
</glyph>
<glyph name="three" format="1">
  <advance width="580"/>
  <unicode hex="0033"/>
  <outline>
    <contour>
      <point x="66" y="98" type="curve" smooth="yes"/>
      <point x="104" y="20"/>
      <point x="191" y="-15"/>
      <point x="266" y="-15" type="curve" smooth="yes"/>
      <point x="399" y="-15"/>
      <point x="515" y="66"/>
      <point x="515" y="200" type="curve" smooth="yes"/>
      <point x="515" y="377"/>
      <point x="300" y="372"/>
      <point x="300" y="372" type="curve"/>
      <point x="382" y="398"/>
      <point x="487" y="465"/>
      <point x="487" y="563" type="curve" smooth="yes"/>
      <point x="487" y="684"/>
      <point x="359" y="735"/>
      <point x="259" y="735" type="curve" smooth="yes"/>
      <point x="147" y="735"/>
      <point x="73" y="659"/>
      <point x="73" y="578" type="curve" smooth="yes"/>
      <point x="73" y="536"/>
      <point x="99" y="506"/>
      <point x="132" y="506" type="curve" smooth="yes"/>
      <point x="164" y="506"/>
      <point x="192" y="531"/>
      <point x="188" y="571" type="curve" smooth="yes"/>
      <point x="187" y="577"/>
      <point x="96" y="620"/>
      <point x="96" y="620" type="curve"/>
      <point x="102" y="662"/>
      <point x="163" y="720"/>
      <point x="249" y="720" type="curve" smooth="yes"/>
      <point x="326" y="720"/>
      <point x="367" y="661"/>
      <point x="367" y="551" type="curve" smooth="yes"/>
      <point x="367" y="418"/>
      <point x="312" y="377"/>
      <point x="200" y="357" type="curve" smooth="yes"/>
      <point x="197" y="356"/>
      <point x="199" y="340"/>
      <point x="202" y="342" type="curve" smooth="yes"/>
      <point x="219" y="350"/>
      <point x="243" y="354"/>
      <point x="272" y="354" type="curve" smooth="yes"/>
      <point x="376" y="354"/>
      <point x="395" y="271"/>
      <point x="395" y="194" type="curve" smooth="yes"/>
      <point x="395" y="80"/>
      <point x="358" y="5"/>
      <point x="253" y="5" type="curve" smooth="yes"/>
      <point x="177" y="5"/>
      <point x="105" y="46"/>
      <point x="79" y="104" type="curve" smooth="yes"/>
      <point x="78" y="106"/>
      <point x="65" y="100"/>
    </contour>
  </outline>
</glyph>
<glyph name="four" format="1">
  <advance width="608"/>
  <unicode hex="0034"/>
  <outline>
    <contour>
      <point x="454" y="-240" type="line"/>
      <point x="454" y="0" type="line"/>
      <point x="560" y="0" type="line" smooth="yes"/>
      <point x="565" y="0"/>
      <point x="565" y="15"/>
      <point x="560" y="15" type="curve" smooth="yes"/>
      <point x="454" y="15" type="line"/>
      <point x="454" y="376" type="line" smooth="yes"/>
      <point x="454" y="378"/>
      <point x="447" y="380"/>
      <point x="446" y="378" type="curve" smooth="yes"/>
      <point x="418" y="317"/>
      <point x="357" y="276"/>
      <point x="344" y="274" type="curve"/>
      <point x="344" y="15" type="line"/>
      <point x="74" y="15" type="line"/>
      <point x="111" y="102" type="line" smooth="yes"/>
      <point x="262" y="457"/>
      <point x="440" y="590"/>
      <point x="440" y="595" type="curve" smooth="yes"/>
      <point x="440" y="627"/>
      <point x="414" y="650"/>
      <point x="382" y="650" type="curve" smooth="yes"/>
      <point x="339" y="650"/>
      <point x="299" y="617"/>
      <point x="271" y="548" type="curve" smooth="yes"/>
      <point x="51" y="9" type="line"/>
      <point x="55" y="0" type="line"/>
      <point x="344" y="0" type="line"/>
      <point x="344" y="-240" type="line"/>
    </contour>
  </outline>
</glyph>
<glyph name="five" format="1">
  <advance width="570"/>
  <unicode hex="0035"/>
  <outline>
    <contour>
      <point x="77" y="96" type="curve"/>
      <point x="77" y="96"/>
      <point x="166" y="149"/>
      <point x="165" y="158" type="curve" smooth="yes"/>
      <point x="163" y="196"/>
      <point x="139" y="213"/>
      <point x="113" y="213" type="curve" smooth="yes"/>
      <point x="83" y="213"/>
      <point x="50" y="189"/>
      <point x="50" y="146" type="curve" smooth="yes"/>
      <point x="50" y="49"/>
      <point x="145" y="-15"/>
      <point x="243" y="-15" type="curve" smooth="yes"/>
      <point x="390" y="-15"/>
      <point x="515" y="76"/>
      <point x="515" y="230" type="curve" smooth="yes"/>
      <point x="515" y="338"/>
      <point x="433" y="423"/>
      <point x="273" y="423" type="curve" smooth="yes"/>
      <point x="183" y="423"/>
      <point x="124" y="359"/>
      <point x="124" y="359" type="curve"/>
      <point x="168" y="615" type="line"/>
      <point x="287" y="573"/>
      <point x="461" y="608"/>
      <point x="504" y="735" type="curve"/>
      <point x="501" y="737" type="line"/>
      <point x="423" y="664"/>
      <point x="273" y="694"/>
      <point x="171" y="729" type="curve"/>
      <point x="107" y="334" type="line"/>
      <point x="113" y="330" type="line"/>
      <point x="151" y="376"/>
      <point x="202" y="408"/>
      <point x="271" y="408" type="curve" smooth="yes"/>
      <point x="370" y="408"/>
      <point x="395" y="328"/>
      <point x="395" y="228" type="curve" smooth="yes"/>
      <point x="395" y="75"/>
      <point x="346" y="0"/>
      <point x="243" y="0" type="curve" smooth="yes"/>
      <point x="158" y="0"/>
      <point x="92" y="45"/>
    </contour>
  </outline>
</glyph>
<glyph name="six" format="1">
  <advance width="621"/>
  <unicode hex="0036"/>
  <outline>
    <contour>
      <point x="381" y="720" type="curve" smooth="yes"/>
      <point x="433" y="720"/>
      <point x="472" y="699"/>
      <point x="488" y="665" type="curve"/>
      <point x="488" y="665"/>
      <point x="400" y="609"/>
      <point x="400" y="603" type="curve" smooth="yes"/>
      <point x="400" y="564"/>
      <point x="425" y="542"/>
      <point x="455" y="542" type="curve" smooth="yes"/>
      <point x="487" y="542"/>
      <point x="518" y="567"/>
      <point x="518" y="611" type="curve" smooth="yes"/>
      <point x="518" y="696"/>
      <point x="451" y="735"/>
      <point x="374" y="735" type="curve" smooth="yes"/>
      <point x="178" y="735"/>
      <point x="75" y="514"/>
      <point x="75" y="324" type="curve" smooth="yes"/>
      <point x="75" y="153"/>
      <point x="151" y="-15"/>
      <point x="332" y="-15" type="curve" smooth="yes"/>
      <point x="479" y="-15"/>
      <point x="571" y="100"/>
      <point x="571" y="214" type="curve" smooth="yes"/>
      <point x="571" y="344"/>
      <point x="473" y="425"/>
      <point x="354" y="425" type="curve" smooth="yes"/>
      <point x="234" y="425"/>
      <point x="190" y="340"/>
      <point x="190" y="340" type="curve"/>
      <point x="197" y="510"/>
      <point x="211" y="720"/>
    </contour>
    <contour>
      <point x="326" y="400" type="curve" smooth="yes"/>
      <point x="436" y="400"/>
      <point x="451" y="278"/>
      <point x="451" y="191" type="curve" smooth="yes"/>
      <point x="451" y="69"/>
      <point x="411" y="0"/>
      <point x="332" y="0" type="curve" smooth="yes"/>
      <point x="252" y="0"/>
      <point x="190" y="64"/>
      <point x="190" y="314" type="curve"/>
      <point x="190" y="314"/>
      <point x="224" y="400"/>
    </contour>
  </outline>
</glyph>
<glyph name="seven" format="1">
  <advance width="555"/>
  <unicode hex="0037"/>
  <outline>
    <contour>
      <point x="500" y="470" type="curve"/>
      <point x="498" y="482"/>
      <point x="493" y="496"/>
      <point x="489" y="505" type="curve"/>
      <point x="61" y="505" type="line"/>
      <point x="50" y="294" type="line" smooth="yes"/>
      <point x="50" y="290"/>
      <point x="62" y="290"/>
      <point x="62" y="293" type="curve" smooth="yes"/>
      <point x="75" y="383"/>
      <point x="74" y="405"/>
      <point x="100" y="405" type="curve" smooth="yes"/>
      <point x="471" y="405" type="line"/>
      <point x="388" y="-72"/>
      <point x="107" y="-169"/>
      <point x="107" y="-183" type="curve" smooth="yes"/>
      <point x="107" y="-220"/>
      <point x="136" y="-250"/>
      <point x="176" y="-250" type="curve" smooth="yes"/>
      <point x="330" y="-250"/>
      <point x="466" y="205"/>
    </contour>
  </outline>
</glyph>
<glyph name="eight" format="1">
  <advance width="621"/>
  <unicode hex="0038"/>
  <outline>
    <contour>
      <point x="233" y="351" type="line"/>
      <point x="149" y="325"/>
      <point x="80" y="267"/>
      <point x="80" y="170" type="curve" smooth="yes"/>
      <point x="80" y="36"/>
      <point x="196" y="-15"/>
      <point x="302" y="-15" type="curve" smooth="yes"/>
      <point x="437" y="-15"/>
      <point x="541" y="85"/>
      <point x="541" y="203" type="curve" smooth="yes"/>
      <point x="541" y="472"/>
      <point x="174" y="360"/>
      <point x="174" y="579" type="curve" smooth="yes"/>
      <point x="174" y="661"/>
      <point x="243" y="715"/>
      <point x="322" y="715" type="curve" smooth="yes"/>
      <point x="427" y="715"/>
      <point x="492" y="656"/>
      <point x="492" y="557" type="curve" smooth="yes"/>
      <point x="492" y="475"/>
      <point x="425" y="417"/>
      <point x="361" y="397" type="curve"/>
      <point x="378" y="392" type="line"/>
      <point x="439" y="409"/>
      <point x="507" y="472"/>
      <point x="507" y="557" type="curve" smooth="yes"/>
      <point x="507" y="679"/>
      <point x="425" y="735"/>
      <point x="322" y="735" type="curve" smooth="yes"/>
      <point x="199" y="735"/>
      <point x="95" y="647"/>
      <point x="95" y="527" type="curve" smooth="yes"/>
      <point x="95" y="234"/>
      <point x="464" y="353"/>
      <point x="464" y="145" type="curve" smooth="yes"/>
      <point x="464" y="60"/>
      <point x="390" y="5"/>
      <point x="302" y="5" type="curve" smooth="yes"/>
      <point x="193" y="5"/>
      <point x="95" y="59"/>
      <point x="95" y="170" type="curve" smooth="yes"/>
      <point x="95" y="260"/>
      <point x="164" y="320"/>
      <point x="249" y="345" type="curve" smooth="yes"/>
    </contour>
  </outline>
</glyph>
<glyph name="nine" format="1">
  <advance width="611"/>
  <unicode hex="0039"/>
  <outline>
    <contour>
      <point x="127" y="-163" type="curve"/>
      <point x="127" y="-163"/>
      <point x="212" y="-121"/>
      <point x="212" y="-113" type="curve" smooth="yes"/>
      <point x="212" y="-66"/>
      <point x="188" y="-45"/>
      <point x="158" y="-45" type="curve" smooth="yes"/>
      <point x="128" y="-45"/>
      <point x="96" y="-67"/>
      <point x="96" y="-110" type="curve" smooth="yes"/>
      <point x="96" y="-188"/>
      <point x="162" y="-250"/>
      <point x="260" y="-250" type="curve" smooth="yes"/>
      <point x="442" y="-250"/>
      <point x="551" y="-42"/>
      <point x="551" y="171" type="curve" smooth="yes"/>
      <point x="551" y="359"/>
      <point x="468" y="520"/>
      <point x="307" y="520" type="curve" smooth="yes"/>
      <point x="166" y="520"/>
      <point x="65" y="409"/>
      <point x="65" y="277" type="curve" smooth="yes"/>
      <point x="65" y="132"/>
      <point x="165" y="55"/>
      <point x="284" y="55" type="curve" smooth="yes"/>
      <point x="404" y="55"/>
      <point x="437" y="135"/>
      <point x="437" y="135" type="curve"/>
      <point x="435" y="-96"/>
      <point x="375" y="-235"/>
      <point x="260" y="-235" type="curve" smooth="yes"/>
      <point x="150" y="-235"/>
      <point x="127" y="-163"/>
    </contour>
    <contour>
      <point x="304" y="76" type="curve" smooth="yes"/>
      <point x="203" y="76"/>
      <point x="185" y="170"/>
      <point x="185" y="286" type="curve" smooth="yes"/>
      <point x="185" y="388"/>
      <point x="200" y="505"/>
      <point x="307" y="505" type="curve" smooth="yes"/>
      <point x="406" y="505"/>
      <point x="435" y="350"/>
      <point x="437" y="156" type="curve"/>
      <point x="437" y="156"/>
      <point x="407" y="76"/>
    </contour>
  </outline>
</glyph>
<glyph name="less" format="1">
  <advance width="596"/>
  <unicode hex="003C"/>
  <outline>
    <contour>
      <point x="29" y="315" type="line"/>
      <point x="25" y="317"/>
      <point x="24" y="330"/>
      <point x="29" y="332" type="curve" smooth="yes"/>
      <point x="498" y="545" type="line" smooth="yes"/>
      <point x="507" y="549"/>
      <point x="521" y="518"/>
      <point x="513" y="514" type="curve" smooth="yes"/>
      <point x="95" y="324" type="line"/>
      <point x="511" y="135" type="line" smooth="yes"/>
      <point x="519" y="131"/>
      <point x="503" y="98"/>
      <point x="493" y="103" type="curve" smooth="yes"/>
    </contour>
  </outline>
</glyph>
<glyph name="equal" format="1">
  <advance width="639"/>
  <unicode hex="003D"/>
  <outline>
    <contour>
      <point x="556" y="350" type="line"/>
      <point x="566" y="350"/>
      <point x="566" y="385"/>
      <point x="556" y="385" type="curve" smooth="yes"/>
      <point x="83" y="385" type="line" smooth="yes"/>
      <point x="73" y="385"/>
      <point x="73" y="350"/>
      <point x="83" y="350" type="curve" smooth="yes"/>
    </contour>
    <contour>
      <point x="556" y="146" type="line"/>
      <point x="566" y="146"/>
      <point x="566" y="181"/>
      <point x="556" y="181" type="curve" smooth="yes"/>
      <point x="83" y="181" type="line" smooth="yes"/>
      <point x="73" y="181"/>
      <point x="73" y="146"/>
      <point x="83" y="146" type="curve" smooth="yes"/>
    </contour>
  </outline>
</glyph>
<glyph name="question" format="1">
  <advance width="464"/>
  <unicode hex="003F"/>
  <outline>
    <contour>
      <point x="102" y="47" type="curve" smooth="yes"/>
      <point x="102" y="12"/>
      <point x="130" y="-15"/>
      <point x="165" y="-15" type="curve" smooth="yes"/>
      <point x="200" y="-15"/>
      <point x="228" y="12"/>
      <point x="228" y="47" type="curve" smooth="yes"/>
      <point x="228" y="82"/>
      <point x="200" y="110"/>
      <point x="165" y="110" type="curve" smooth="yes"/>
      <point x="130" y="110"/>
      <point x="102" y="82"/>
    </contour>
    <contour>
      <point x="153" y="368" type="curve"/>
      <point x="154" y="366"/>
      <point x="156" y="302"/>
      <point x="156" y="200" type="curve" smooth="yes"/>
      <point x="156" y="195"/>
      <point x="169" y="195"/>
      <point x="169" y="200" type="curve" smooth="yes"/>
      <point x="169" y="275"/>
      <point x="170" y="341"/>
      <point x="170" y="345" type="curve"/>
      <point x="180" y="342"/>
      <point x="196" y="341"/>
      <point x="207" y="341" type="curve" smooth="yes"/>
      <point x="341" y="341"/>
      <point x="414" y="445"/>
      <point x="414" y="536" type="curve" smooth="yes"/>
      <point x="414" y="659"/>
      <point x="329" y="735"/>
      <point x="185" y="735" type="curve" smooth="yes"/>
      <point x="104" y="735"/>
      <point x="45" y="680"/>
      <point x="45" y="619" type="curve" smooth="yes"/>
      <point x="45" y="578"/>
      <point x="73" y="557"/>
      <point x="100" y="557" type="curve" smooth="yes"/>
      <point x="126" y="557"/>
      <point x="153" y="576"/>
      <point x="153" y="616" type="curve" smooth="yes"/>
      <point x="153" y="630"/>
      <point x="76" y="667"/>
      <point x="76" y="667" type="curve"/>
      <point x="90" y="694"/>
      <point x="120" y="720"/>
      <point x="184" y="720" type="curve" smooth="yes"/>
      <point x="266" y="720"/>
      <point x="303" y="674"/>
      <point x="303" y="543" type="curve" smooth="yes"/>
      <point x="303" y="454"/>
      <point x="283" y="356"/>
      <point x="206" y="356" type="curve" smooth="yes"/>
      <point x="180" y="356"/>
      <point x="172" y="361"/>
    </contour>
  </outline>
</glyph>
<glyph name="at" format="1">
  <advance width="1097"/>
  <unicode hex="0040"/>
  <outline>
    <contour>
      <point x="714" y="-36" type="curve" smooth="yes"/>
      <point x="851" y="-36"/>
      <point x="1052" y="142"/>
      <point x="1052" y="423" type="curve" smooth="yes"/>
      <point x="1052" y="624"/>
      <point x="932" y="735"/>
      <point x="744" y="735" type="curve" smooth="yes"/>
      <point x="413" y="735"/>
      <point x="65" y="362"/>
      <point x="65" y="25" type="curve" smooth="yes"/>
      <point x="65" y="-183"/>
      <point x="224" y="-285"/>
      <point x="411" y="-285" type="curve" smooth="yes"/>
      <point x="587" y="-285"/>
      <point x="668" y="-188"/>
      <point x="668" y="-188" type="curve" smooth="yes"/>
      <point x="676" y="-184"/>
      <point x="660" y="-163"/>
      <point x="651" y="-168" type="curve" smooth="yes"/>
      <point x="651" y="-168"/>
      <point x="578" y="-255"/>
      <point x="411" y="-255" type="curve" smooth="yes"/>
      <point x="250" y="-255"/>
      <point x="103" y="-177"/>
      <point x="103" y="23" type="curve" smooth="yes"/>
      <point x="103" y="369"/>
      <point x="448" y="705"/>
      <point x="743" y="705" type="curve" smooth="yes"/>
      <point x="931" y="705"/>
      <point x="1013" y="582"/>
      <point x="1013" y="423" type="curve" smooth="yes"/>
      <point x="1013" y="152"/>
      <point x="833" y="0"/>
      <point x="735" y="0" type="curve" smooth="yes"/>
      <point x="690" y="0"/>
      <point x="681" y="22"/>
      <point x="681" y="70" type="curve" smooth="yes"/>
      <point x="681" y="134"/>
      <point x="776" y="333"/>
      <point x="824" y="450" type="curve"/>
      <point x="824" y="450"/>
      <point x="800" y="451"/>
      <point x="772" y="449" type="curve" smooth="yes"/>
      <point x="726" y="445"/>
      <point x="700" y="390"/>
      <point x="664" y="301" type="curve" smooth="yes"/>
      <point x="642" y="247"/>
      <point x="591" y="157"/>
      <point x="591" y="80" type="curve" smooth="yes"/>
      <point x="591" y="15"/>
      <point x="630" y="-36"/>
    </contour>
    <contour>
      <point x="719" y="377" type="line"/>
      <point x="716" y="418"/>
      <point x="696" y="465"/>
      <point x="634" y="465" type="curve" smooth="yes"/>
      <point x="475" y="465"/>
      <point x="308" y="248"/>
      <point x="308" y="91" type="curve" smooth="yes"/>
      <point x="308" y="19"/>
      <point x="349" y="-15"/>
      <point x="406" y="-15" type="curve" smooth="yes"/>
      <point x="502" y="-15"/>
      <point x="597" y="105"/>
      <point x="637" y="195" type="curve"/>
      <point x="650" y="260" type="line"/>
      <point x="650" y="260"/>
      <point x="679" y="340"/>
      <point x="649" y="263" type="curve" smooth="yes"/>
      <point x="619" y="188"/>
      <point x="507" y="29"/>
      <point x="450" y="29" type="curve" smooth="yes"/>
      <point x="428" y="29"/>
      <point x="418" y="52"/>
      <point x="418" y="86" type="curve" smooth="yes"/>
      <point x="418" y="231"/>
      <point x="542" y="435"/>
      <point x="636" y="435" type="curve" smooth="yes"/>
      <point x="682" y="435"/>
      <point x="693" y="391"/>
      <point x="694" y="354" type="curve"/>
    </contour>
  </outline>
</glyph>
<glyph name="A" format="1">
  <advance width="706"/>
  <unicode hex="0041"/>
  <outline>
    <contour>
      <point x="489" y="21" type="line"/>
      <point x="491" y="16"/>
      <point x="490" y="15"/>
      <point x="486" y="15" type="curve" smooth="yes"/>
      <point x="401" y="15" type="line" smooth="yes"/>
      <point x="396" y="15"/>
      <point x="396" y="0"/>
      <point x="401" y="0" type="curve" smooth="yes"/>
      <point x="697" y="0" type="line" smooth="yes"/>
      <point x="702" y="0"/>
      <point x="702" y="15"/>
      <point x="697" y="15" type="curve" smooth="yes"/>
      <point x="624" y="15" type="line" smooth="yes"/>
      <point x="620" y="15"/>
      <point x="618" y="16"/>
      <point x="617" y="19" type="curve" smooth="yes"/>
      <point x="372" y="735" type="line"/>
      <point x="363" y="730" type="line"/>
      <point x="86" y="18" type="line" smooth="yes"/>
      <point x="85" y="16"/>
      <point x="84" y="15"/>
      <point x="82" y="15" type="curve" smooth="yes"/>
      <point x="9" y="15" type="line" smooth="yes"/>
      <point x="4" y="15"/>
      <point x="4" y="0"/>
      <point x="9" y="0" type="curve" smooth="yes"/>
      <point x="190" y="0" type="line" smooth="yes"/>
      <point x="195" y="0"/>
      <point x="195" y="15"/>
      <point x="190" y="15" type="curve" smooth="yes"/>
      <point x="108" y="15" type="line" smooth="yes"/>
      <point x="105" y="15"/>
      <point x="104" y="16"/>
      <point x="105" y="20" type="curve" smooth="yes"/>
      <point x="317" y="566" type="line"/>
    </contour>
    <contour>
      <point x="419" y="257" type="line"/>
      <point x="195" y="257" type="line"/>
      <point x="196" y="257"/>
      <point x="183" y="242"/>
      <point x="183" y="242" type="curve"/>
      <point x="429" y="242" type="line"/>
    </contour>
  </outline>
</glyph>
<glyph name="B" format="1">
  <advance width="719"/>
  <unicode hex="0042"/>
  <outline>
    <contour>
      <point x="146" y="705" type="line"/>
      <point x="150" y="705"/>
      <point x="151" y="704"/>
      <point x="151" y="700" type="curve" smooth="yes"/>
      <point x="151" y="20" type="line" smooth="yes"/>
      <point x="151" y="16"/>
      <point x="150" y="15"/>
      <point x="147" y="15" type="curve" smooth="yes"/>
      <point x="54" y="15" type="line" smooth="yes"/>
      <point x="49" y="15"/>
      <point x="49" y="0"/>
      <point x="54" y="0" type="curve" smooth="yes"/>
      <point x="343" y="0" type="line" smooth="yes"/>
      <point x="479" y="0"/>
      <point x="649" y="64"/>
      <point x="649" y="210" type="curve" smooth="yes"/>
      <point x="649" y="335"/>
      <point x="508" y="380"/>
      <point x="421" y="389" type="curve"/>
      <point x="501" y="400"/>
      <point x="616" y="461"/>
      <point x="616" y="560" type="curve" smooth="yes"/>
      <point x="616" y="672"/>
      <point x="502" y="720"/>
      <point x="347" y="720" type="curve" smooth="yes"/>
      <point x="54" y="720" type="line" smooth="yes"/>
      <point x="49" y="720"/>
      <point x="49" y="705"/>
      <point x="54" y="705" type="curve" smooth="yes"/>
    </contour>
    <contour>
      <point x="339" y="377" type="line"/>
      <point x="469" y="377"/>
      <point x="518" y="327"/>
      <point x="518" y="207" type="curve" smooth="yes"/>
      <point x="518" y="71"/>
      <point x="471" y="14"/>
      <point x="342" y="14" type="curve" smooth="yes"/>
      <point x="266" y="14" type="line"/>
      <point x="266" y="377" type="line"/>
    </contour>
    <contour>
      <point x="346" y="705" type="line"/>
      <point x="451" y="705"/>
      <point x="491" y="670"/>
      <point x="491" y="552" type="curve" smooth="yes"/>
      <point x="491" y="426"/>
      <point x="439" y="392"/>
      <point x="340" y="392" type="curve" smooth="yes"/>
      <point x="266" y="392" type="line"/>
      <point x="266" y="705" type="line"/>
    </contour>
  </outline>
</glyph>
<glyph name="C" format="1">
  <advance width="706"/>
  <unicode hex="0043"/>
  <outline>
    <contour>
      <point x="400" y="0" type="curve" smooth="yes"/>
      <point x="250" y="0"/>
      <point x="190" y="82"/>
      <point x="190" y="365" type="curve" smooth="yes"/>
      <point x="190" y="656"/>
      <point x="281" y="720"/>
      <point x="405" y="720" type="curve" smooth="yes"/>
      <point x="490" y="720"/>
      <point x="540" y="674"/>
      <point x="573" y="623" type="curve" smooth="yes"/>
      <point x="605" y="574"/>
      <point x="629" y="522"/>
      <point x="629" y="522" type="curve" smooth="yes"/>
      <point x="630" y="520"/>
      <point x="637" y="522"/>
      <point x="637" y="524" type="curve" smooth="yes"/>
      <point x="632" y="733" type="line" smooth="yes"/>
      <point x="632" y="735"/>
      <point x="626" y="736"/>
      <point x="625" y="735" type="curve" smooth="yes"/>
      <point x="565" y="661" type="line"/>
      <point x="565" y="661"/>
      <point x="511" y="735"/>
      <point x="405" y="735" type="curve" smooth="yes"/>
      <point x="215" y="735"/>
      <point x="55" y="575"/>
      <point x="55" y="358" type="curve" smooth="yes"/>
      <point x="55" y="136"/>
      <point x="211" y="-15"/>
      <point x="400" y="-15" type="curve" smooth="yes"/>
      <point x="524" y="-15"/>
      <point x="568" y="63"/>
      <point x="568" y="63" type="curve"/>
      <point x="636" y="-5" type="line" smooth="yes"/>
      <point x="637" y="-6"/>
      <point x="641" y="-5"/>
      <point x="641" y="-4" type="curve" smooth="yes"/>
      <point x="641" y="222" type="line" smooth="yes"/>
      <point x="641" y="223"/>
      <point x="635" y="225"/>
      <point x="634" y="223" type="curve" smooth="yes"/>
      <point x="634" y="223"/>
      <point x="598" y="134"/>
      <point x="569" y="86" type="curve" smooth="yes"/>
      <point x="528" y="17"/>
      <point x="464" y="0"/>
    </contour>
  </outline>
</glyph>
<glyph name="D" format="1">
  <advance width="769"/>
  <unicode hex="0044"/>
  <outline>
    <contour>
      <point x="145" y="705" type="line"/>
      <point x="150" y="705"/>
      <point x="151" y="704"/>
      <point x="151" y="699" type="curve" smooth="yes"/>
      <point x="151" y="24" type="line" smooth="yes"/>
      <point x="151" y="16"/>
      <point x="150" y="15"/>
      <point x="145" y="15" type="curve" smooth="yes"/>
      <point x="54" y="15" type="line" smooth="yes"/>
      <point x="49" y="15"/>
      <point x="49" y="0"/>
      <point x="54" y="0" type="curve" smooth="yes"/>
      <point x="319" y="0" type="line" smooth="yes"/>
      <point x="579" y="0"/>
      <point x="719" y="193"/>
      <point x="719" y="383" type="curve" smooth="yes"/>
      <point x="719" y="558"/>
      <point x="574" y="720"/>
      <point x="334" y="720" type="curve" smooth="yes"/>
      <point x="55" y="720" type="line" smooth="yes"/>
      <point x="50" y="720"/>
      <point x="50" y="705"/>
      <point x="55" y="705" type="curve" smooth="yes"/>
    </contour>
    <contour>
      <point x="271" y="15" type="curve"/>
      <point x="271" y="705" type="line"/>
      <point x="299" y="705"/>
      <point x="285" y="706"/>
      <point x="338" y="705" type="curve" smooth="yes"/>
      <point x="497" y="701"/>
      <point x="584" y="623"/>
      <point x="584" y="374" type="curve" smooth="yes"/>
      <point x="584" y="110"/>
      <point x="487" y="20"/>
      <point x="328" y="15" type="curve" smooth="yes"/>
      <point x="298" y="14"/>
      <point x="282" y="15"/>
    </contour>
  </outline>
</glyph>
<glyph name="E" format="1">
  <advance width="669"/>
  <unicode hex="0045"/>
  <outline>
    <contour>
      <point x="270" y="699" type="line"/>
      <point x="270" y="704"/>
      <point x="271" y="705"/>
      <point x="274" y="705" type="curve" smooth="yes"/>
      <point x="395" y="705" type="line" smooth="yes"/>
      <point x="475" y="705"/>
      <point x="487" y="702"/>
      <point x="502" y="679" type="curve" smooth="yes"/>
      <point x="526" y="641"/>
      <point x="564" y="558"/>
      <point x="576" y="538" type="curve" smooth="yes"/>
      <point x="578" y="535"/>
      <point x="586" y="538"/>
      <point x="586" y="541" type="curve" smooth="yes"/>
      <point x="586" y="720" type="line"/>
      <point x="54" y="720" type="line" smooth="yes"/>
      <point x="49" y="720"/>
      <point x="49" y="705"/>
      <point x="54" y="705" type="curve" smooth="yes"/>
      <point x="144" y="705" type="line" smooth="yes"/>
      <point x="149" y="705"/>
      <point x="150" y="704"/>
      <point x="150" y="699" type="curve" smooth="yes"/>
      <point x="150" y="20" type="line" smooth="yes"/>
      <point x="150" y="16"/>
      <point x="149" y="15"/>
      <point x="146" y="15" type="curve" smooth="yes"/>
      <point x="54" y="15" type="line" smooth="yes"/>
      <point x="49" y="15"/>
      <point x="49" y="0"/>
      <point x="54" y="0" type="curve" smooth="yes"/>
      <point x="609" y="0" type="line"/>
      <point x="609" y="226" type="line" smooth="yes"/>
      <point x="609" y="229"/>
      <point x="600" y="230"/>
      <point x="599" y="227" type="curve" smooth="yes"/>
      <point x="595" y="216"/>
      <point x="554" y="102"/>
      <point x="528" y="46" type="curve" smooth="yes"/>
      <point x="515" y="18"/>
      <point x="512" y="15"/>
      <point x="438" y="15" type="curve" smooth="yes"/>
      <point x="274" y="15" type="line" smooth="yes"/>
      <point x="270" y="15"/>
      <point x="270" y="16"/>
      <point x="270" y="20" type="curve" smooth="yes"/>
      <point x="270" y="361" type="line"/>
      <point x="408" y="361" type="line" smooth="yes"/>
      <point x="424" y="361"/>
      <point x="427" y="357"/>
      <point x="431" y="347" type="curve" smooth="yes"/>
      <point x="479" y="243" type="line" smooth="yes"/>
      <point x="482" y="239"/>
      <point x="490" y="240"/>
      <point x="490" y="244" type="curve" smooth="yes"/>
      <point x="490" y="497" type="line" smooth="yes"/>
      <point x="490" y="501"/>
      <point x="481" y="504"/>
      <point x="478" y="500" type="curve" smooth="yes"/>
      <point x="431" y="391" type="line" smooth="yes"/>
      <point x="426" y="380"/>
      <point x="424" y="376"/>
      <point x="408" y="376" type="curve" smooth="yes"/>
      <point x="270" y="376" type="line"/>
    </contour>
  </outline>
</glyph>
<glyph name="F" format="1">
  <advance width="618"/>
  <unicode hex="0046"/>
  <outline>
    <contour>
      <point x="153" y="24" type="line"/>
      <point x="153" y="15"/>
      <point x="152" y="15"/>
      <point x="145" y="15" type="curve" smooth="yes"/>
      <point x="55" y="15" type="line" smooth="yes"/>
      <point x="49" y="15"/>
      <point x="49" y="0"/>
      <point x="55" y="0" type="curve" smooth="yes"/>
      <point x="384" y="0" type="line" smooth="yes"/>
      <point x="390" y="0"/>
      <point x="390" y="15"/>
      <point x="384" y="15" type="curve" smooth="yes"/>
      <point x="283" y="15" type="line" smooth="yes"/>
      <point x="274" y="15"/>
      <point x="273" y="15"/>
      <point x="273" y="24" type="curve" smooth="yes"/>
      <point x="273" y="341" type="line"/>
      <point x="425" y="341" type="line" smooth="yes"/>
      <point x="441" y="341"/>
      <point x="444" y="337"/>
      <point x="448" y="327" type="curve"/>
      <point x="496" y="223" type="line" smooth="yes"/>
      <point x="499" y="219"/>
      <point x="507" y="220"/>
      <point x="507" y="224" type="curve" smooth="yes"/>
      <point x="507" y="477" type="line" smooth="yes"/>
      <point x="507" y="481"/>
      <point x="498" y="484"/>
      <point x="495" y="480" type="curve"/>
      <point x="448" y="371" type="line" smooth="yes"/>
      <point x="443" y="360"/>
      <point x="441" y="356"/>
      <point x="425" y="356" type="curve" smooth="yes"/>
      <point x="273" y="356" type="line"/>
      <point x="273" y="699" type="line" smooth="yes"/>
      <point x="273" y="704"/>
      <point x="274" y="705"/>
      <point x="277" y="705" type="curve" smooth="yes"/>
      <point x="412" y="705" type="line" smooth="yes"/>
      <point x="492" y="705"/>
      <point x="504" y="702"/>
      <point x="519" y="679" type="curve" smooth="yes"/>
      <point x="543" y="641"/>
      <point x="581" y="558"/>
      <point x="593" y="538" type="curve" smooth="yes"/>
      <point x="595" y="535"/>
      <point x="603" y="538"/>
      <point x="603" y="541" type="curve" smooth="yes"/>
      <point x="603" y="720" type="line"/>
      <point x="57" y="720" type="line" smooth="yes"/>
      <point x="52" y="720"/>
      <point x="52" y="705"/>
      <point x="57" y="705" type="curve" smooth="yes"/>
      <point x="147" y="705" type="line" smooth="yes"/>
      <point x="152" y="705"/>
      <point x="153" y="704"/>
      <point x="153" y="699" type="curve" smooth="yes"/>
    </contour>
  </outline>
</glyph>
<glyph name="G" format="1">
  <advance width="779"/>
  <unicode hex="0047"/>
  <outline>
    <contour>
      <point x="400" y="735" type="curve" smooth="yes"/>
      <point x="211" y="735"/>
      <point x="55" y="575"/>
      <point x="55" y="358" type="curve" smooth="yes"/>
      <point x="55" y="136"/>
      <point x="207" y="-15"/>
      <point x="395" y="-15" type="curve" smooth="yes"/>
      <point x="518" y="-15"/>
      <point x="558" y="74"/>
      <point x="558" y="74" type="curve"/>
      <point x="657" y="-9" type="line" smooth="yes"/>
      <point x="659" y="-11"/>
      <point x="663" y="-9"/>
      <point x="663" y="-7" type="curve" smooth="yes"/>
      <point x="663" y="280" type="line" smooth="yes"/>
      <point x="663" y="289"/>
      <point x="664" y="290"/>
      <point x="670" y="290" type="curve" smooth="yes"/>
      <point x="751" y="290" type="line" smooth="yes"/>
      <point x="756" y="290"/>
      <point x="756" y="305"/>
      <point x="751" y="305" type="curve" smooth="yes"/>
      <point x="450" y="305" type="line" smooth="yes"/>
      <point x="445" y="305"/>
      <point x="445" y="290"/>
      <point x="450" y="290" type="curve" smooth="yes"/>
      <point x="543" y="290" type="line" smooth="yes"/>
      <point x="547" y="290"/>
      <point x="548" y="289"/>
      <point x="548" y="281" type="curve" smooth="yes"/>
      <point x="548" y="83" type="line"/>
      <point x="521" y="37"/>
      <point x="477" y="0"/>
      <point x="395" y="0" type="curve" smooth="yes"/>
      <point x="246" y="0"/>
      <point x="190" y="94"/>
      <point x="190" y="366" type="curve" smooth="yes"/>
      <point x="190" y="625"/>
      <point x="246" y="720"/>
      <point x="400" y="720" type="curve" smooth="yes"/>
      <point x="483" y="720"/>
      <point x="535" y="681"/>
      <point x="565" y="641" type="curve" smooth="yes"/>
      <point x="585" y="614"/>
      <point x="635" y="521"/>
      <point x="635" y="521" type="curve"/>
      <point x="636" y="520"/>
      <point x="642" y="522"/>
      <point x="642" y="523" type="curve" smooth="yes"/>
      <point x="637" y="733" type="line" smooth="yes"/>
      <point x="637" y="734"/>
      <point x="634" y="735"/>
      <point x="632" y="734" type="curve" smooth="yes"/>
      <point x="566" y="664" type="line"/>
      <point x="566" y="664"/>
      <point x="514" y="735"/>
    </contour>
  </outline>
</glyph>
<glyph name="H" format="1">
  <advance width="873"/>
  <unicode hex="0048"/>
  <outline>
    <contour>
      <point x="723" y="697" type="line"/>
      <point x="723" y="704"/>
      <point x="724" y="705"/>
      <point x="729" y="705" type="curve" smooth="yes"/>
      <point x="819" y="705" type="line" smooth="yes"/>
      <point x="824" y="705"/>
      <point x="824" y="720"/>
      <point x="819" y="720" type="curve" smooth="yes"/>
      <point x="530" y="720" type="line" smooth="yes"/>
      <point x="525" y="720"/>
      <point x="525" y="705"/>
      <point x="530" y="705" type="curve" smooth="yes"/>
      <point x="595" y="705" type="line" smooth="yes"/>
      <point x="602" y="705"/>
      <point x="603" y="703"/>
      <point x="603" y="697" type="curve" smooth="yes"/>
      <point x="603" y="374" type="line"/>
      <point x="270" y="374" type="line"/>
      <point x="270" y="697" type="line" smooth="yes"/>
      <point x="270" y="703"/>
      <point x="271" y="705"/>
      <point x="278" y="705" type="curve" smooth="yes"/>
      <point x="343" y="705" type="line" smooth="yes"/>
      <point x="348" y="705"/>
      <point x="348" y="720"/>
      <point x="343" y="720" type="curve" smooth="yes"/>
      <point x="54" y="720" type="line" smooth="yes"/>
      <point x="49" y="720"/>
      <point x="49" y="705"/>
      <point x="54" y="705" type="curve" smooth="yes"/>
      <point x="144" y="705" type="line" smooth="yes"/>
      <point x="149" y="705"/>
      <point x="150" y="704"/>
      <point x="150" y="697" type="curve" smooth="yes"/>
      <point x="150" y="23" type="line" smooth="yes"/>
      <point x="150" y="16"/>
      <point x="149" y="15"/>
      <point x="144" y="15" type="curve" smooth="yes"/>
      <point x="54" y="15" type="line" smooth="yes"/>
      <point x="49" y="15"/>
      <point x="49" y="0"/>
      <point x="54" y="0" type="curve" smooth="yes"/>
      <point x="343" y="0" type="line" smooth="yes"/>
      <point x="348" y="0"/>
      <point x="348" y="15"/>
      <point x="343" y="15" type="curve" smooth="yes"/>
      <point x="278" y="15" type="line" smooth="yes"/>
      <point x="271" y="15"/>
      <point x="270" y="17"/>
      <point x="270" y="23" type="curve" smooth="yes"/>
      <point x="270" y="359" type="line"/>
      <point x="603" y="359" type="line"/>
      <point x="603" y="23" type="line" smooth="yes"/>
      <point x="603" y="17"/>
      <point x="602" y="15"/>
      <point x="595" y="15" type="curve" smooth="yes"/>
      <point x="530" y="15" type="line" smooth="yes"/>
      <point x="525" y="15"/>
      <point x="525" y="0"/>
      <point x="530" y="0" type="curve" smooth="yes"/>
      <point x="819" y="0" type="line" smooth="yes"/>
      <point x="824" y="0"/>
      <point x="824" y="15"/>
      <point x="819" y="15" type="curve" smooth="yes"/>
      <point x="729" y="15" type="line" smooth="yes"/>
      <point x="724" y="15"/>
      <point x="723" y="16"/>
      <point x="723" y="23" type="curve" smooth="yes"/>
    </contour>
  </outline>
</glyph>
<glyph name="I" format="1">
  <advance width="420"/>
  <unicode hex="0049"/>
  <outline>
    <contour>
      <point x="150" y="21" type="line"/>
      <point x="150" y="16"/>
      <point x="149" y="15"/>
      <point x="144" y="15" type="curve" smooth="yes"/>
      <point x="54" y="15" type="line" smooth="yes"/>
      <point x="49" y="15"/>
      <point x="49" y="0"/>
      <point x="54" y="0" type="curve" smooth="yes"/>
      <point x="366" y="0" type="line" smooth="yes"/>
      <point x="371" y="0"/>
      <point x="371" y="15"/>
      <point x="366" y="15" type="curve" smooth="yes"/>
      <point x="276" y="15" type="line" smooth="yes"/>
      <point x="272" y="15"/>
      <point x="270" y="16"/>
      <point x="270" y="21" type="curve" smooth="yes"/>
      <point x="270" y="699" type="line" smooth="yes"/>
      <point x="270" y="704"/>
      <point x="272" y="705"/>
      <point x="276" y="705" type="curve" smooth="yes"/>
      <point x="366" y="705" type="line" smooth="yes"/>
      <point x="371" y="705"/>
      <point x="371" y="720"/>
      <point x="366" y="720" type="curve" smooth="yes"/>
      <point x="54" y="720" type="line" smooth="yes"/>
      <point x="49" y="720"/>
      <point x="49" y="705"/>
      <point x="54" y="705" type="curve" smooth="yes"/>
      <point x="144" y="705" type="line" smooth="yes"/>
      <point x="149" y="705"/>
      <point x="150" y="704"/>
      <point x="150" y="699" type="curve" smooth="yes"/>
    </contour>
  </outline>
</glyph>
<glyph name="J" format="1">
  <advance width="454"/>
  <unicode hex="004A"/>
  <outline>
    <contour>
      <point x="251" y="101" type="curve" smooth="yes"/>
      <point x="251" y="31"/>
      <point x="211" y="0"/>
      <point x="151" y="0" type="curve" smooth="yes"/>
      <point x="80" y="0"/>
      <point x="43" y="51"/>
      <point x="37" y="86" type="curve"/>
      <point x="37" y="86"/>
      <point x="132" y="115"/>
      <point x="132" y="122" type="curve" smooth="yes"/>
      <point x="132" y="166"/>
      <point x="105" y="187"/>
      <point x="77" y="187" type="curve" smooth="yes"/>
      <point x="47" y="187"/>
      <point x="15" y="163"/>
      <point x="15" y="117" type="curve" smooth="yes"/>
      <point x="15" y="59"/>
      <point x="61" y="-15"/>
      <point x="151" y="-15" type="curve" smooth="yes"/>
      <point x="307" y="-15"/>
      <point x="336" y="135"/>
      <point x="336" y="265" type="curve" smooth="yes"/>
      <point x="336" y="699" type="line" smooth="yes"/>
      <point x="336" y="704"/>
      <point x="337" y="705"/>
      <point x="343" y="705" type="curve" smooth="yes"/>
      <point x="431" y="705" type="line" smooth="yes"/>
      <point x="436" y="705"/>
      <point x="436" y="720"/>
      <point x="431" y="720" type="curve" smooth="yes"/>
      <point x="125" y="720" type="line" smooth="yes"/>
      <point x="120" y="720"/>
      <point x="120" y="705"/>
      <point x="125" y="705" type="curve" smooth="yes"/>
      <point x="209" y="705" type="line" smooth="yes"/>
      <point x="215" y="705"/>
      <point x="216" y="704"/>
      <point x="216" y="699" type="curve" smooth="yes"/>
      <point x="216" y="272" type="line" smooth="yes"/>
      <point x="216" y="208"/>
      <point x="251" y="157"/>
    </contour>
  </outline>
</glyph>
<glyph name="K" format="1">
  <advance width="736"/>
  <unicode hex="004B"/>
  <outline>
    <contour>
      <point x="271" y="699" type="line"/>
      <point x="271" y="704"/>
      <point x="272" y="705"/>
      <point x="279" y="705" type="curve" smooth="yes"/>
      <point x="334" y="705" type="line" smooth="yes"/>
      <point x="339" y="705"/>
      <point x="339" y="720"/>
      <point x="334" y="720" type="curve" smooth="yes"/>
      <point x="56" y="720" type="line" smooth="yes"/>
      <point x="51" y="720"/>
      <point x="51" y="705"/>
      <point x="56" y="705" type="curve" smooth="yes"/>
      <point x="145" y="705" type="line" smooth="yes"/>
      <point x="150" y="705"/>
      <point x="151" y="704"/>
      <point x="151" y="699" type="curve" smooth="yes"/>
      <point x="151" y="20" type="line" smooth="yes"/>
      <point x="151" y="16"/>
      <point x="150" y="15"/>
      <point x="147" y="15" type="curve" smooth="yes"/>
      <point x="54" y="15" type="line" smooth="yes"/>
      <point x="49" y="15"/>
      <point x="49" y="0"/>
      <point x="54" y="0" type="curve" smooth="yes"/>
      <point x="339" y="0" type="line" smooth="yes"/>
      <point x="344" y="0"/>
      <point x="344" y="15"/>
      <point x="339" y="15" type="curve" smooth="yes"/>
      <point x="276" y="15" type="line" smooth="yes"/>
      <point x="272" y="15"/>
      <point x="271" y="16"/>
      <point x="271" y="20" type="curve" smooth="yes"/>
      <point x="271" y="371" type="line"/>
      <point x="278" y="371" type="line" smooth="yes"/>
      <point x="284" y="371"/>
      <point x="505" y="25"/>
      <point x="505" y="25" type="curve" smooth="yes"/>
      <point x="517" y="0" type="line"/>
      <point x="731" y="0" type="line" smooth="yes"/>
      <point x="737" y="0"/>
      <point x="737" y="15"/>
      <point x="731" y="15" type="curve" smooth="yes"/>
      <point x="666" y="15" type="line" smooth="yes"/>
      <point x="657" y="15"/>
      <point x="654" y="16"/>
      <point x="649" y="23" type="curve" smooth="yes"/>
      <point x="369" y="448" type="line"/>
      <point x="607" y="700" type="line" smooth="yes"/>
      <point x="612" y="705"/>
      <point x="615" y="705"/>
      <point x="619" y="705" type="curve" smooth="yes"/>
      <point x="699" y="705" type="line" smooth="yes"/>
      <point x="704" y="705"/>
      <point x="704" y="720"/>
      <point x="699" y="720" type="curve" smooth="yes"/>
      <point x="477" y="720" type="line" smooth="yes"/>
      <point x="472" y="720"/>
      <point x="472" y="705"/>
      <point x="477" y="705" type="curve" smooth="yes"/>
      <point x="583" y="705" type="line" smooth="yes"/>
      <point x="588" y="705"/>
      <point x="588" y="702"/>
      <point x="585" y="699" type="curve" smooth="yes"/>
      <point x="585" y="699"/>
      <point x="290" y="387"/>
      <point x="283" y="387" type="curve" smooth="yes"/>
      <point x="271" y="387" type="line"/>
    </contour>
  </outline>
</glyph>
<glyph name="L" format="1">
  <advance width="630"/>
  <unicode hex="004C"/>
  <outline>
    <contour>
      <point x="273" y="15" type="line"/>
      <point x="272" y="17"/>
      <point x="271" y="17"/>
      <point x="271" y="21" type="curve" smooth="yes"/>
      <point x="271" y="699" type="line" smooth="yes"/>
      <point x="271" y="704"/>
      <point x="273" y="705"/>
      <point x="279" y="705" type="curve" smooth="yes"/>
      <point x="362" y="705" type="line" smooth="yes"/>
      <point x="367" y="705"/>
      <point x="367" y="720"/>
      <point x="362" y="720" type="curve" smooth="yes"/>
      <point x="55" y="720" type="line" smooth="yes"/>
      <point x="50" y="720"/>
      <point x="50" y="705"/>
      <point x="55" y="705" type="curve" smooth="yes"/>
      <point x="145" y="705" type="line" smooth="yes"/>
      <point x="150" y="705"/>
      <point x="151" y="704"/>
      <point x="151" y="699" type="curve" smooth="yes"/>
      <point x="151" y="25" type="line" smooth="yes"/>
      <point x="151" y="16"/>
      <point x="151" y="15"/>
      <point x="143" y="15" type="curve" smooth="yes"/>
      <point x="54" y="15" type="line" smooth="yes"/>
      <point x="49" y="15"/>
      <point x="49" y="0"/>
      <point x="54" y="0" type="curve" smooth="yes"/>
      <point x="605" y="0" type="line"/>
      <point x="605" y="251" type="line" smooth="yes"/>
      <point x="605" y="252"/>
      <point x="601" y="252"/>
      <point x="600" y="251" type="curve" smooth="yes"/>
      <point x="593" y="238"/>
      <point x="562" y="162"/>
      <point x="525" y="90" type="curve" smooth="yes"/>
      <point x="494" y="30"/>
      <point x="487" y="15"/>
      <point x="414" y="15" type="curve" smooth="yes"/>
    </contour>
  </outline>
</glyph>
<glyph name="M" format="1">
  <advance width="933"/>
  <unicode hex="004D"/>
  <outline>
    <contour>
      <point x="664" y="22" type="line"/>
      <point x="664" y="16"/>
      <point x="663" y="15"/>
      <point x="657" y="15" type="curve" smooth="yes"/>
      <point x="579" y="15" type="line" smooth="yes"/>
      <point x="574" y="15"/>
      <point x="574" y="0"/>
      <point x="579" y="0" type="curve" smooth="yes"/>
      <point x="879" y="0" type="line" smooth="yes"/>
      <point x="884" y="0"/>
      <point x="884" y="15"/>
      <point x="879" y="15" type="curve" smooth="yes"/>
      <point x="790" y="15" type="line" smooth="yes"/>
      <point x="785" y="15"/>
      <point x="784" y="16"/>
      <point x="784" y="22" type="curve" smooth="yes"/>
      <point x="784" y="699" type="line" smooth="yes"/>
      <point x="784" y="704"/>
      <point x="785" y="705"/>
      <point x="789" y="705" type="curve" smooth="yes"/>
      <point x="878" y="705" type="line" smooth="yes"/>
      <point x="883" y="705"/>
      <point x="883" y="720"/>
      <point x="878" y="720" type="curve" smooth="yes"/>
      <point x="669" y="720" type="line"/>
      <point x="454" y="168" type="line"/>
      <point x="262" y="720" type="line"/>
      <point x="44" y="720" type="line" smooth="yes"/>
      <point x="39" y="720"/>
      <point x="39" y="705"/>
      <point x="44" y="705" type="curve" smooth="yes"/>
      <point x="136" y="705" type="line" smooth="yes"/>
      <point x="139" y="705"/>
      <point x="140" y="704"/>
      <point x="140" y="700" type="curve" smooth="yes"/>
      <point x="140" y="20" type="line" smooth="yes"/>
      <point x="140" y="16"/>
      <point x="139" y="15"/>
      <point x="136" y="15" type="curve" smooth="yes"/>
      <point x="45" y="15" type="line" smooth="yes"/>
      <point x="40" y="15"/>
      <point x="40" y="0"/>
      <point x="45" y="0" type="curve" smooth="yes"/>
      <point x="243" y="0" type="line" smooth="yes"/>
      <point x="248" y="0"/>
      <point x="248" y="15"/>
      <point x="243" y="15" type="curve" smooth="yes"/>
      <point x="165" y="15" type="line" smooth="yes"/>
      <point x="161" y="15"/>
      <point x="160" y="16"/>
      <point x="160" y="20" type="curve" smooth="yes"/>
      <point x="160" y="656" type="line"/>
      <point x="398" y="-6" type="line"/>
      <point x="407" y="-5" type="line"/>
      <point x="664" y="651" type="line"/>
    </contour>
  </outline>
</glyph>
<glyph name="N" format="1">
  <advance width="754"/>
  <unicode hex="004E"/>
  <outline>
    <contour>
      <point x="143" y="705" type="line"/>
      <point x="147" y="705"/>
      <point x="149" y="704"/>
      <point x="149" y="697" type="curve" smooth="yes"/>
      <point x="149" y="20" type="line" smooth="yes"/>
      <point x="149" y="16"/>
      <point x="148" y="15"/>
      <point x="144" y="15" type="curve" smooth="yes"/>
      <point x="49" y="15" type="line" smooth="yes"/>
      <point x="44" y="15"/>
      <point x="44" y="0"/>
      <point x="49" y="0" type="curve" smooth="yes"/>
      <point x="256" y="0" type="line" smooth="yes"/>
      <point x="261" y="0"/>
      <point x="261" y="15"/>
      <point x="256" y="15" type="curve" smooth="yes"/>
      <point x="175" y="15" type="line" smooth="yes"/>
      <point x="170" y="15"/>
      <point x="169" y="16"/>
      <point x="169" y="20" type="curve" smooth="yes"/>
      <point x="169" y="658" type="line"/>
      <point x="599" y="-5" type="line"/>
      <point x="610" y="-5" type="line"/>
      <point x="610" y="698" type="line" smooth="yes"/>
      <point x="610" y="704"/>
      <point x="612" y="705"/>
      <point x="616" y="705" type="curve" smooth="yes"/>
      <point x="705" y="705" type="line" smooth="yes"/>
      <point x="710" y="705"/>
      <point x="710" y="720"/>
      <point x="705" y="720" type="curve" smooth="yes"/>
      <point x="508" y="720" type="line" smooth="yes"/>
      <point x="503" y="720"/>
      <point x="503" y="705"/>
      <point x="508" y="705" type="curve" smooth="yes"/>
      <point x="584" y="705" type="line" smooth="yes"/>
      <point x="588" y="705"/>
      <point x="590" y="704"/>
      <point x="590" y="699" type="curve" smooth="yes"/>
      <point x="590" y="232" type="line"/>
      <point x="277" y="720" type="line"/>
      <point x="49" y="720" type="line" smooth="yes"/>
      <point x="44" y="720"/>
      <point x="44" y="705"/>
      <point x="49" y="705" type="curve" smooth="yes"/>
    </contour>
  </outline>
</glyph>
<glyph name="O" format="1">
  <advance width="775"/>
  <unicode hex="004F"/>
  <outline>
    <contour>
      <point x="387" y="720" type="curve" smooth="yes"/>
      <point x="543" y="720"/>
      <point x="585" y="623"/>
      <point x="585" y="367" type="curve" smooth="yes"/>
      <point x="585" y="106"/>
      <point x="543" y="0"/>
      <point x="387" y="0" type="curve" smooth="yes"/>
      <point x="232" y="0"/>
      <point x="190" y="111"/>
      <point x="190" y="367" type="curve" smooth="yes"/>
      <point x="190" y="619"/>
      <point x="232" y="720"/>
    </contour>
    <contour>
      <point x="387" y="-15" type="curve" smooth="yes"/>
      <point x="584" y="-15"/>
      <point x="720" y="183"/>
      <point x="720" y="367" type="curve" smooth="yes"/>
      <point x="720" y="541"/>
      <point x="586" y="735"/>
      <point x="387" y="735" type="curve" smooth="yes"/>
      <point x="189" y="735"/>
      <point x="55" y="547"/>
      <point x="55" y="367" type="curve" smooth="yes"/>
      <point x="55" y="183"/>
      <point x="185" y="-15"/>
    </contour>
  </outline>
</glyph>
<glyph name="P" format="1">
  <advance width="661"/>
  <unicode hex="0050"/>
  <outline>
    <contour>
      <point x="340" y="705" type="line"/>
      <point x="457" y="705"/>
      <point x="496" y="665"/>
      <point x="496" y="529" type="curve" smooth="yes"/>
      <point x="496" y="395"/>
      <point x="456" y="354"/>
      <point x="339" y="354" type="curve" smooth="yes"/>
      <point x="292" y="354"/>
      <point x="271" y="358"/>
      <point x="271" y="358" type="curve"/>
      <point x="271" y="705" type="line"/>
    </contour>
    <contour>
      <point x="151" y="20" type="line"/>
      <point x="151" y="16"/>
      <point x="150" y="15"/>
      <point x="147" y="15" type="curve" smooth="yes"/>
      <point x="54" y="15" type="line" smooth="yes"/>
      <point x="49" y="15"/>
      <point x="49" y="0"/>
      <point x="54" y="0" type="curve" smooth="yes"/>
      <point x="378" y="0" type="line" smooth="yes"/>
      <point x="383" y="0"/>
      <point x="383" y="15"/>
      <point x="378" y="15" type="curve" smooth="yes"/>
      <point x="277" y="15" type="line" smooth="yes"/>
      <point x="272" y="15"/>
      <point x="271" y="16"/>
      <point x="271" y="22" type="curve" smooth="yes"/>
      <point x="271" y="344" type="line"/>
      <point x="271" y="344"/>
      <point x="294" y="339"/>
      <point x="362" y="339" type="curve" smooth="yes"/>
      <point x="528" y="339"/>
      <point x="631" y="427"/>
      <point x="631" y="531" type="curve" smooth="yes"/>
      <point x="631" y="635"/>
      <point x="532" y="720"/>
      <point x="366" y="720" type="curve" smooth="yes"/>
      <point x="57" y="720" type="line" smooth="yes"/>
      <point x="52" y="720"/>
      <point x="52" y="705"/>
      <point x="57" y="705" type="curve" smooth="yes"/>
      <point x="145" y="705" type="line" smooth="yes"/>
      <point x="150" y="705"/>
      <point x="151" y="704"/>
      <point x="151" y="698" type="curve" smooth="yes"/>
    </contour>
  </outline>
</glyph>
<glyph name="Q" format="1">
  <advance width="776"/>
  <unicode hex="0051"/>
  <outline>
    <contour>
      <point x="324" y="-8" type="line"/>
      <point x="407" y="-33"/>
      <point x="413" y="-67"/>
      <point x="467" y="-147" type="curve" smooth="yes"/>
      <point x="529" y="-239"/>
      <point x="573" y="-270"/>
      <point x="650" y="-270" type="curve" smooth="yes"/>
      <point x="715" y="-270"/>
      <point x="746" y="-230"/>
      <point x="746" y="-184" type="curve" smooth="yes"/>
      <point x="746" y="-181"/>
      <point x="733" y="-181"/>
      <point x="733" y="-184" type="curve" smooth="yes"/>
      <point x="733" y="-207"/>
      <point x="722" y="-239"/>
      <point x="692" y="-239" type="curve" smooth="yes"/>
      <point x="635" y="-239"/>
      <point x="571" y="-72"/>
      <point x="558" y="-67" type="curve" smooth="yes"/>
      <point x="506" y="-48"/>
      <point x="483" y="-44"/>
      <point x="355" y="-11" type="curve"/>
    </contour>
    <component base="O"/>
  </outline>
</glyph>
<glyph name="R" format="1">
  <advance width="745"/>
  <unicode hex="0052"/>
  <outline>
    <contour>
      <point x="359" y="705" type="line"/>
      <point x="444" y="705"/>
      <point x="495" y="659"/>
      <point x="495" y="540" type="curve" smooth="yes"/>
      <point x="495" y="432"/>
      <point x="471" y="382"/>
      <point x="378" y="382" type="curve" smooth="yes"/>
      <point x="271" y="382" type="line"/>
      <point x="271" y="705" type="line"/>
    </contour>
    <contour>
      <point x="151" y="20" type="line"/>
      <point x="151" y="16"/>
      <point x="150" y="15"/>
      <point x="145" y="15" type="curve" smooth="yes"/>
      <point x="54" y="15" type="line" smooth="yes"/>
      <point x="49" y="15"/>
      <point x="50" y="0"/>
      <point x="54" y="0" type="curve" smooth="yes"/>
      <point x="352" y="0" type="line" smooth="yes"/>
      <point x="357" y="0"/>
      <point x="357" y="15"/>
      <point x="352" y="15" type="curve" smooth="yes"/>
      <point x="276" y="15" type="line" smooth="yes"/>
      <point x="272" y="15"/>
      <point x="271" y="16"/>
      <point x="271" y="22" type="curve" smooth="yes"/>
      <point x="271" y="367" type="line"/>
      <point x="401" y="367" type="line" smooth="yes"/>
      <point x="455" y="367"/>
      <point x="496" y="356"/>
      <point x="502" y="277" type="curve" smooth="yes"/>
      <point x="506" y="224"/>
      <point x="500" y="153"/>
      <point x="503" y="101" type="curve" smooth="yes"/>
      <point x="508" y="15"/>
      <point x="556" y="-15"/>
      <point x="620" y="-15" type="curve" smooth="yes"/>
      <point x="682" y="-15"/>
      <point x="725" y="23"/>
      <point x="725" y="77" type="curve" smooth="yes"/>
      <point x="725" y="79"/>
      <point x="715" y="79"/>
      <point x="715" y="77" type="curve" smooth="yes"/>
      <point x="715" y="49"/>
      <point x="696" y="15"/>
      <point x="669" y="15" type="curve" smooth="yes"/>
      <point x="634" y="15"/>
      <point x="631" y="61"/>
      <point x="629" y="84" type="curve" smooth="yes"/>
      <point x="625" y="139"/>
      <point x="625" y="198"/>
      <point x="620" y="240" type="curve" smooth="yes"/>
      <point x="607" y="350"/>
      <point x="506" y="376"/>
      <point x="436" y="378" type="curve"/>
      <point x="530" y="386"/>
      <point x="625" y="454"/>
      <point x="625" y="543" type="curve" smooth="yes"/>
      <point x="625" y="689"/>
      <point x="464" y="720"/>
      <point x="355" y="720" type="curve" smooth="yes"/>
      <point x="55" y="720" type="line" smooth="yes"/>
      <point x="50" y="720"/>
      <point x="50" y="705"/>
      <point x="55" y="705" type="curve" smooth="yes"/>
      <point x="145" y="705" type="line" smooth="yes"/>
      <point x="150" y="705"/>
      <point x="151" y="704"/>
      <point x="151" y="700" type="curve" smooth="yes"/>
    </contour>
  </outline>
</glyph>
<glyph name="S" format="1">
  <advance width="627"/>
  <unicode hex="0053"/>
  <outline>
    <contour>
      <point x="453" y="622" type="curve" smooth="yes"/>
      <point x="470" y="585"/>
      <point x="495" y="531"/>
      <point x="498" y="521" type="curve" smooth="yes"/>
      <point x="499" y="518"/>
      <point x="506" y="520"/>
      <point x="506" y="523" type="curve" smooth="yes"/>
      <point x="505" y="730" type="line" smooth="yes"/>
      <point x="505" y="731"/>
      <point x="500" y="732"/>
      <point x="499" y="731" type="curve" smooth="yes"/>
      <point x="440" y="672" type="line"/>
      <point x="411" y="716"/>
      <point x="359" y="735"/>
      <point x="312" y="735" type="curve" smooth="yes"/>
      <point x="189" y="735"/>
      <point x="97" y="649"/>
      <point x="97" y="532" type="curve" smooth="yes"/>
      <point x="97" y="254"/>
      <point x="471" y="334"/>
      <point x="471" y="128" type="curve" smooth="yes"/>
      <point x="471" y="43"/>
      <point x="413" y="0"/>
      <point x="333" y="0" type="curve" smooth="yes"/>
      <point x="252" y="0"/>
      <point x="175" y="38"/>
      <point x="142" y="103" type="curve" smooth="yes"/>
      <point x="120" y="147"/>
      <point x="83" y="241"/>
      <point x="83" y="241" type="curve" smooth="yes"/>
      <point x="82" y="244"/>
      <point x="75" y="242"/>
      <point x="75" y="240" type="curve" smooth="yes"/>
      <point x="75" y="-10" type="line" smooth="yes"/>
      <point x="75" y="-11"/>
      <point x="79" y="-13"/>
      <point x="81" y="-11" type="curve" smooth="yes"/>
      <point x="143" y="72" type="line"/>
      <point x="187" y="12"/>
      <point x="264" y="-15"/>
      <point x="332" y="-15" type="curve" smooth="yes"/>
      <point x="472" y="-15"/>
      <point x="572" y="86"/>
      <point x="572" y="203" type="curve" smooth="yes"/>
      <point x="571" y="444"/>
      <point x="183" y="383"/>
      <point x="183" y="596" type="curve" smooth="yes"/>
      <point x="183" y="674"/>
      <point x="241" y="720"/>
      <point x="311" y="720" type="curve" smooth="yes"/>
      <point x="383" y="720"/>
      <point x="425" y="683"/>
    </contour>
  </outline>
</glyph>
<glyph name="T" format="1">
  <advance width="714"/>
  <unicode hex="0054"/>
  <outline>
    <contour>
      <point x="485" y="705" type="line"/>
      <point x="565" y="705"/>
      <point x="571" y="698"/>
      <point x="592" y="663" type="curve" smooth="yes"/>
      <point x="616" y="623"/>
      <point x="651" y="550"/>
      <point x="662" y="534" type="curve" smooth="yes"/>
      <point x="663" y="532"/>
      <point x="669" y="533"/>
      <point x="669" y="536" type="curve" smooth="yes"/>
      <point x="669" y="720" type="line"/>
      <point x="46" y="720" type="line"/>
      <point x="35" y="531" type="line" smooth="yes"/>
      <point x="35" y="527"/>
      <point x="42" y="526"/>
      <point x="44" y="530" type="curve" smooth="yes"/>
      <point x="53" y="547"/>
      <point x="88" y="618"/>
      <point x="117" y="664" type="curve" smooth="yes"/>
      <point x="138" y="697"/>
      <point x="155" y="705"/>
      <point x="197" y="705" type="curve" smooth="yes"/>
      <point x="299" y="705" type="line"/>
      <point x="299" y="25" type="line" smooth="yes"/>
      <point x="299" y="16"/>
      <point x="298" y="15"/>
      <point x="291" y="15" type="curve" smooth="yes"/>
      <point x="183" y="15" type="line" smooth="yes"/>
      <point x="178" y="15"/>
      <point x="178" y="0"/>
      <point x="183" y="0" type="curve" smooth="yes"/>
      <point x="530" y="0" type="line" smooth="yes"/>
      <point x="535" y="0"/>
      <point x="535" y="15"/>
      <point x="530" y="15" type="curve" smooth="yes"/>
      <point x="421" y="15" type="line" smooth="yes"/>
      <point x="415" y="15"/>
      <point x="414" y="16"/>
      <point x="414" y="25" type="curve" smooth="yes"/>
      <point x="414" y="705" type="line"/>
    </contour>
  </outline>
</glyph>
<glyph name="U" format="1">
  <advance width="749"/>
  <unicode hex="0055"/>
  <outline>
    <contour>
      <point x="644" y="697" type="line"/>
      <point x="644" y="704"/>
      <point x="645" y="705"/>
      <point x="651" y="705" type="curve" smooth="yes"/>
      <point x="735" y="705" type="line" smooth="yes"/>
      <point x="740" y="705"/>
      <point x="740" y="720"/>
      <point x="735" y="720" type="curve" smooth="yes"/>
      <point x="533" y="720" type="line" smooth="yes"/>
      <point x="528" y="720"/>
      <point x="528" y="705"/>
      <point x="533" y="705" type="curve" smooth="yes"/>
      <point x="617" y="705" type="line" smooth="yes"/>
      <point x="623" y="705"/>
      <point x="624" y="704"/>
      <point x="624" y="697" type="curve" smooth="yes"/>
      <point x="624" y="263" type="line" smooth="yes"/>
      <point x="624" y="119"/>
      <point x="566" y="5"/>
      <point x="406" y="5" type="curve" smooth="yes"/>
      <point x="251" y="5"/>
      <point x="226" y="120"/>
      <point x="225" y="249" type="curve" smooth="yes"/>
      <point x="224" y="437"/>
      <point x="225" y="698"/>
      <point x="225" y="698" type="curve" smooth="yes"/>
      <point x="225" y="704"/>
      <point x="226" y="705"/>
      <point x="231" y="705" type="curve" smooth="yes"/>
      <point x="305" y="705" type="line" smooth="yes"/>
      <point x="310" y="705"/>
      <point x="310" y="720"/>
      <point x="305" y="720" type="curve" smooth="yes"/>
      <point x="19" y="720" type="line" smooth="yes"/>
      <point x="14" y="720"/>
      <point x="14" y="705"/>
      <point x="19" y="705" type="curve" smooth="yes"/>
      <point x="104" y="705" type="line" smooth="yes"/>
      <point x="109" y="705"/>
      <point x="110" y="704"/>
      <point x="110" y="697" type="curve" smooth="yes"/>
      <point x="110" y="697"/>
      <point x="107" y="473"/>
      <point x="110" y="277" type="curve" smooth="yes"/>
      <point x="113" y="83"/>
      <point x="223" y="-15"/>
      <point x="399" y="-15" type="curve" smooth="yes"/>
      <point x="570" y="-15"/>
      <point x="644" y="102"/>
      <point x="644" y="261" type="curve" smooth="yes"/>
    </contour>
  </outline>
</glyph>
<glyph name="V" format="1">
  <advance width="711"/>
  <unicode hex="0056"/>
  <outline>
    <contour>
      <point x="372" y="-11" type="line"/>
      <point x="627" y="696" type="line" smooth="yes"/>
      <point x="630" y="704"/>
      <point x="631" y="705"/>
      <point x="639" y="705" type="curve" smooth="yes"/>
      <point x="712" y="705" type="line" smooth="yes"/>
      <point x="717" y="705"/>
      <point x="717" y="720"/>
      <point x="712" y="720" type="curve" smooth="yes"/>
      <point x="528" y="720" type="line" smooth="yes"/>
      <point x="523" y="720"/>
      <point x="523" y="705"/>
      <point x="528" y="705" type="curve" smooth="yes"/>
      <point x="602" y="705" type="line" smooth="yes"/>
      <point x="608" y="705"/>
      <point x="610" y="704"/>
      <point x="607" y="696" type="curve" smooth="yes"/>
      <point x="409" y="150" type="line"/>
      <point x="210" y="696" type="line" smooth="yes"/>
      <point x="207" y="703"/>
      <point x="209" y="705"/>
      <point x="217" y="705" type="curve" smooth="yes"/>
      <point x="292" y="705" type="line" smooth="yes"/>
      <point x="297" y="705"/>
      <point x="297" y="720"/>
      <point x="292" y="720" type="curve" smooth="yes"/>
      <point x="-1" y="720" type="line" smooth="yes"/>
      <point x="-6" y="720"/>
      <point x="-6" y="705"/>
      <point x="-1" y="705" type="curve" smooth="yes"/>
      <point x="72" y="705" type="line" smooth="yes"/>
      <point x="79" y="705"/>
      <point x="81" y="703"/>
      <point x="83" y="697" type="curve" smooth="yes"/>
      <point x="357" y="-11" type="line"/>
    </contour>
  </outline>
</glyph>
<glyph name="W" format="1">
  <advance width="1127"/>
  <unicode hex="0057"/>
  <outline>
    <contour>
      <point x="351" y="-11" type="line"/>
      <point x="570" y="667" type="line"/>
      <point x="794" y="-11" type="line"/>
      <point x="809" y="-11" type="line"/>
      <point x="1043" y="696" type="line" smooth="yes"/>
      <point x="1046" y="704"/>
      <point x="1047" y="705"/>
      <point x="1055" y="705" type="curve" smooth="yes"/>
      <point x="1128" y="705" type="line" smooth="yes"/>
      <point x="1133" y="705"/>
      <point x="1133" y="720"/>
      <point x="1128" y="720" type="curve" smooth="yes"/>
      <point x="944" y="720" type="line" smooth="yes"/>
      <point x="939" y="720"/>
      <point x="939" y="705"/>
      <point x="944" y="705" type="curve" smooth="yes"/>
      <point x="1018" y="705" type="line" smooth="yes"/>
      <point x="1024" y="705"/>
      <point x="1026" y="704"/>
      <point x="1023" y="696" type="curve" smooth="yes"/>
      <point x="843" y="155" type="line"/>
      <point x="672" y="696" type="line" smooth="yes"/>
      <point x="670" y="703"/>
      <point x="671" y="705"/>
      <point x="679" y="705" type="curve" smooth="yes"/>
      <point x="754" y="705" type="line" smooth="yes"/>
      <point x="759" y="705"/>
      <point x="759" y="720"/>
      <point x="754" y="720" type="curve" smooth="yes"/>
      <point x="472" y="720" type="line" smooth="yes"/>
      <point x="467" y="720"/>
      <point x="467" y="705"/>
      <point x="472" y="705" type="curve" smooth="yes"/>
      <point x="484" y="705" type="line"/>
      <point x="485" y="705" type="line"/>
      <point x="542" y="705" type="line" smooth="yes"/>
      <point x="553" y="705"/>
      <point x="558" y="703"/>
      <point x="558" y="696" type="curve" smooth="yes"/>
      <point x="558" y="693"/>
      <point x="557" y="689"/>
      <point x="555" y="684" type="curve" smooth="yes"/>
      <point x="385" y="155" type="line"/>
      <point x="210" y="696" type="line"/>
      <point x="207" y="703"/>
      <point x="209" y="705"/>
      <point x="217" y="705" type="curve" smooth="yes"/>
      <point x="291" y="705" type="line" smooth="yes"/>
      <point x="296" y="705"/>
      <point x="296" y="720"/>
      <point x="291" y="720" type="curve" smooth="yes"/>
      <point x="-1" y="720" type="line" smooth="yes"/>
      <point x="-6" y="720"/>
      <point x="-6" y="705"/>
      <point x="-1" y="705" type="curve" smooth="yes"/>
      <point x="72" y="705" type="line" smooth="yes"/>
      <point x="79" y="705"/>
      <point x="81" y="703"/>
      <point x="83" y="697" type="curve" smooth="yes"/>
      <point x="336" y="-11" type="line"/>
    </contour>
  </outline>
</glyph>
<glyph name="X" format="1">
  <advance width="750"/>
  <unicode hex="0058"/>
  <outline>
    <contour>
      <point x="522" y="23" type="line"/>
      <point x="527" y="16"/>
      <point x="525" y="15"/>
      <point x="517" y="15" type="curve" smooth="yes"/>
      <point x="440" y="15" type="line" smooth="yes"/>
      <point x="435" y="15"/>
      <point x="435" y="0"/>
      <point x="440" y="0" type="curve" smooth="yes"/>
      <point x="741" y="0" type="line" smooth="yes"/>
      <point x="746" y="0"/>
      <point x="746" y="15"/>
      <point x="741" y="15" type="curve" smooth="yes"/>
      <point x="662" y="15" type="line" smooth="yes"/>
      <point x="656" y="15"/>
      <point x="652" y="17"/>
      <point x="648" y="24" type="curve" smooth="yes"/>
      <point x="242" y="695" type="line" smooth="yes"/>
      <point x="237" y="702"/>
      <point x="239" y="705"/>
      <point x="248" y="705" type="curve" smooth="yes"/>
      <point x="318" y="705" type="line" smooth="yes"/>
      <point x="323" y="705"/>
      <point x="323" y="720"/>
      <point x="318" y="720" type="curve" smooth="yes"/>
      <point x="31" y="720" type="line" smooth="yes"/>
      <point x="26" y="720"/>
      <point x="26" y="705"/>
      <point x="31" y="705" type="curve" smooth="yes"/>
      <point x="97" y="705" type="line" smooth="yes"/>
      <point x="105" y="705"/>
      <point x="107" y="703"/>
      <point x="111" y="697" type="curve" smooth="yes"/>
    </contour>
    <contour>
      <point x="411" y="393" type="line"/>
      <point x="611" y="698" type="line" smooth="yes"/>
      <point x="615" y="704"/>
      <point x="618" y="705"/>
      <point x="625" y="705" type="curve" smooth="yes"/>
      <point x="702" y="705" type="line" smooth="yes"/>
      <point x="707" y="705"/>
      <point x="707" y="720"/>
      <point x="702" y="720" type="curve" smooth="yes"/>
      <point x="503" y="720" type="line" smooth="yes"/>
      <point x="498" y="720"/>
      <point x="498" y="705"/>
      <point x="503" y="705" type="curve" smooth="yes"/>
      <point x="580" y="705" type="line" smooth="yes"/>
      <point x="589" y="705"/>
      <point x="592" y="702"/>
      <point x="587" y="695" type="curve" smooth="yes"/>
      <point x="401" y="412" type="line"/>
    </contour>
    <contour>
      <point x="330" y="366" type="line"/>
      <point x="111" y="24" type="line" smooth="yes"/>
      <point x="105" y="16"/>
      <point x="102" y="15"/>
      <point x="91" y="15" type="curve" smooth="yes"/>
      <point x="29" y="15" type="line" smooth="yes"/>
      <point x="24" y="15"/>
      <point x="24" y="0"/>
      <point x="29" y="0" type="curve" smooth="yes"/>
      <point x="213" y="0" type="line" smooth="yes"/>
      <point x="218" y="0"/>
      <point x="218" y="15"/>
      <point x="213" y="15" type="curve" smooth="yes"/>
      <point x="138" y="15" type="line" smooth="yes"/>
      <point x="133" y="15"/>
      <point x="130" y="18"/>
      <point x="135" y="25" type="curve" smooth="yes"/>
      <point x="340" y="346" type="line"/>
    </contour>
  </outline>
</glyph>
<glyph name="Y" format="1">
  <advance width="691"/>
  <unicode hex="0059"/>
  <outline>
    <contour>
      <point x="298" y="21" type="line"/>
      <point x="298" y="16"/>
      <point x="297" y="15"/>
      <point x="292" y="15" type="curve" smooth="yes"/>
      <point x="197" y="15" type="line" smooth="yes"/>
      <point x="192" y="15"/>
      <point x="192" y="0"/>
      <point x="197" y="0" type="curve" smooth="yes"/>
      <point x="521" y="0" type="line" smooth="yes"/>
      <point x="526" y="0"/>
      <point x="526" y="15"/>
      <point x="521" y="15" type="curve" smooth="yes"/>
      <point x="424" y="15" type="line" smooth="yes"/>
      <point x="419" y="15"/>
      <point x="418" y="16"/>
      <point x="418" y="23" type="curve" smooth="yes"/>
      <point x="418" y="344" type="line"/>
      <point x="614" y="699" type="line" smooth="yes"/>
      <point x="617" y="704"/>
      <point x="619" y="705"/>
      <point x="624" y="705" type="curve" smooth="yes"/>
      <point x="697" y="705" type="line" smooth="yes"/>
      <point x="702" y="705"/>
      <point x="702" y="720"/>
      <point x="697" y="720" type="curve" smooth="yes"/>
      <point x="509" y="720" type="line" smooth="yes"/>
      <point x="504" y="720"/>
      <point x="504" y="705"/>
      <point x="509" y="705" type="curve" smooth="yes"/>
      <point x="586" y="705" type="line" smooth="yes"/>
      <point x="592" y="705"/>
      <point x="594" y="704"/>
      <point x="591" y="698" type="curve" smooth="yes"/>
      <point x="408" y="364" type="line"/>
      <point x="216" y="698" type="line" smooth="yes"/>
      <point x="214" y="702"/>
      <point x="213" y="705"/>
      <point x="221" y="705" type="curve" smooth="yes"/>
      <point x="298" y="705" type="line" smooth="yes"/>
      <point x="303" y="705"/>
      <point x="303" y="720"/>
      <point x="298" y="720" type="curve" smooth="yes"/>
      <point x="-6" y="720" type="line" smooth="yes"/>
      <point x="-11" y="720"/>
      <point x="-11" y="705"/>
      <point x="-6" y="705" type="curve" smooth="yes"/>
      <point x="70" y="705" type="line" smooth="yes"/>
      <point x="75" y="705"/>
      <point x="78" y="704"/>
      <point x="81" y="699" type="curve" smooth="yes"/>
      <point x="298" y="330" type="line"/>
    </contour>
  </outline>
</glyph>
<glyph name="Z" format="1">
  <advance width="676"/>
  <unicode hex="005A"/>
  <outline>
    <contour>
      <point x="193" y="15" type="line"/>
      <point x="614" y="711" type="line"/>
      <point x="606" y="720" type="line"/>
      <point x="87" y="720" type="line"/>
      <point x="66" y="536" type="line" smooth="yes"/>
      <point x="66" y="533"/>
      <point x="75" y="531"/>
      <point x="77" y="534" type="curve" smooth="yes"/>
      <point x="86" y="546"/>
      <point x="119" y="603"/>
      <point x="154" y="655" type="curve" smooth="yes"/>
      <point x="177" y="690"/>
      <point x="193" y="705"/>
      <point x="250" y="705" type="curve" smooth="yes"/>
      <point x="478" y="705" type="line"/>
      <point x="60" y="10" type="line"/>
      <point x="65" y="0" type="line"/>
      <point x="621" y="0" type="line"/>
      <point x="621" y="223" type="line" smooth="yes"/>
      <point x="621" y="224"/>
      <point x="616" y="226"/>
      <point x="615" y="224" type="curve" smooth="yes"/>
      <point x="609" y="214"/>
      <point x="581" y="136"/>
      <point x="554" y="77" type="curve" smooth="yes"/>
      <point x="532" y="29"/>
      <point x="519" y="15"/>
      <point x="457" y="15" type="curve" smooth="yes"/>
    </contour>
  </outline>
</glyph>
<glyph name="bracketleft" format="1">
  <advance width="272"/>
  <unicode hex="005B"/>
  <outline>
    <contour>
      <point x="265" y="-135" type="line"/>
      <point x="270" y="-135"/>
      <point x="270" y="-120"/>
      <point x="265" y="-120" type="curve" smooth="yes"/>
      <point x="105" y="-120" type="line"/>
      <point x="105" y="705" type="line"/>
      <point x="265" y="705" type="line" smooth="yes"/>
      <point x="269" y="705"/>
      <point x="269" y="720"/>
      <point x="265" y="720" type="curve" smooth="yes"/>
      <point x="85" y="720" type="line"/>
      <point x="85" y="-135" type="line"/>
    </contour>
  </outline>
</glyph>
<glyph name="backslash" format="1">
  <advance width="416"/>
  <unicode hex="005C"/>
  <outline>
    <contour>
      <point x="384" y="-127" type="line"/>
      <point x="387" y="-133"/>
      <point x="349" y="-134"/>
      <point x="347" y="-128" type="curve" smooth="yes"/>
      <point x="31" y="720" type="line" smooth="yes"/>
      <point x="29" y="726"/>
      <point x="65" y="728"/>
      <point x="68" y="720" type="curve" smooth="yes"/>
    </contour>
  </outline>
</glyph>
<glyph name="asciicircum" format="1">
  <advance width="421"/>
  <unicode hex="005E"/>
  <outline>
    <contour>
      <point x="73" y="588" type="line"/>
      <point x="67" y="579"/>
      <point x="75" y="573"/>
      <point x="83" y="580" type="curve" smooth="yes"/>
      <point x="211" y="690" type="line"/>
      <point x="339" y="580" type="line" smooth="yes"/>
      <point x="346" y="573"/>
      <point x="357" y="581"/>
      <point x="350" y="589" type="curve" smooth="yes"/>
      <point x="232" y="766" type="line"/>
      <point x="224" y="773"/>
      <point x="203" y="775"/>
      <point x="195" y="766" type="curve"/>
    </contour>
  </outline>
</glyph>
<glyph name="grave" format="1">
  <advance width="400"/>
  <unicode hex="0060"/>
  <outline>
    <contour>
      <point x="289" y="519" type="curve"/>
      <point x="290" y="518"/>
      <point x="300" y="521"/>
      <point x="300" y="523" type="curve"/>
      <point x="300" y="526"/>
      <point x="266" y="629"/>
      <point x="233" y="720" type="curve" smooth="yes"/>
      <point x="232" y="723"/>
      <point x="96" y="723"/>
      <point x="99" y="720" type="curve" smooth="yes"/>
      <point x="195" y="615"/>
      <point x="289" y="519"/>
    </contour>
  </outline>
</glyph>
<glyph name="a" format="1">
  <advance width="503"/>
  <unicode hex="0061"/>
  <outline>
    <contour>
      <point x="489" y="35" type="curve" smooth="yes"/>
      <point x="481" y="29"/>
      <point x="469" y="17"/>
      <point x="448" y="17" type="curve" smooth="yes"/>
      <point x="421" y="17"/>
      <point x="412" y="37"/>
      <point x="412" y="60" type="curve" smooth="yes"/>
      <point x="412" y="279" type="line" smooth="yes"/>
      <point x="412" y="410"/>
      <point x="326" y="465"/>
      <point x="220" y="465" type="curve" smooth="yes"/>
      <point x="131" y="465"/>
      <point x="84" y="403"/>
      <point x="84" y="355" type="curve" smooth="yes"/>
      <point x="84" y="278"/>
      <point x="183" y="281"/>
      <point x="185" y="351" type="curve" smooth="yes"/>
      <point x="185" y="366"/>
      <point x="114" y="397"/>
      <point x="114" y="397" type="curve"/>
      <point x="114" y="397"/>
      <point x="133" y="450"/>
      <point x="220" y="450" type="curve" smooth="yes"/>
      <point x="289" y="450"/>
      <point x="307" y="398"/>
      <point x="307" y="308" type="curve" smooth="yes"/>
      <point x="307" y="257" type="line"/>
      <point x="307" y="257"/>
      <point x="230" y="240"/>
      <point x="174" y="222" type="curve" smooth="yes"/>
      <point x="118" y="204"/>
      <point x="55" y="170"/>
      <point x="55" y="98" type="curve" smooth="yes"/>
      <point x="55" y="24"/>
      <point x="121" y="-15"/>
      <point x="185" y="-15" type="curve" smooth="yes"/>
      <point x="293" y="-15"/>
      <point x="310" y="67"/>
      <point x="310" y="67" type="curve"/>
      <point x="320" y="12"/>
      <point x="372" y="-10"/>
      <point x="413" y="-10" type="curve" smooth="yes"/>
      <point x="448" y="-10"/>
      <point x="476" y="5"/>
      <point x="497" y="24" type="curve" smooth="yes"/>
      <point x="499" y="26"/>
      <point x="492" y="37"/>
    </contour>
    <contour>
      <point x="307" y="244" type="curve"/>
      <point x="307" y="230"/>
      <point x="307" y="163"/>
      <point x="306" y="120" type="curve" smooth="yes"/>
      <point x="305" y="67"/>
      <point x="283" y="15"/>
      <point x="230" y="15" type="curve" smooth="yes"/>
      <point x="183" y="15"/>
      <point x="165" y="56"/>
      <point x="165" y="116" type="curve" smooth="yes"/>
      <point x="165" y="174"/>
      <point x="187" y="205"/>
      <point x="228" y="220" type="curve" smooth="yes"/>
      <point x="269" y="235"/>
      <point x="307" y="244"/>
    </contour>
  </outline>
</glyph>
<glyph name="b" format="1">
  <advance width="578"/>
  <unicode hex="0062"/>
  <outline>
    <contour>
      <point x="203" y="347" type="line"/>
      <point x="203" y="365"/>
      <point x="227" y="445"/>
      <point x="310" y="445" type="curve" smooth="yes"/>
      <point x="415" y="445"/>
      <point x="418" y="306"/>
      <point x="418" y="232" type="curve" smooth="yes"/>
      <point x="418" y="47"/>
      <point x="376" y="5"/>
      <point x="308" y="5" type="curve" smooth="yes"/>
      <point x="232" y="5"/>
      <point x="203" y="59"/>
      <point x="203" y="87" type="curve" smooth="yes"/>
    </contour>
    <contour>
      <point x="203" y="724" type="line"/>
      <point x="203" y="729"/>
      <point x="200" y="729"/>
      <point x="194" y="728" type="curve" smooth="yes"/>
      <point x="164" y="722"/>
      <point x="138" y="720"/>
      <point x="98" y="720" type="curve" smooth="yes"/>
      <point x="19" y="720" type="line" smooth="yes"/>
      <point x="14" y="720"/>
      <point x="14" y="705"/>
      <point x="19" y="705" type="curve" smooth="yes"/>
      <point x="91" y="705" type="line" smooth="yes"/>
      <point x="97" y="705"/>
      <point x="98" y="704"/>
      <point x="98" y="699" type="curve" smooth="yes"/>
      <point x="98" y="-11" type="line"/>
      <point x="133" y="-10"/>
      <point x="179" y="15"/>
      <point x="198" y="55" type="curve"/>
      <point x="198" y="55"/>
      <point x="221" y="-15"/>
      <point x="321" y="-15" type="curve" smooth="yes"/>
      <point x="436" y="-15"/>
      <point x="533" y="89"/>
      <point x="533" y="232" type="curve" smooth="yes"/>
      <point x="533" y="366"/>
      <point x="448" y="465"/>
      <point x="328" y="465" type="curve" smooth="yes"/>
      <point x="228" y="465"/>
      <point x="203" y="387"/>
      <point x="203" y="387" type="curve"/>
    </contour>
  </outline>
</glyph>
<glyph name="c" format="1">
  <advance width="485"/>
  <unicode hex="0063"/>
  <outline>
    <contour>
      <point x="160" y="231" type="curve" smooth="yes"/>
      <point x="160" y="380"/>
      <point x="203" y="450"/>
      <point x="291" y="450" type="curve" smooth="yes"/>
      <point x="346" y="450"/>
      <point x="391" y="426"/>
      <point x="405" y="391" type="curve"/>
      <point x="405" y="391"/>
      <point x="332" y="356"/>
      <point x="332" y="341" type="curve" smooth="yes"/>
      <point x="332" y="305"/>
      <point x="357" y="285"/>
      <point x="384" y="285" type="curve" smooth="yes"/>
      <point x="417" y="285"/>
      <point x="438" y="313"/>
      <point x="438" y="342" type="curve" smooth="yes"/>
      <point x="438" y="423"/>
      <point x="363" y="465"/>
      <point x="292" y="465" type="curve" smooth="yes"/>
      <point x="144" y="465"/>
      <point x="45" y="357"/>
      <point x="45" y="223" type="curve" smooth="yes"/>
      <point x="45" y="104"/>
      <point x="113" y="-15"/>
      <point x="276" y="-15" type="curve" smooth="yes"/>
      <point x="386" y="-15"/>
      <point x="443" y="76"/>
      <point x="455" y="133" type="curve" smooth="yes"/>
      <point x="456" y="138"/>
      <point x="442" y="141"/>
      <point x="441" y="137" type="curve" smooth="yes"/>
      <point x="422" y="76"/>
      <point x="376" y="5"/>
      <point x="288" y="5" type="curve" smooth="yes"/>
      <point x="158" y="5"/>
      <point x="160" y="139"/>
    </contour>
  </outline>
</glyph>
<glyph name="d" format="1">
  <advance width="584"/>
  <unicode hex="0064"/>
  <outline>
    <contour>
      <point x="480" y="724" type="line"/>
      <point x="480" y="729"/>
      <point x="477" y="729"/>
      <point x="471" y="728" type="curve" smooth="yes"/>
      <point x="441" y="722"/>
      <point x="415" y="720"/>
      <point x="375" y="720" type="curve" smooth="yes"/>
      <point x="296" y="720" type="line" smooth="yes"/>
      <point x="291" y="720"/>
      <point x="291" y="705"/>
      <point x="296" y="705" type="curve" smooth="yes"/>
      <point x="368" y="705" type="line" smooth="yes"/>
      <point x="374" y="705"/>
      <point x="375" y="704"/>
      <point x="375" y="699" type="curve" smooth="yes"/>
      <point x="375" y="401" type="line"/>
      <point x="375" y="401"/>
      <point x="350" y="465"/>
      <point x="257" y="465" type="curve" smooth="yes"/>
      <point x="156" y="465"/>
      <point x="45" y="374"/>
      <point x="45" y="216" type="curve" smooth="yes"/>
      <point x="45" y="79"/>
      <point x="129" y="-15"/>
      <point x="246" y="-15" type="curve" smooth="yes"/>
      <point x="354" y="-15"/>
      <point x="378" y="71"/>
      <point x="378" y="71" type="curve"/>
      <point x="381" y="-4" type="line" smooth="yes"/>
      <point x="381" y="-9"/>
      <point x="384" y="-9"/>
      <point x="390" y="-8" type="curve" smooth="yes"/>
      <point x="420" y="-2"/>
      <point x="446" y="0"/>
      <point x="486" y="0" type="curve" smooth="yes"/>
      <point x="560" y="0" type="line" smooth="yes"/>
      <point x="565" y="0"/>
      <point x="565" y="15"/>
      <point x="560" y="15" type="curve" smooth="yes"/>
      <point x="488" y="15" type="line" smooth="yes"/>
      <point x="482" y="15"/>
      <point x="481" y="16"/>
      <point x="481" y="21" type="curve" smooth="yes"/>
    </contour>
    <contour>
      <point x="375" y="103" type="line"/>
      <point x="375" y="85"/>
      <point x="351" y="5"/>
      <point x="268" y="5" type="curve" smooth="yes"/>
      <point x="163" y="5"/>
      <point x="160" y="144"/>
      <point x="160" y="218" type="curve" smooth="yes"/>
      <point x="160" y="315"/>
      <point x="165" y="445"/>
      <point x="275" y="445" type="curve" smooth="yes"/>
      <point x="343" y="445"/>
      <point x="375" y="390"/>
      <point x="375" y="363" type="curve" smooth="yes"/>
    </contour>
  </outline>
</glyph>
<glyph name="e" format="1">
  <advance width="495"/>
  <unicode hex="0065"/>
  <outline>
    <contour>
      <point x="281" y="5" type="curve" smooth="yes"/>
      <point x="201" y="5"/>
      <point x="160" y="55"/>
      <point x="160" y="234" type="curve" smooth="yes"/>
      <point x="160" y="408"/>
      <point x="193" y="450"/>
      <point x="261" y="450" type="curve" smooth="yes"/>
      <point x="320" y="450"/>
      <point x="343" y="394"/>
      <point x="343" y="306" type="curve" smooth="yes"/>
      <point x="343" y="281"/>
      <point x="340" y="262"/>
      <point x="340" y="262" type="curve"/>
      <point x="140" y="262" type="line"/>
      <point x="137" y="247" type="line"/>
      <point x="413" y="247" type="line" smooth="yes"/>
      <point x="433" y="247"/>
      <point x="452" y="262"/>
      <point x="452" y="262" type="curve"/>
      <point x="453" y="273"/>
      <point x="454" y="276"/>
      <point x="454" y="286" type="curve" smooth="yes"/>
      <point x="454" y="404"/>
      <point x="369" y="465"/>
      <point x="261" y="465" type="curve" smooth="yes"/>
      <point x="158" y="465"/>
      <point x="45" y="366"/>
      <point x="45" y="222" type="curve" smooth="yes"/>
      <point x="45" y="77"/>
      <point x="151" y="-15"/>
      <point x="271" y="-15" type="curve" smooth="yes"/>
      <point x="386" y="-15"/>
      <point x="442" y="71"/>
      <point x="459" y="133" type="curve" smooth="yes"/>
      <point x="460" y="138"/>
      <point x="446" y="141"/>
      <point x="445" y="137" type="curve" smooth="yes"/>
      <point x="426" y="74"/>
      <point x="377" y="5"/>
    </contour>
  </outline>
</glyph>
<glyph name="f" format="1">
  <advance width="338"/>
  <unicode hex="0066"/>
  <outline>
    <contour>
      <point x="115" y="450" type="line"/>
      <point x="49" y="450" type="line" smooth="yes"/>
      <point x="44" y="450"/>
      <point x="44" y="435"/>
      <point x="49" y="435" type="curve" smooth="yes"/>
      <point x="115" y="435" type="line"/>
      <point x="115" y="25" type="line" smooth="yes"/>
      <point x="115" y="16"/>
      <point x="114" y="15"/>
      <point x="105" y="15" type="curve" smooth="yes"/>
      <point x="34" y="15" type="line" smooth="yes"/>
      <point x="29" y="15"/>
      <point x="29" y="0"/>
      <point x="34" y="0" type="curve" smooth="yes"/>
      <point x="309" y="0" type="line" smooth="yes"/>
      <point x="314" y="0"/>
      <point x="314" y="15"/>
      <point x="309" y="15" type="curve" smooth="yes"/>
      <point x="231" y="15" type="line" smooth="yes"/>
      <point x="221" y="15"/>
      <point x="220" y="16"/>
      <point x="220" y="25" type="curve" smooth="yes"/>
      <point x="220" y="435" type="line"/>
      <point x="314" y="435" type="line" smooth="yes"/>
      <point x="319" y="435"/>
      <point x="319" y="450"/>
      <point x="314" y="450" type="curve" smooth="yes"/>
      <point x="220" y="450" type="line"/>
      <point x="220" y="470" type="line" smooth="yes"/>
      <point x="220" y="519"/>
      <point x="220" y="559"/>
      <point x="220" y="598" type="curve" smooth="yes"/>
      <point x="220" y="686"/>
      <point x="254" y="720"/>
      <point x="303" y="720" type="curve" smooth="yes"/>
      <point x="362" y="720"/>
      <point x="373" y="680"/>
      <point x="373" y="680" type="curve"/>
      <point x="373" y="680"/>
      <point x="300" y="638"/>
      <point x="301" y="628" type="curve" smooth="yes"/>
      <point x="303" y="597"/>
      <point x="326" y="582"/>
      <point x="349" y="582" type="curve" smooth="yes"/>
      <point x="376" y="582"/>
      <point x="403" y="601"/>
      <point x="403" y="639" type="curve" smooth="yes"/>
      <point x="403" y="704"/>
      <point x="353" y="735"/>
      <point x="299" y="735" type="curve" smooth="yes"/>
      <point x="194" y="735"/>
      <point x="115" y="640"/>
      <point x="115" y="502" type="curve" smooth="yes"/>
    </contour>
  </outline>
</glyph>
<glyph name="g" format="1">
  <advance width="563"/>
  <unicode hex="0067"/>
  <outline>
    <contour>
      <point x="287" y="465" type="curve" smooth="yes"/>
      <point x="188" y="465"/>
      <point x="103" y="399"/>
      <point x="103" y="314" type="curve" smooth="yes"/>
      <point x="103" y="221"/>
      <point x="185" y="163"/>
      <point x="286" y="163" type="curve" smooth="yes"/>
      <point x="388" y="163"/>
      <point x="475" y="233"/>
      <point x="475" y="313" type="curve" smooth="yes"/>
      <point x="475" y="412"/>
      <point x="376" y="465"/>
    </contour>
    <contour>
      <point x="335" y="-22" type="curve" smooth="yes"/>
      <point x="411" y="-22"/>
      <point x="459" y="-52"/>
      <point x="459" y="-127" type="curve" smooth="yes"/>
      <point x="459" y="-211"/>
      <point x="394" y="-270"/>
      <point x="291" y="-270" type="curve" smooth="yes"/>
      <point x="197" y="-270"/>
      <point x="157" y="-221"/>
      <point x="157" y="-146" type="curve" smooth="yes"/>
      <point x="157" y="-41"/>
      <point x="259" y="-22"/>
    </contour>
    <contour>
      <point x="213" y="313" type="curve" smooth="yes"/>
      <point x="213" y="411"/>
      <point x="229" y="450"/>
      <point x="286" y="450" type="curve" smooth="yes"/>
      <point x="342" y="450"/>
      <point x="365" y="406"/>
      <point x="365" y="313" type="curve" smooth="yes"/>
      <point x="365" y="213"/>
      <point x="342" y="178"/>
      <point x="286" y="178" type="curve" smooth="yes"/>
      <point x="230" y="178"/>
      <point x="213" y="214"/>
    </contour>
    <contour>
      <point x="189" y="187" type="line"/>
      <point x="135" y="178"/>
      <point x="60" y="145"/>
      <point x="60" y="72" type="curve" smooth="yes"/>
      <point x="60" y="-18"/>
      <point x="170" y="-32"/>
      <point x="239" y="-22" type="curve"/>
      <point x="240" y="-24" type="line"/>
      <point x="170" y="-40"/>
      <point x="82" y="-73"/>
      <point x="82" y="-154" type="curve" smooth="yes"/>
      <point x="82" y="-235"/>
      <point x="164" y="-285"/>
      <point x="291" y="-285" type="curve" smooth="yes"/>
      <point x="426" y="-285"/>
      <point x="517" y="-178"/>
      <point x="517" y="-81" type="curve" smooth="yes"/>
      <point x="517" y="18"/>
      <point x="447" y="74"/>
      <point x="355" y="74" type="curve" smooth="yes"/>
      <point x="295" y="74"/>
      <point x="212" y="61"/>
      <point x="156" y="61" type="curve" smooth="yes"/>
      <point x="120" y="61"/>
      <point x="99" y="76"/>
      <point x="99" y="105" type="curve" smooth="yes"/>
      <point x="99" y="155"/>
      <point x="165" y="174"/>
      <point x="208" y="181" type="curve"/>
    </contour>
    <contour>
      <point x="458" y="379" type="line"/>
      <point x="438" y="419"/>
      <point x="441" y="464"/>
      <point x="462" y="473" type="curve"/>
      <point x="468" y="464"/>
      <point x="506" y="417"/>
      <point x="512" y="417" type="curve" smooth="yes"/>
      <point x="542" y="419"/>
      <point x="558" y="443"/>
      <point x="558" y="467" type="curve" smooth="yes"/>
      <point x="558" y="491"/>
      <point x="542" y="515"/>
      <point x="507" y="515" type="curve" smooth="yes"/>
      <point x="430" y="515"/>
      <point x="421" y="436"/>
      <point x="444" y="390" type="curve"/>
    </contour>
  </outline>
</glyph>
<glyph name="h" format="1">
  <advance width="622"/>
  <unicode hex="0068"/>
  <outline>
    <contour>
      <point x="224" y="724" type="line"/>
      <point x="224" y="729"/>
      <point x="221" y="729"/>
      <point x="215" y="728" type="curve" smooth="yes"/>
      <point x="185" y="722"/>
      <point x="159" y="720"/>
      <point x="119" y="720" type="curve" smooth="yes"/>
      <point x="40" y="720" type="line" smooth="yes"/>
      <point x="35" y="720"/>
      <point x="35" y="705"/>
      <point x="40" y="705" type="curve" smooth="yes"/>
      <point x="112" y="705" type="line" smooth="yes"/>
      <point x="118" y="705"/>
      <point x="119" y="704"/>
      <point x="119" y="699" type="curve" smooth="yes"/>
      <point x="119" y="20" type="line" smooth="yes"/>
      <point x="119" y="16"/>
      <point x="118" y="15"/>
      <point x="114" y="15" type="curve" smooth="yes"/>
      <point x="39" y="15" type="line" smooth="yes"/>
      <point x="34" y="15"/>
      <point x="34" y="0"/>
      <point x="39" y="0" type="curve" smooth="yes"/>
      <point x="279" y="0" type="line" smooth="yes"/>
      <point x="284" y="0"/>
      <point x="284" y="15"/>
      <point x="279" y="15" type="curve" smooth="yes"/>
      <point x="230" y="15" type="line" smooth="yes"/>
      <point x="225" y="15"/>
      <point x="224" y="16"/>
      <point x="224" y="20" type="curve" smooth="yes"/>
      <point x="224" y="326" type="line"/>
      <point x="233" y="407"/>
      <point x="285" y="445"/>
      <point x="336" y="445" type="curve" smooth="yes"/>
      <point x="393" y="445"/>
      <point x="423" y="402"/>
      <point x="423" y="316" type="curve" smooth="yes"/>
      <point x="423" y="20" type="line" smooth="yes"/>
      <point x="423" y="16"/>
      <point x="423" y="15"/>
      <point x="417" y="15" type="curve" smooth="yes"/>
      <point x="364" y="15" type="line" smooth="yes"/>
      <point x="359" y="15"/>
      <point x="359" y="0"/>
      <point x="364" y="0" type="curve" smooth="yes"/>
      <point x="608" y="0" type="line" smooth="yes"/>
      <point x="613" y="0"/>
      <point x="613" y="15"/>
      <point x="608" y="15" type="curve" smooth="yes"/>
      <point x="533" y="15" type="line" smooth="yes"/>
      <point x="529" y="15"/>
      <point x="528" y="16"/>
      <point x="528" y="20" type="curve" smooth="yes"/>
      <point x="528" y="286" type="line" smooth="yes"/>
      <point x="528" y="404"/>
      <point x="461" y="465"/>
      <point x="365" y="465" type="curve" smooth="yes"/>
      <point x="296" y="465"/>
      <point x="247" y="434"/>
      <point x="224" y="375" type="curve"/>
    </contour>
  </outline>
</glyph>
<glyph name="i" format="1">
  <advance width="318"/>
  <unicode hex="0069"/>
  <outline>
    <contour>
      <point x="96" y="653" type="curve" smooth="yes"/>
      <point x="96" y="618"/>
      <point x="126" y="588"/>
      <point x="161" y="588" type="curve" smooth="yes"/>
      <point x="198" y="588"/>
      <point x="228" y="618"/>
      <point x="228" y="653" type="curve" smooth="yes"/>
      <point x="228" y="690"/>
      <point x="198" y="720"/>
      <point x="161" y="720" type="curve" smooth="yes"/>
      <point x="126" y="720"/>
      <point x="96" y="690"/>
    </contour>
    <contour>
      <point x="114" y="25" type="line"/>
      <point x="114" y="16"/>
      <point x="114" y="15"/>
      <point x="104" y="15" type="curve" smooth="yes"/>
      <point x="34" y="15" type="line" smooth="yes"/>
      <point x="29" y="15"/>
      <point x="29" y="0"/>
      <point x="34" y="0" type="curve" smooth="yes"/>
      <point x="88" y="0"/>
      <point x="247" y="0"/>
      <point x="299" y="0" type="curve" smooth="yes"/>
      <point x="304" y="0"/>
      <point x="304" y="15"/>
      <point x="299" y="15" type="curve" smooth="yes"/>
      <point x="229" y="15" type="line" smooth="yes"/>
      <point x="220" y="15"/>
      <point x="219" y="16"/>
      <point x="219" y="25" type="curve" smooth="yes"/>
      <point x="219" y="453" type="line" smooth="yes"/>
      <point x="219" y="458"/>
      <point x="215" y="460"/>
      <point x="210" y="458" type="curve" smooth="yes"/>
      <point x="194" y="453"/>
      <point x="152" y="450"/>
      <point x="119" y="450" type="curve" smooth="yes"/>
      <point x="34" y="450" type="line" smooth="yes"/>
      <point x="29" y="450"/>
      <point x="29" y="435"/>
      <point x="34" y="435" type="curve" smooth="yes"/>
      <point x="101" y="435" type="line" smooth="yes"/>
      <point x="113" y="435"/>
      <point x="114" y="434"/>
      <point x="114" y="424" type="curve" smooth="yes"/>
    </contour>
  </outline>
</glyph>
<glyph name="j" format="1">
  <advance width="300"/>
  <unicode hex="006A"/>
  <outline>
    <contour>
      <point x="216" y="453" type="line"/>
      <point x="216" y="458"/>
      <point x="212" y="460"/>
      <point x="207" y="458" type="curve" smooth="yes"/>
      <point x="191" y="453"/>
      <point x="149" y="450"/>
      <point x="116" y="450" type="curve" smooth="yes"/>
      <point x="31" y="450" type="line" smooth="yes"/>
      <point x="26" y="450"/>
      <point x="26" y="435"/>
      <point x="31" y="435" type="curve" smooth="yes"/>
      <point x="98" y="435" type="line" smooth="yes"/>
      <point x="110" y="435"/>
      <point x="111" y="434"/>
      <point x="111" y="424" type="curve" smooth="yes"/>
      <point x="111" y="-16" type="line" smooth="yes"/>
      <point x="111" y="-84"/>
      <point x="127" y="-123"/>
      <point x="127" y="-168" type="curve" smooth="yes"/>
      <point x="127" y="-242"/>
      <point x="97" y="-270"/>
      <point x="45" y="-270" type="curve" smooth="yes"/>
      <point x="-6" y="-270"/>
      <point x="-34" y="-239"/>
      <point x="-40" y="-212" type="curve"/>
      <point x="-40" y="-212"/>
      <point x="41" y="-170"/>
      <point x="41" y="-160" type="curve" smooth="yes"/>
      <point x="41" y="-133"/>
      <point x="21" y="-111"/>
      <point x="-6" y="-111" type="curve" smooth="yes"/>
      <point x="-40" y="-111"/>
      <point x="-65" y="-134"/>
      <point x="-65" y="-170" type="curve" smooth="yes"/>
      <point x="-65" y="-235"/>
      <point x="-23" y="-285"/>
      <point x="48" y="-285" type="curve" smooth="yes"/>
      <point x="174" y="-285"/>
      <point x="216" y="-155"/>
      <point x="216" y="-54" type="curve" smooth="yes"/>
    </contour>
    <contour>
      <point x="93" y="653" type="curve" smooth="yes"/>
      <point x="93" y="618"/>
      <point x="123" y="588"/>
      <point x="158" y="588" type="curve" smooth="yes"/>
      <point x="195" y="588"/>
      <point x="225" y="618"/>
      <point x="225" y="653" type="curve" smooth="yes"/>
      <point x="225" y="690"/>
      <point x="195" y="720"/>
      <point x="158" y="720" type="curve" smooth="yes"/>
      <point x="123" y="720"/>
      <point x="93" y="690"/>
    </contour>
  </outline>
</glyph>
<glyph name="k" format="1">
  <advance width="563"/>
  <unicode hex="006B"/>
  <outline>
    <contour>
      <point x="209" y="257" type="line"/>
      <point x="235" y="257" type="line" smooth="yes"/>
      <point x="244" y="257"/>
      <point x="375" y="22"/>
      <point x="375" y="22" type="curve"/>
      <point x="385" y="0" type="line"/>
      <point x="554" y="0" type="line" smooth="yes"/>
      <point x="559" y="0"/>
      <point x="559" y="15"/>
      <point x="554" y="15" type="curve" smooth="yes"/>
      <point x="514" y="15" type="line" smooth="yes"/>
      <point x="498" y="15"/>
      <point x="497" y="16"/>
      <point x="492" y="23" type="curve" smooth="yes"/>
      <point x="378" y="221" type="line" smooth="yes"/>
      <point x="350" y="264"/>
      <point x="303" y="270"/>
      <point x="303" y="270" type="curve"/>
      <point x="445" y="431" type="line" smooth="yes"/>
      <point x="449" y="435"/>
      <point x="451" y="435"/>
      <point x="453" y="435" type="curve" smooth="yes"/>
      <point x="524" y="435" type="line" smooth="yes"/>
      <point x="529" y="435"/>
      <point x="529" y="450"/>
      <point x="524" y="450" type="curve" smooth="yes"/>
      <point x="359" y="450" type="line" smooth="yes"/>
      <point x="354" y="450"/>
      <point x="354" y="435"/>
      <point x="359" y="435" type="curve" smooth="yes"/>
      <point x="418" y="435" type="line" smooth="yes"/>
      <point x="424" y="435"/>
      <point x="425" y="431"/>
      <point x="421" y="426" type="curve" smooth="yes"/>
      <point x="403" y="404"/>
      <point x="289" y="272"/>
      <point x="275" y="272" type="curve" smooth="yes"/>
      <point x="209" y="272" type="line"/>
    </contour>
    <contour>
      <point x="219" y="724" type="line"/>
      <point x="219" y="729"/>
      <point x="216" y="729"/>
      <point x="210" y="728" type="curve" smooth="yes"/>
      <point x="180" y="722"/>
      <point x="154" y="720"/>
      <point x="114" y="720" type="curve" smooth="yes"/>
      <point x="35" y="720" type="line" smooth="yes"/>
      <point x="30" y="720"/>
      <point x="30" y="705"/>
      <point x="35" y="705" type="curve" smooth="yes"/>
      <point x="107" y="705" type="line" smooth="yes"/>
      <point x="113" y="705"/>
      <point x="114" y="704"/>
      <point x="114" y="699" type="curve" smooth="yes"/>
      <point x="114" y="20" type="line" smooth="yes"/>
      <point x="114" y="16"/>
      <point x="113" y="15"/>
      <point x="109" y="15" type="curve" smooth="yes"/>
      <point x="34" y="15" type="line" smooth="yes"/>
      <point x="29" y="15"/>
      <point x="29" y="0"/>
      <point x="34" y="0" type="curve" smooth="yes"/>
      <point x="274" y="0" type="line" smooth="yes"/>
      <point x="279" y="0"/>
      <point x="279" y="15"/>
      <point x="274" y="15" type="curve" smooth="yes"/>
      <point x="225" y="15" type="line" smooth="yes"/>
      <point x="220" y="15"/>
      <point x="219" y="16"/>
      <point x="219" y="20" type="curve" smooth="yes"/>
    </contour>
  </outline>
</glyph>
<glyph name="l" format="1">
  <advance width="318"/>
  <unicode hex="006C"/>
  <outline>
    <contour>
      <point x="114" y="25" type="line"/>
      <point x="114" y="16"/>
      <point x="114" y="15"/>
      <point x="104" y="15" type="curve" smooth="yes"/>
      <point x="34" y="15" type="line" smooth="yes"/>
      <point x="29" y="15"/>
      <point x="29" y="0"/>
      <point x="34" y="0" type="curve" smooth="yes"/>
      <point x="88" y="0"/>
      <point x="247" y="0"/>
      <point x="299" y="0" type="curve" smooth="yes"/>
      <point x="304" y="0"/>
      <point x="304" y="15"/>
      <point x="299" y="15" type="curve" smooth="yes"/>
      <point x="229" y="15" type="line" smooth="yes"/>
      <point x="220" y="15"/>
      <point x="219" y="16"/>
      <point x="219" y="25" type="curve" smooth="yes"/>
      <point x="219" y="723" type="line" smooth="yes"/>
      <point x="219" y="728"/>
      <point x="215" y="730"/>
      <point x="210" y="728" type="curve" smooth="yes"/>
      <point x="194" y="723"/>
      <point x="157" y="720"/>
      <point x="124" y="720" type="curve" smooth="yes"/>
      <point x="34" y="720" type="line" smooth="yes"/>
      <point x="29" y="720"/>
      <point x="29" y="705"/>
      <point x="34" y="705" type="curve" smooth="yes"/>
      <point x="101" y="705" type="line" smooth="yes"/>
      <point x="113" y="705"/>
      <point x="114" y="704"/>
      <point x="114" y="694" type="curve" smooth="yes"/>
    </contour>
  </outline>
</glyph>
<glyph name="m" format="1">
  <advance width="890"/>
  <unicode hex="006D"/>
  <outline>
    <contour>
      <point x="39" y="450" type="line"/>
      <point x="34" y="450"/>
      <point x="34" y="435"/>
      <point x="39" y="435" type="curve" smooth="yes"/>
      <point x="106" y="435" type="line" smooth="yes"/>
      <point x="118" y="435"/>
      <point x="119" y="434"/>
      <point x="119" y="424" type="curve" smooth="yes"/>
      <point x="119" y="25" type="line" smooth="yes"/>
      <point x="119" y="16"/>
      <point x="118" y="15"/>
      <point x="109" y="15" type="curve" smooth="yes"/>
      <point x="39" y="15" type="line" smooth="yes"/>
      <point x="34" y="15"/>
      <point x="34" y="0"/>
      <point x="39" y="0" type="curve" smooth="yes"/>
      <point x="279" y="0" type="line" smooth="yes"/>
      <point x="284" y="0"/>
      <point x="284" y="15"/>
      <point x="279" y="15" type="curve" smooth="yes"/>
      <point x="235" y="15" type="line" smooth="yes"/>
      <point x="225" y="15"/>
      <point x="224" y="16"/>
      <point x="224" y="25" type="curve" smooth="yes"/>
      <point x="224" y="334" type="line" smooth="yes"/>
      <point x="224" y="368"/>
      <point x="255" y="445"/>
      <point x="325" y="445" type="curve" smooth="yes"/>
      <point x="384" y="445"/>
      <point x="403" y="386"/>
      <point x="403" y="313" type="curve" smooth="yes"/>
      <point x="403" y="25" type="line" smooth="yes"/>
      <point x="403" y="16"/>
      <point x="401" y="15"/>
      <point x="393" y="15" type="curve" smooth="yes"/>
      <point x="344" y="15" type="line" smooth="yes"/>
      <point x="339" y="15"/>
      <point x="338" y="0"/>
      <point x="344" y="0" type="curve" smooth="yes"/>
      <point x="566" y="0" type="line" smooth="yes"/>
      <point x="571" y="0"/>
      <point x="571" y="15"/>
      <point x="566" y="15" type="curve" smooth="yes"/>
      <point x="519" y="15" type="line" smooth="yes"/>
      <point x="509" y="15"/>
      <point x="508" y="16"/>
      <point x="508" y="25" type="curve" smooth="yes"/>
      <point x="508" y="334" type="line" smooth="yes"/>
      <point x="508" y="358"/>
      <point x="535" y="445"/>
      <point x="609" y="445" type="curve" smooth="yes"/>
      <point x="668" y="445"/>
      <point x="687" y="391"/>
      <point x="687" y="318" type="curve" smooth="yes"/>
      <point x="687" y="25" type="line" smooth="yes"/>
      <point x="687" y="16"/>
      <point x="686" y="15"/>
      <point x="676" y="15" type="curve" smooth="yes"/>
      <point x="628" y="15" type="line" smooth="yes"/>
      <point x="623" y="15"/>
      <point x="623" y="0"/>
      <point x="628" y="0" type="curve" smooth="yes"/>
      <point x="872" y="0" type="line" smooth="yes"/>
      <point x="882" y="0"/>
      <point x="882" y="15"/>
      <point x="872" y="15" type="curve" smooth="yes"/>
      <point x="802" y="15" type="line" smooth="yes"/>
      <point x="793" y="15"/>
      <point x="792" y="16"/>
      <point x="792" y="25" type="curve" smooth="yes"/>
      <point x="792" y="293" type="line" smooth="yes"/>
      <point x="792" y="415"/>
      <point x="717" y="465"/>
      <point x="640" y="465" type="curve" smooth="yes"/>
      <point x="520" y="465"/>
      <point x="502" y="362"/>
      <point x="502" y="362" type="curve"/>
      <point x="502" y="362"/>
      <point x="490" y="465"/>
      <point x="357" y="465" type="curve" smooth="yes"/>
      <point x="254" y="465"/>
      <point x="227" y="395"/>
      <point x="219" y="368" type="curve"/>
      <point x="219" y="453" type="line" smooth="yes"/>
      <point x="219" y="458"/>
      <point x="215" y="460"/>
      <point x="210" y="458" type="curve" smooth="yes"/>
      <point x="194" y="453"/>
      <point x="157" y="450"/>
      <point x="124" y="450" type="curve" smooth="yes"/>
    </contour>
  </outline>
</glyph>
<glyph name="n" format="1">
  <advance width="617"/>
  <unicode hex="006E"/>
  <outline>
    <contour>
      <point x="224" y="332" type="line"/>
      <point x="233" y="403"/>
      <point x="280" y="445"/>
      <point x="331" y="445" type="curve" smooth="yes"/>
      <point x="388" y="445"/>
      <point x="418" y="402"/>
      <point x="418" y="316" type="curve" smooth="yes"/>
      <point x="418" y="20" type="line" smooth="yes"/>
      <point x="418" y="16"/>
      <point x="418" y="15"/>
      <point x="412" y="15" type="curve" smooth="yes"/>
      <point x="359" y="15" type="line" smooth="yes"/>
      <point x="354" y="15"/>
      <point x="354" y="0"/>
      <point x="359" y="0" type="curve" smooth="yes"/>
      <point x="603" y="0" type="line" smooth="yes"/>
      <point x="608" y="0"/>
      <point x="608" y="15"/>
      <point x="603" y="15" type="curve" smooth="yes"/>
      <point x="528" y="15" type="line" smooth="yes"/>
      <point x="524" y="15"/>
      <point x="523" y="16"/>
      <point x="523" y="20" type="curve" smooth="yes"/>
      <point x="523" y="286" type="line" smooth="yes"/>
      <point x="523" y="404"/>
      <point x="456" y="465"/>
      <point x="360" y="465" type="curve" smooth="yes"/>
      <point x="288" y="465"/>
      <point x="240" y="430"/>
      <point x="219" y="368" type="curve"/>
      <point x="219" y="453" type="line" smooth="yes"/>
      <point x="219" y="458"/>
      <point x="215" y="460"/>
      <point x="210" y="458" type="curve" smooth="yes"/>
      <point x="194" y="453"/>
      <point x="157" y="450"/>
      <point x="124" y="450" type="curve" smooth="yes"/>
      <point x="39" y="450" type="line" smooth="yes"/>
      <point x="34" y="450"/>
      <point x="34" y="435"/>
      <point x="39" y="435" type="curve" smooth="yes"/>
      <point x="112" y="435" type="line" smooth="yes"/>
      <point x="118" y="435"/>
      <point x="119" y="434"/>
      <point x="119" y="429" type="curve" smooth="yes"/>
      <point x="119" y="20" type="line" smooth="yes"/>
      <point x="119" y="16"/>
      <point x="118" y="15"/>
      <point x="114" y="15" type="curve" smooth="yes"/>
      <point x="39" y="15" type="line" smooth="yes"/>
      <point x="34" y="15"/>
      <point x="34" y="0"/>
      <point x="39" y="0" type="curve" smooth="yes"/>
      <point x="279" y="0" type="line" smooth="yes"/>
      <point x="284" y="0"/>
      <point x="284" y="15"/>
      <point x="279" y="15" type="curve" smooth="yes"/>
      <point x="229" y="15" type="line" smooth="yes"/>
      <point x="225" y="15"/>
      <point x="224" y="16"/>
      <point x="224" y="20" type="curve" smooth="yes"/>
    </contour>
  </outline>
</glyph>
<glyph name="o" format="1">
  <advance width="550"/>
  <unicode hex="006F"/>
  <outline>
    <contour>
      <point x="275" y="450" type="curve" smooth="yes"/>
      <point x="190" y="450"/>
      <point x="160" y="402"/>
      <point x="160" y="226" type="curve" smooth="yes"/>
      <point x="160" y="50"/>
      <point x="190" y="0"/>
      <point x="275" y="0" type="curve" smooth="yes"/>
      <point x="360" y="0"/>
      <point x="390" y="50"/>
      <point x="390" y="226" type="curve" smooth="yes"/>
      <point x="390" y="402"/>
      <point x="360" y="450"/>
    </contour>
    <contour>
      <point x="275" y="465" type="curve" smooth="yes"/>
      <point x="377" y="465"/>
      <point x="505" y="381"/>
      <point x="505" y="226" type="curve" smooth="yes"/>
      <point x="505" y="107"/>
      <point x="416" y="-15"/>
      <point x="275" y="-15" type="curve" smooth="yes"/>
      <point x="134" y="-15"/>
      <point x="45" y="107"/>
      <point x="45" y="226" type="curve" smooth="yes"/>
      <point x="45" y="381"/>
      <point x="173" y="465"/>
    </contour>
  </outline>
</glyph>
<glyph name="p" format="1">
  <advance width="599"/>
  <unicode hex="0070"/>
  <outline>
    <contour>
      <point x="119" y="-245" type="line"/>
      <point x="119" y="-254"/>
      <point x="118" y="-255"/>
      <point x="109" y="-255" type="curve" smooth="yes"/>
      <point x="39" y="-255" type="line" smooth="yes"/>
      <point x="34" y="-255"/>
      <point x="34" y="-270"/>
      <point x="39" y="-270" type="curve" smooth="yes"/>
      <point x="312" y="-270" type="line" smooth="yes"/>
      <point x="317" y="-270"/>
      <point x="317" y="-255"/>
      <point x="312" y="-255" type="curve" smooth="yes"/>
      <point x="235" y="-255" type="line" smooth="yes"/>
      <point x="225" y="-255"/>
      <point x="224" y="-254"/>
      <point x="224" y="-245" type="curve" smooth="yes"/>
      <point x="224" y="47" type="line"/>
      <point x="237" y="27"/>
      <point x="268" y="-15"/>
      <point x="344" y="-15" type="curve" smooth="yes"/>
      <point x="459" y="-15"/>
      <point x="554" y="89"/>
      <point x="554" y="232" type="curve" smooth="yes"/>
      <point x="554" y="370"/>
      <point x="469" y="465"/>
      <point x="357" y="465" type="curve" smooth="yes"/>
      <point x="248" y="465"/>
      <point x="224" y="386"/>
      <point x="224" y="386" type="curve"/>
      <point x="224" y="453" type="line" smooth="yes"/>
      <point x="224" y="458"/>
      <point x="220" y="460"/>
      <point x="215" y="458" type="curve" smooth="yes"/>
      <point x="199" y="453"/>
      <point x="163" y="450"/>
      <point x="130" y="450" type="curve" smooth="yes"/>
      <point x="40" y="450" type="line" smooth="yes"/>
      <point x="35" y="450"/>
      <point x="35" y="435"/>
      <point x="40" y="435" type="curve" smooth="yes"/>
      <point x="113" y="435" type="line" smooth="yes"/>
      <point x="119" y="435"/>
      <point x="120" y="434"/>
      <point x="120" y="429" type="curve" smooth="yes"/>
    </contour>
    <contour>
      <point x="224" y="347" type="line"/>
      <point x="224" y="365"/>
      <point x="250" y="445"/>
      <point x="331" y="445" type="curve" smooth="yes"/>
      <point x="436" y="445"/>
      <point x="439" y="306"/>
      <point x="439" y="232" type="curve" smooth="yes"/>
      <point x="439" y="47"/>
      <point x="397" y="5"/>
      <point x="329" y="5" type="curve" smooth="yes"/>
      <point x="253" y="5"/>
      <point x="224" y="59"/>
      <point x="224" y="87" type="curve" smooth="yes"/>
    </contour>
  </outline>
</glyph>
<glyph name="q" format="1">
  <advance width="579"/>
  <unicode hex="0071"/>
  <outline>
    <contour>
      <point x="375" y="-245" type="line"/>
      <point x="375" y="-254"/>
      <point x="374" y="-255"/>
      <point x="365" y="-255" type="curve" smooth="yes"/>
      <point x="285" y="-255" type="line" smooth="yes"/>
      <point x="280" y="-255"/>
      <point x="280" y="-270"/>
      <point x="285" y="-270" type="curve" smooth="yes"/>
      <point x="560" y="-270" type="line" smooth="yes"/>
      <point x="565" y="-270"/>
      <point x="565" y="-255"/>
      <point x="560" y="-255" type="curve" smooth="yes"/>
      <point x="491" y="-255" type="line" smooth="yes"/>
      <point x="481" y="-255"/>
      <point x="480" y="-254"/>
      <point x="480" y="-245" type="curve" smooth="yes"/>
      <point x="480" y="460" type="line"/>
      <point x="412" y="460"/>
      <point x="375" y="398"/>
      <point x="375" y="398" type="curve"/>
      <point x="375" y="398"/>
      <point x="346" y="465"/>
      <point x="256" y="465" type="curve" smooth="yes"/>
      <point x="155" y="465"/>
      <point x="45" y="374"/>
      <point x="45" y="216" type="curve" smooth="yes"/>
      <point x="45" y="69"/>
      <point x="145" y="-15"/>
      <point x="242" y="-15" type="curve" smooth="yes"/>
      <point x="334" y="-15"/>
      <point x="366" y="40"/>
      <point x="375" y="60" type="curve"/>
    </contour>
    <contour>
      <point x="375" y="98" type="line"/>
      <point x="375" y="80"/>
      <point x="349" y="5"/>
      <point x="268" y="5" type="curve" smooth="yes"/>
      <point x="163" y="5"/>
      <point x="160" y="144"/>
      <point x="160" y="218" type="curve" smooth="yes"/>
      <point x="160" y="315"/>
      <point x="165" y="445"/>
      <point x="275" y="445" type="curve" smooth="yes"/>
      <point x="343" y="445"/>
      <point x="375" y="385"/>
      <point x="375" y="358" type="curve" smooth="yes"/>
    </contour>
  </outline>
</glyph>
<glyph name="r" format="1">
  <advance width="415"/>
  <unicode hex="0072"/>
  <outline>
    <contour>
      <point x="223" y="294" type="line"/>
      <point x="223" y="379"/>
      <point x="259" y="445"/>
      <point x="319" y="445" type="curve" smooth="yes"/>
      <point x="331" y="445"/>
      <point x="336" y="441"/>
      <point x="336" y="441" type="curve"/>
      <point x="336" y="441"/>
      <point x="311" y="378"/>
      <point x="313" y="374" type="curve" smooth="yes"/>
      <point x="318" y="363"/>
      <point x="338" y="353"/>
      <point x="356" y="353" type="curve" smooth="yes"/>
      <point x="390" y="353"/>
      <point x="410" y="377"/>
      <point x="410" y="404" type="curve" smooth="yes"/>
      <point x="410" y="440"/>
      <point x="385" y="465"/>
      <point x="336" y="465" type="curve" smooth="yes"/>
      <point x="271" y="465"/>
      <point x="230" y="414"/>
      <point x="218" y="362" type="curve"/>
      <point x="218" y="453" type="line" smooth="yes"/>
      <point x="218" y="458"/>
      <point x="214" y="460"/>
      <point x="209" y="458" type="curve" smooth="yes"/>
      <point x="193" y="453"/>
      <point x="151" y="450"/>
      <point x="118" y="450" type="curve" smooth="yes"/>
      <point x="39" y="450" type="line" smooth="yes"/>
      <point x="34" y="450"/>
      <point x="34" y="435"/>
      <point x="39" y="435" type="curve" smooth="yes"/>
      <point x="112" y="435" type="line" smooth="yes"/>
      <point x="118" y="435"/>
      <point x="119" y="434"/>
      <point x="119" y="429" type="curve" smooth="yes"/>
      <point x="119" y="20" type="line" smooth="yes"/>
      <point x="119" y="16"/>
      <point x="118" y="15"/>
      <point x="114" y="15" type="curve" smooth="yes"/>
      <point x="39" y="15" type="line" smooth="yes"/>
      <point x="34" y="15"/>
      <point x="34" y="0"/>
      <point x="39" y="0" type="curve" smooth="yes"/>
      <point x="304" y="0" type="line" smooth="yes"/>
      <point x="309" y="0"/>
      <point x="309" y="15"/>
      <point x="304" y="15" type="curve" smooth="yes"/>
      <point x="229" y="15" type="line" smooth="yes"/>
      <point x="225" y="15"/>
      <point x="224" y="16"/>
      <point x="224" y="20" type="curve" smooth="yes"/>
    </contour>
  </outline>
</glyph>
<glyph name="s" format="1">
  <advance width="452"/>
  <unicode hex="0073"/>
  <outline>
    <contour>
      <point x="78" y="167" type="curve" smooth="yes"/>
      <point x="77" y="170"/>
      <point x="70" y="170"/>
      <point x="70" y="166" type="curve" smooth="yes"/>
      <point x="70" y="-5" type="line" smooth="yes"/>
      <point x="70" y="-9"/>
      <point x="74" y="-9"/>
      <point x="76" y="-7" type="curve" smooth="yes"/>
      <point x="117" y="46" type="line"/>
      <point x="142" y="13"/>
      <point x="188" y="-15"/>
      <point x="241" y="-15" type="curve" smooth="yes"/>
      <point x="336" y="-15"/>
      <point x="407" y="40"/>
      <point x="407" y="128" type="curve" smooth="yes"/>
      <point x="407" y="298"/>
      <point x="164" y="244"/>
      <point x="164" y="376" type="curve" smooth="yes"/>
      <point x="164" y="419"/>
      <point x="188" y="450"/>
      <point x="236" y="450" type="curve" smooth="yes"/>
      <point x="307" y="450"/>
      <point x="333" y="383"/>
      <point x="356" y="322" type="curve" smooth="yes"/>
      <point x="357" y="320"/>
      <point x="364" y="320"/>
      <point x="364" y="323" type="curve" smooth="yes"/>
      <point x="364" y="371"/>
      <point x="364" y="412"/>
      <point x="364" y="459" type="curve" smooth="yes"/>
      <point x="364" y="465"/>
      <point x="359" y="464"/>
      <point x="357" y="462" type="curve" smooth="yes"/>
      <point x="318" y="426" type="line"/>
      <point x="318" y="426"/>
      <point x="292" y="465"/>
      <point x="230" y="465" type="curve" smooth="yes"/>
      <point x="151" y="465"/>
      <point x="86" y="408"/>
      <point x="86" y="330" type="curve" smooth="yes"/>
      <point x="86" y="142"/>
      <point x="322" y="204"/>
      <point x="322" y="86" type="curve" smooth="yes"/>
      <point x="322" y="22"/>
      <point x="284" y="0"/>
      <point x="241" y="0" type="curve" smooth="yes"/>
      <point x="165" y="0"/>
      <point x="109" y="50"/>
    </contour>
  </outline>
</glyph>
<glyph name="t" format="1">
  <advance width="351"/>
  <unicode hex="0074"/>
  <outline>
    <contour>
      <point x="332" y="135" type="curve" smooth="yes"/>
      <point x="332" y="67"/>
      <point x="316" y="6"/>
      <point x="260" y="6" type="curve" smooth="yes"/>
      <point x="216" y="6"/>
      <point x="201" y="44"/>
      <point x="201" y="117" type="curve" smooth="yes"/>
      <point x="201" y="435" type="line"/>
      <point x="320" y="435" type="line" smooth="yes"/>
      <point x="325" y="435"/>
      <point x="325" y="450"/>
      <point x="320" y="450" type="curve" smooth="yes"/>
      <point x="201" y="450" type="line"/>
      <point x="201" y="642" type="line" smooth="yes"/>
      <point x="201" y="645"/>
      <point x="194" y="646"/>
      <point x="193" y="644" type="curve" smooth="yes"/>
      <point x="172" y="608"/>
      <point x="128" y="598"/>
      <point x="95" y="594" type="curve"/>
      <point x="95" y="450" type="line"/>
      <point x="24" y="450" type="line" smooth="yes"/>
      <point x="19" y="450"/>
      <point x="19" y="435"/>
      <point x="24" y="435" type="curve" smooth="yes"/>
      <point x="96" y="435" type="line"/>
      <point x="96" y="139" type="line" smooth="yes"/>
      <point x="96" y="46"/>
      <point x="146" y="-15"/>
      <point x="229" y="-15" type="curve" smooth="yes"/>
      <point x="327" y="-15"/>
      <point x="346" y="58"/>
      <point x="346" y="135" type="curve" smooth="yes"/>
      <point x="346" y="140"/>
      <point x="332" y="140"/>
    </contour>
  </outline>
</glyph>
<glyph name="u" format="1">
  <advance width="596"/>
  <unicode hex="0075"/>
  <outline>
    <contour>
      <point x="194" y="453" type="line"/>
      <point x="194" y="458"/>
      <point x="190" y="460"/>
      <point x="185" y="458" type="curve" smooth="yes"/>
      <point x="169" y="453"/>
      <point x="132" y="450"/>
      <point x="99" y="450" type="curve" smooth="yes"/>
      <point x="9" y="450" type="line" smooth="yes"/>
      <point x="4" y="450"/>
      <point x="4" y="435"/>
      <point x="9" y="435" type="curve" smooth="yes"/>
      <point x="76" y="435" type="line" smooth="yes"/>
      <point x="88" y="435"/>
      <point x="89" y="434"/>
      <point x="89" y="424" type="curve" smooth="yes"/>
      <point x="89" y="170" type="line" smooth="yes"/>
      <point x="89" y="35"/>
      <point x="161" y="-15"/>
      <point x="254" y="-15" type="curve" smooth="yes"/>
      <point x="370" y="-15"/>
      <point x="392" y="79"/>
      <point x="392" y="79" type="curve"/>
      <point x="392" y="-4" type="line" smooth="yes"/>
      <point x="392" y="-9"/>
      <point x="395" y="-9"/>
      <point x="401" y="-8" type="curve" smooth="yes"/>
      <point x="431" y="-2"/>
      <point x="457" y="0"/>
      <point x="497" y="0" type="curve" smooth="yes"/>
      <point x="571" y="0" type="line" smooth="yes"/>
      <point x="576" y="0"/>
      <point x="576" y="15"/>
      <point x="571" y="15" type="curve" smooth="yes"/>
      <point x="499" y="15" type="line" smooth="yes"/>
      <point x="493" y="15"/>
      <point x="492" y="16"/>
      <point x="492" y="21" type="curve" smooth="yes"/>
      <point x="493" y="453" type="line" smooth="yes"/>
      <point x="493" y="458"/>
      <point x="489" y="460"/>
      <point x="484" y="458" type="curve" smooth="yes"/>
      <point x="468" y="453"/>
      <point x="426" y="450"/>
      <point x="393" y="450" type="curve" smooth="yes"/>
      <point x="318" y="450" type="line" smooth="yes"/>
      <point x="313" y="450"/>
      <point x="313" y="435"/>
      <point x="318" y="435" type="curve" smooth="yes"/>
      <point x="383" y="435" type="line" smooth="yes"/>
      <point x="387" y="435"/>
      <point x="388" y="434"/>
      <point x="388" y="430" type="curve" smooth="yes"/>
      <point x="388" y="118" type="line"/>
      <point x="384" y="48"/>
      <point x="332" y="5"/>
      <point x="281" y="5" type="curve" smooth="yes"/>
      <point x="224" y="5"/>
      <point x="194" y="48"/>
      <point x="194" y="134" type="curve" smooth="yes"/>
    </contour>
  </outline>
</glyph>
<glyph name="v" format="1">
  <advance width="439"/>
  <unicode hex="0076"/>
  <outline>
    <contour>
      <point x="387" y="424" type="line"/>
      <point x="390" y="432"/>
      <point x="394" y="435"/>
      <point x="401" y="435" type="curve" smooth="yes"/>
      <point x="447" y="435" type="line" smooth="yes"/>
      <point x="455" y="435"/>
      <point x="456" y="450"/>
      <point x="447" y="450" type="curve" smooth="yes"/>
      <point x="312" y="450" type="line" smooth="yes"/>
      <point x="303" y="450"/>
      <point x="304" y="435"/>
      <point x="312" y="435" type="curve" smooth="yes"/>
      <point x="360" y="435" type="line" smooth="yes"/>
      <point x="366" y="435"/>
      <point x="371" y="432"/>
      <point x="368" y="424" type="curve" smooth="yes"/>
      <point x="268" y="143" type="line"/>
      <point x="165" y="429" type="line" smooth="yes"/>
      <point x="163" y="434"/>
      <point x="166" y="435"/>
      <point x="172" y="435" type="curve" smooth="yes"/>
      <point x="221" y="435" type="line" smooth="yes"/>
      <point x="228" y="435"/>
      <point x="228" y="450"/>
      <point x="221" y="450" type="curve" smooth="yes"/>
      <point x="-9" y="450" type="line" smooth="yes"/>
      <point x="-17" y="450"/>
      <point x="-17" y="435"/>
      <point x="-9" y="435" type="curve" smooth="yes"/>
      <point x="37" y="435" type="line" smooth="yes"/>
      <point x="44" y="435"/>
      <point x="48" y="434"/>
      <point x="51" y="427" type="curve" smooth="yes"/>
      <point x="227" y="-5" type="line"/>
      <point x="233" y="-5" type="line"/>
    </contour>
  </outline>
</glyph>
<glyph name="w" format="1">
  <advance width="741"/>
  <unicode hex="0077"/>
  <outline>
    <contour>
      <point x="671" y="429" type="line"/>
      <point x="673" y="435"/>
      <point x="675" y="435"/>
      <point x="681" y="435" type="curve" smooth="yes"/>
      <point x="729" y="435" type="line" smooth="yes"/>
      <point x="737" y="435"/>
      <point x="738" y="450"/>
      <point x="729" y="450" type="curve" smooth="yes"/>
      <point x="594" y="450" type="line" smooth="yes"/>
      <point x="585" y="450"/>
      <point x="586" y="435"/>
      <point x="594" y="435" type="curve" smooth="yes"/>
      <point x="640" y="435" type="line" smooth="yes"/>
      <point x="646" y="435"/>
      <point x="651" y="434"/>
      <point x="649" y="427" type="curve" smooth="yes"/>
      <point x="559" y="150" type="line"/>
      <point x="459" y="429" type="line" smooth="yes"/>
      <point x="457" y="434"/>
      <point x="460" y="435"/>
      <point x="466" y="435" type="curve" smooth="yes"/>
      <point x="515" y="435" type="line" smooth="yes"/>
      <point x="522" y="435"/>
      <point x="522" y="450"/>
      <point x="515" y="450" type="curve" smooth="yes"/>
      <point x="293" y="450" type="line" smooth="yes"/>
      <point x="285" y="450"/>
      <point x="285" y="435"/>
      <point x="293" y="435" type="curve" smooth="yes"/>
      <point x="345" y="435" type="line" smooth="yes"/>
      <point x="349" y="435"/>
      <point x="352" y="434"/>
      <point x="352" y="430" type="curve" smooth="yes"/>
      <point x="352" y="427"/>
      <point x="351" y="423"/>
      <point x="349" y="417" type="curve" smooth="yes"/>
      <point x="262" y="150" type="line"/>
      <point x="166" y="429" type="line" smooth="yes"/>
      <point x="164" y="434"/>
      <point x="167" y="435"/>
      <point x="173" y="435" type="curve" smooth="yes"/>
      <point x="222" y="435" type="line" smooth="yes"/>
      <point x="229" y="435"/>
      <point x="229" y="450"/>
      <point x="222" y="450" type="curve" smooth="yes"/>
      <point x="-5" y="450" type="line" smooth="yes"/>
      <point x="-13" y="450"/>
      <point x="-13" y="435"/>
      <point x="-5" y="435" type="curve" smooth="yes"/>
      <point x="41" y="435" type="line" smooth="yes"/>
      <point x="48" y="435"/>
      <point x="52" y="434"/>
      <point x="55" y="427" type="curve" smooth="yes"/>
      <point x="222" y="-5" type="line"/>
      <point x="229" y="-5" type="line"/>
      <point x="362" y="397" type="line"/>
      <point x="516" y="-5" type="line"/>
      <point x="523" y="-5" type="line"/>
    </contour>
  </outline>
</glyph>
<glyph name="x" format="1">
  <advance width="547"/>
  <unicode hex="0078"/>
  <outline>
    <contour>
      <point x="358" y="26" type="line"/>
      <point x="365" y="17"/>
      <point x="362" y="15"/>
      <point x="351" y="15" type="curve" smooth="yes"/>
      <point x="295" y="15" type="line" smooth="yes"/>
      <point x="290" y="15"/>
      <point x="287" y="0"/>
      <point x="295" y="0" type="curve" smooth="yes"/>
      <point x="546" y="0" type="line" smooth="yes"/>
      <point x="554" y="0"/>
      <point x="554" y="15"/>
      <point x="546" y="15" type="curve" smooth="yes"/>
      <point x="492" y="15" type="line" smooth="yes"/>
      <point x="483" y="15"/>
      <point x="482" y="16"/>
      <point x="474" y="27" type="curve" smooth="yes"/>
      <point x="204" y="425" type="line" smooth="yes"/>
      <point x="199" y="432"/>
      <point x="203" y="435"/>
      <point x="210" y="435" type="curve" smooth="yes"/>
      <point x="257" y="435" type="line" smooth="yes"/>
      <point x="264" y="435"/>
      <point x="265" y="450"/>
      <point x="257" y="450" type="curve" smooth="yes"/>
      <point x="22" y="450" type="line" smooth="yes"/>
      <point x="13" y="450"/>
      <point x="15" y="435"/>
      <point x="22" y="435" type="curve" smooth="yes"/>
      <point x="68" y="435" type="line" smooth="yes"/>
      <point x="76" y="435"/>
      <point x="79" y="432"/>
      <point x="83" y="427" type="curve" smooth="yes"/>
    </contour>
    <contour>
      <point x="304" y="244" type="line"/>
      <point x="439" y="426" type="line" smooth="yes"/>
      <point x="445" y="434"/>
      <point x="446" y="435"/>
      <point x="454" y="435" type="curve" smooth="yes"/>
      <point x="506" y="435" type="line" smooth="yes"/>
      <point x="514" y="435"/>
      <point x="513" y="450"/>
      <point x="506" y="450" type="curve" smooth="yes"/>
      <point x="357" y="450" type="line" smooth="yes"/>
      <point x="350" y="450"/>
      <point x="352" y="435"/>
      <point x="357" y="435" type="curve" smooth="yes"/>
      <point x="411" y="435" type="line" smooth="yes"/>
      <point x="418" y="435"/>
      <point x="424" y="434"/>
      <point x="418" y="426" type="curve" smooth="yes"/>
      <point x="294" y="256" type="line"/>
    </contour>
    <contour>
      <point x="247" y="233" type="line"/>
      <point x="90" y="23" type="line" smooth="yes"/>
      <point x="84" y="15"/>
      <point x="83" y="15"/>
      <point x="75" y="15" type="curve" smooth="yes"/>
      <point x="21" y="15" type="line" smooth="yes"/>
      <point x="13" y="15"/>
      <point x="15" y="0"/>
      <point x="20" y="0" type="curve" smooth="yes"/>
      <point x="174" y="0" type="line" smooth="yes"/>
      <point x="181" y="0"/>
      <point x="181" y="15"/>
      <point x="174" y="15" type="curve" smooth="yes"/>
      <point x="117" y="15" type="line" smooth="yes"/>
      <point x="107" y="15"/>
      <point x="107" y="17"/>
      <point x="111" y="23" type="curve" smooth="yes"/>
      <point x="255" y="220" type="line"/>
    </contour>
  </outline>
</glyph>
<glyph name="y" format="1">
  <advance width="466"/>
  <unicode hex="0079"/>
  <outline>
    <contour>
      <point x="285" y="121" type="line"/>
      <point x="179" y="427" type="line" smooth="yes"/>
      <point x="177" y="433"/>
      <point x="179" y="435"/>
      <point x="186" y="435" type="curve" smooth="yes"/>
      <point x="239" y="435" type="line" smooth="yes"/>
      <point x="247" y="435"/>
      <point x="249" y="450"/>
      <point x="239" y="450" type="curve" smooth="yes"/>
      <point x="6" y="450" type="line" smooth="yes"/>
      <point x="-1" y="450"/>
      <point x="-2" y="435"/>
      <point x="6" y="435" type="curve" smooth="yes"/>
      <point x="53" y="435" type="line" smooth="yes"/>
      <point x="61" y="435"/>
      <point x="65" y="431"/>
      <point x="68" y="422" type="curve" smooth="yes"/>
      <point x="239" y="-5" type="line"/>
      <point x="239" y="-5"/>
      <point x="215" y="-79"/>
      <point x="187" y="-153" type="curve" smooth="yes"/>
      <point x="158" y="-231"/>
      <point x="122" y="-270"/>
      <point x="65" y="-270" type="curve" smooth="yes"/>
      <point x="24" y="-270"/>
      <point x="-2" y="-243"/>
      <point x="-6" y="-223" type="curve"/>
      <point x="-6" y="-223"/>
      <point x="68" y="-184"/>
      <point x="68" y="-180" type="curve" smooth="yes"/>
      <point x="68" y="-141"/>
      <point x="46" y="-122"/>
      <point x="21" y="-122" type="curve" smooth="yes"/>
      <point x="-9" y="-122"/>
      <point x="-35" y="-144"/>
      <point x="-35" y="-183" type="curve" smooth="yes"/>
      <point x="-35" y="-234"/>
      <point x="0" y="-285"/>
      <point x="65" y="-285" type="curve" smooth="yes"/>
      <point x="141" y="-285"/>
      <point x="180" y="-224"/>
      <point x="206" y="-153" type="curve" smooth="yes"/>
      <point x="238" y="-67"/>
      <point x="262" y="14"/>
      <point x="413" y="423" type="curve" smooth="yes"/>
      <point x="417" y="433"/>
      <point x="420" y="435"/>
      <point x="427" y="435" type="curve" smooth="yes"/>
      <point x="474" y="435" type="line" smooth="yes"/>
      <point x="483" y="435"/>
      <point x="482" y="450"/>
      <point x="474" y="450" type="curve" smooth="yes"/>
      <point x="337" y="450" type="line" smooth="yes"/>
      <point x="328" y="450"/>
      <point x="328" y="435"/>
      <point x="337" y="435" type="curve" smooth="yes"/>
      <point x="383" y="435" type="line" smooth="yes"/>
      <point x="395" y="435"/>
      <point x="395" y="431"/>
      <point x="392" y="422" type="curve" smooth="yes"/>
    </contour>
  </outline>
</glyph>
<glyph name="z" format="1">
  <advance width="473"/>
  <unicode hex="007A"/>
  <outline>
    <contour>
      <point x="157" y="15" type="line"/>
      <point x="417" y="435" type="line"/>
      <point x="411" y="450" type="line"/>
      <point x="63" y="450" type="line"/>
      <point x="52" y="315" type="line" smooth="yes"/>
      <point x="52" y="311"/>
      <point x="62" y="310"/>
      <point x="64" y="313" type="curve" smooth="yes"/>
      <point x="133" y="415"/>
      <point x="147" y="435"/>
      <point x="158" y="435" type="curve" smooth="yes"/>
      <point x="301" y="435" type="line"/>
      <point x="45" y="11" type="line"/>
      <point x="47" y="4"/>
      <point x="50" y="0"/>
      <point x="50" y="0" type="curve"/>
      <point x="412" y="0" type="line"/>
      <point x="423" y="146" type="line" smooth="yes"/>
      <point x="423" y="150"/>
      <point x="414" y="151"/>
      <point x="412" y="148" type="curve" smooth="yes"/>
      <point x="356" y="44"/>
      <point x="336" y="15"/>
      <point x="320" y="15" type="curve" smooth="yes"/>
    </contour>
  </outline>
</glyph>
<glyph name="braceleft" format="1">
  <advance width="342"/>
  <unicode hex="007B"/>
  <outline>
    <contour>
      <point x="198" y="-14" type="curve" smooth="yes"/>
      <point x="198" y="-103"/>
      <point x="247" y="-121"/>
      <point x="323" y="-101" type="curve" smooth="yes"/>
      <point x="330" y="-99"/>
      <point x="334" y="-129"/>
      <point x="329" y="-130" type="curve" smooth="yes"/>
      <point x="222" y="-155"/>
      <point x="158" y="-121"/>
      <point x="158" y="-15" type="curve" smooth="yes"/>
      <point x="158" y="55"/>
      <point x="174" y="110"/>
      <point x="174" y="175" type="curve" smooth="yes"/>
      <point x="174" y="249"/>
      <point x="114" y="283"/>
      <point x="36" y="283" type="curve" smooth="yes"/>
      <point x="28" y="283"/>
      <point x="28" y="315"/>
      <point x="36" y="315" type="curve" smooth="yes"/>
      <point x="114" y="315"/>
      <point x="174" y="351"/>
      <point x="174" y="425" type="curve" smooth="yes"/>
      <point x="174" y="490"/>
      <point x="158" y="545"/>
      <point x="158" y="615" type="curve" smooth="yes"/>
      <point x="158" y="721"/>
      <point x="220" y="755"/>
      <point x="327" y="730" type="curve" smooth="yes"/>
      <point x="332" y="729"/>
      <point x="327" y="698"/>
      <point x="320" y="700" type="curve" smooth="yes"/>
      <point x="244" y="720"/>
      <point x="198" y="703"/>
      <point x="198" y="614" type="curve" smooth="yes"/>
      <point x="198" y="545"/>
      <point x="214" y="490"/>
      <point x="214" y="425" type="curve" smooth="yes"/>
      <point x="214" y="311"/>
      <point x="107" y="307"/>
      <point x="107" y="300" type="curve" smooth="yes"/>
      <point x="107" y="293"/>
      <point x="214" y="289"/>
      <point x="214" y="175" type="curve" smooth="yes"/>
      <point x="214" y="110"/>
      <point x="198" y="55"/>
    </contour>
  </outline>
</glyph>
<glyph name="bar" format="1">
  <advance width="229"/>
  <unicode hex="007C"/>
  <outline>
    <contour>
      <point x="106" y="-270" type="line"/>
      <point x="106" y="-274"/>
      <point x="123" y="-274"/>
      <point x="123" y="-270" type="curve" smooth="yes"/>
      <point x="123" y="730" type="line" smooth="yes"/>
      <point x="123" y="733"/>
      <point x="106" y="733"/>
      <point x="106" y="730" type="curve" smooth="yes"/>
    </contour>
  </outline>
</glyph>
<glyph name="asciitilde" format="1">
  <advance width="512"/>
  <unicode hex="007E"/>
  <outline>
    <contour>
      <point x="359" y="267" type="curve" smooth="yes"/>
      <point x="288" y="267"/>
      <point x="228" y="346"/>
      <point x="151" y="346" type="curve" smooth="yes"/>
      <point x="90" y="346"/>
      <point x="53" y="295"/>
      <point x="51" y="239" type="curve" smooth="yes"/>
      <point x="51" y="228"/>
      <point x="77" y="226"/>
      <point x="79" y="238" type="curve" smooth="yes"/>
      <point x="87" y="285"/>
      <point x="112" y="312"/>
      <point x="151" y="312" type="curve" smooth="yes"/>
      <point x="219" y="312"/>
      <point x="282" y="232"/>
      <point x="359" y="232" type="curve" smooth="yes"/>
      <point x="424" y="232"/>
      <point x="457" y="279"/>
      <point x="461" y="337" type="curve" smooth="yes"/>
      <point x="462" y="346"/>
      <point x="434" y="352"/>
      <point x="432" y="339" type="curve" smooth="yes"/>
      <point x="426" y="294"/>
      <point x="403" y="267"/>
    </contour>
  </outline>
</glyph>
<glyph name="sterling" format="1">
  <advance width="620"/>
  <unicode hex="00A3"/>
  <outline>
    <contour>
      <point x="115" y="-15" type="curve" smooth="yes"/>
      <point x="244" y="-15"/>
      <point x="287" y="140"/>
      <point x="287" y="248" type="curve" smooth="yes"/>
      <point x="287" y="348"/>
      <point x="272" y="410"/>
      <point x="272" y="514" type="curve" smooth="yes"/>
      <point x="272" y="643"/>
      <point x="309" y="700"/>
      <point x="384" y="700" type="curve" smooth="yes"/>
      <point x="434" y="700"/>
      <point x="466" y="677"/>
      <point x="474" y="652" type="curve"/>
      <point x="474" y="652"/>
      <point x="409" y="599"/>
      <point x="410" y="593" type="curve" smooth="yes"/>
      <point x="417" y="564"/>
      <point x="443" y="546"/>
      <point x="468" y="546" type="curve" smooth="yes"/>
      <point x="496" y="546"/>
      <point x="525" y="566"/>
      <point x="525" y="605" type="curve" smooth="yes"/>
      <point x="525" y="690"/>
      <point x="457" y="730"/>
      <point x="381" y="730" type="curve" smooth="yes"/>
      <point x="250" y="730"/>
      <point x="145" y="637"/>
      <point x="145" y="507" type="curve" smooth="yes"/>
      <point x="145" y="395"/>
      <point x="237" y="308"/>
      <point x="237" y="186" type="curve" smooth="yes"/>
      <point x="237" y="107"/>
      <point x="200" y="15"/>
      <point x="116" y="15" type="curve" smooth="yes"/>
      <point x="84" y="15"/>
      <point x="65" y="32"/>
      <point x="65" y="57" type="curve" smooth="yes"/>
      <point x="65" y="84"/>
      <point x="88" y="104"/>
      <point x="128" y="104" type="curve" smooth="yes"/>
      <point x="212" y="104"/>
      <point x="342" y="-15"/>
      <point x="462" y="-15" type="curve" smooth="yes"/>
      <point x="572" y="-15"/>
      <point x="585" y="80"/>
      <point x="594" y="163" type="curve" smooth="yes"/>
      <point x="595" y="170"/>
      <point x="570" y="172"/>
      <point x="569" y="166" type="curve" smooth="yes"/>
      <point x="558" y="105"/>
      <point x="539" y="82"/>
      <point x="488" y="82" type="curve" smooth="yes"/>
      <point x="427" y="82"/>
      <point x="214" y="134"/>
      <point x="129" y="134" type="curve" smooth="yes"/>
      <point x="68" y="134"/>
      <point x="30" y="100"/>
      <point x="30" y="56" type="curve" smooth="yes"/>
      <point x="30" y="15"/>
      <point x="63" y="-15"/>
    </contour>
    <contour>
      <point x="457" y="310" type="line"/>
      <point x="467" y="310"/>
      <point x="467" y="340"/>
      <point x="457" y="340" type="curve" smooth="yes"/>
      <point x="88" y="340" type="line" smooth="yes"/>
      <point x="78" y="340"/>
      <point x="78" y="310"/>
      <point x="88" y="310" type="curve" smooth="yes"/>
    </contour>
  </outline>
</glyph>
<glyph name="yen" format="1">
  <advance width="729"/>
  <unicode hex="00A5"/>
  <outline>
    <contour>
      <point x="317" y="41" type="line"/>
      <point x="317" y="31"/>
      <point x="316" y="30"/>
      <point x="306" y="30" type="curve" smooth="yes"/>
      <point x="216" y="30" type="line" smooth="yes"/>
      <point x="206" y="30"/>
      <point x="206" y="0"/>
      <point x="216" y="0" type="curve" smooth="yes"/>
      <point x="535" y="0" type="line" smooth="yes"/>
      <point x="545" y="0"/>
      <point x="545" y="30"/>
      <point x="535" y="30" type="curve" smooth="yes"/>
      <point x="443" y="30" type="line" smooth="yes"/>
      <point x="433" y="30"/>
      <point x="432" y="31"/>
      <point x="432" y="43" type="curve" smooth="yes"/>
      <point x="432" y="349" type="line"/>
      <point x="630" y="679" type="line" smooth="yes"/>
      <point x="635" y="688"/>
      <point x="638" y="690"/>
      <point x="648" y="690" type="curve" smooth="yes"/>
      <point x="716" y="690" type="line" smooth="yes"/>
      <point x="726" y="690"/>
      <point x="726" y="720"/>
      <point x="716" y="720" type="curve" smooth="yes"/>
      <point x="508" y="720" type="line" smooth="yes"/>
      <point x="498" y="720"/>
      <point x="498" y="690"/>
      <point x="508" y="690" type="curve" smooth="yes"/>
      <point x="580" y="690" type="line" smooth="yes"/>
      <point x="590" y="690"/>
      <point x="593" y="687"/>
      <point x="587" y="678" type="curve" smooth="yes"/>
      <point x="407" y="379" type="line"/>
      <point x="232" y="679" type="line" smooth="yes"/>
      <point x="227" y="687"/>
      <point x="230" y="690"/>
      <point x="240" y="690" type="curve" smooth="yes"/>
      <point x="312" y="690" type="line" smooth="yes"/>
      <point x="322" y="690"/>
      <point x="322" y="720"/>
      <point x="312" y="720" type="curve" smooth="yes"/>
      <point x="13" y="720" type="line" smooth="yes"/>
      <point x="3" y="720"/>
      <point x="3" y="690"/>
      <point x="13" y="690" type="curve" smooth="yes"/>
      <point x="84" y="690" type="line" smooth="yes"/>
      <point x="94" y="690"/>
      <point x="98" y="687"/>
      <point x="102" y="680" type="curve" smooth="yes"/>
      <point x="317" y="330" type="line"/>
    </contour>
    <contour>
      <point x="611" y="320" type="line"/>
      <point x="621" y="320"/>
      <point x="621" y="350"/>
      <point x="611" y="350" type="curve" smooth="yes"/>
      <point x="138" y="350" type="line" smooth="yes"/>
      <point x="128" y="350"/>
      <point x="128" y="320"/>
      <point x="138" y="320" type="curve" smooth="yes"/>
    </contour>
    <contour>
      <point x="611" y="166" type="line"/>
      <point x="621" y="166"/>
      <point x="621" y="196"/>
      <point x="611" y="196" type="curve" smooth="yes"/>
      <point x="138" y="196" type="line" smooth="yes"/>
      <point x="128" y="196"/>
      <point x="128" y="166"/>
      <point x="138" y="166" type="curve" smooth="yes"/>
    </contour>
  </outline>
</glyph>
<glyph name="brokenbar" format="1">
  <advance width="249"/>
  <unicode hex="00A6"/>
  <outline>
    <contour>
      <point x="143" y="730" type="line"/>
      <point x="145" y="736"/>
      <point x="109" y="738"/>
      <point x="106" y="730" type="curve"/>
      <point x="106" y="375" type="line" smooth="yes"/>
      <point x="106" y="365"/>
      <point x="143" y="365"/>
      <point x="143" y="375" type="curve" smooth="yes"/>
    </contour>
    <contour>
      <point x="106" y="-270" type="line"/>
      <point x="103" y="-275"/>
      <point x="141" y="-276"/>
      <point x="143" y="-270" type="curve"/>
      <point x="143" y="160" type="line" smooth="yes"/>
      <point x="143" y="170"/>
      <point x="106" y="170"/>
      <point x="106" y="160" type="curve" smooth="yes"/>
    </contour>
  </outline>
</glyph>
<glyph name="section" format="1">
  <advance width="504"/>
  <unicode hex="00A7"/>
  <outline>
    <contour>
      <point x="204" y="581" type="curve" smooth="yes"/>
      <point x="204" y="660"/>
      <point x="249" y="700"/>
      <point x="301" y="700" type="curve" smooth="yes"/>
      <point x="364" y="700"/>
      <point x="375" y="657"/>
      <point x="375" y="657" type="curve"/>
      <point x="375" y="657"/>
      <point x="313" y="625"/>
      <point x="313" y="615" type="curve" smooth="yes"/>
      <point x="313" y="584"/>
      <point x="338" y="566"/>
      <point x="364" y="566" type="curve" smooth="yes"/>
      <point x="391" y="566"/>
      <point x="419" y="586"/>
      <point x="419" y="631" type="curve" smooth="yes"/>
      <point x="419" y="678"/>
      <point x="380" y="730"/>
      <point x="297" y="730" type="curve" smooth="yes"/>
      <point x="221" y="730"/>
      <point x="164" y="650"/>
      <point x="164" y="568" type="curve" smooth="yes"/>
      <point x="164" y="373"/>
      <point x="394" y="209"/>
      <point x="394" y="7" type="curve" smooth="yes"/>
      <point x="394" y="-141"/>
      <point x="316" y="-240"/>
      <point x="197" y="-240" type="curve"/>
      <point x="200" y="-270" type="line"/>
      <point x="328" y="-270"/>
      <point x="434" y="-164"/>
      <point x="434" y="11" type="curve" smooth="yes"/>
      <point x="434" y="242"/>
      <point x="204" y="370"/>
    </contour>
    <contour>
      <point x="117" y="495" type="curve" smooth="yes"/>
      <point x="117" y="637"/>
      <point x="182" y="700"/>
      <point x="300" y="700" type="curve"/>
      <point x="297" y="730" type="line"/>
      <point x="172" y="730"/>
      <point x="77" y="641"/>
      <point x="77" y="481" type="curve" smooth="yes"/>
      <point x="77" y="263"/>
      <point x="315" y="103"/>
      <point x="315" y="-111" type="curve" smooth="yes"/>
      <point x="315" y="-190"/>
      <point x="255" y="-240"/>
      <point x="198" y="-240" type="curve" smooth="yes"/>
      <point x="125" y="-240"/>
      <point x="104" y="-180"/>
      <point x="104" y="-180" type="curve"/>
      <point x="104" y="-180"/>
      <point x="173" y="-145"/>
      <point x="173" y="-135" type="curve" smooth="yes"/>
      <point x="172" y="-104"/>
      <point x="149" y="-87"/>
      <point x="125" y="-87" type="curve" smooth="yes"/>
      <point x="96" y="-87"/>
      <point x="65" y="-109"/>
      <point x="65" y="-159" type="curve" smooth="yes"/>
      <point x="65" y="-206"/>
      <point x="111" y="-270"/>
      <point x="199" y="-270" type="curve" smooth="yes"/>
      <point x="285" y="-270"/>
      <point x="355" y="-190"/>
      <point x="355" y="-98" type="curve" smooth="yes"/>
      <point x="355" y="114"/>
      <point x="117" y="300"/>
    </contour>
  </outline>
</glyph>
<glyph name="dieresis" format="1">
  <advance width="400"/>
  <unicode hex="00A8"/>
  <outline>
    <contour>
      <point x="54" y="642" type="curve" smooth="yes"/>
      <point x="54" y="610"/>
      <point x="80" y="585"/>
      <point x="111" y="585" type="curve" smooth="yes"/>
      <point x="143" y="585"/>
      <point x="168" y="610"/>
      <point x="168" y="642" type="curve" smooth="yes"/>
      <point x="168" y="675"/>
      <point x="143" y="700"/>
      <point x="111" y="700" type="curve" smooth="yes"/>
      <point x="80" y="700"/>
      <point x="54" y="675"/>
    </contour>
    <contour>
      <point x="232" y="642" type="curve" smooth="yes"/>
      <point x="232" y="610"/>
      <point x="258" y="585"/>
      <point x="289" y="585" type="curve" smooth="yes"/>
      <point x="321" y="585"/>
      <point x="346" y="610"/>
      <point x="346" y="642" type="curve" smooth="yes"/>
      <point x="346" y="675"/>
      <point x="321" y="700"/>
      <point x="289" y="700" type="curve" smooth="yes"/>
      <point x="258" y="700"/>
      <point x="232" y="675"/>
    </contour>
  </outline>
</glyph>
<glyph name="copyright" format="1">
  <advance width="859"/>
  <unicode hex="00A9"/>
  <outline>
    <contour>
      <point x="55" y="360" type="curve" smooth="yes"/>
      <point x="55" y="154"/>
      <point x="223" y="-15"/>
      <point x="429" y="-15" type="curve" smooth="yes"/>
      <point x="636" y="-15"/>
      <point x="804" y="154"/>
      <point x="804" y="360" type="curve" smooth="yes"/>
      <point x="804" y="567"/>
      <point x="636" y="735"/>
      <point x="429" y="735" type="curve" smooth="yes"/>
      <point x="223" y="735"/>
      <point x="55" y="567"/>
    </contour>
    <contour>
      <point x="95" y="359" type="curve" smooth="yes"/>
      <point x="95" y="555"/>
      <point x="240" y="705"/>
      <point x="430" y="705" type="curve" smooth="yes"/>
      <point x="620" y="705"/>
      <point x="765" y="555"/>
      <point x="765" y="359" type="curve" smooth="yes"/>
      <point x="765" y="164"/>
      <point x="620" y="15"/>
      <point x="430" y="15" type="curve" smooth="yes"/>
      <point x="240" y="15"/>
      <point x="95" y="164"/>
    </contour>
    <contour>
      <point x="325" y="368" type="curve" smooth="yes"/>
      <point x="325" y="509"/>
      <point x="377" y="553"/>
      <point x="446" y="553" type="curve" smooth="yes"/>
      <point x="485" y="553"/>
      <point x="517" y="538"/>
      <point x="535" y="507" type="curve" smooth="yes"/>
      <point x="549" y="484"/>
      <point x="562" y="454"/>
      <point x="567" y="440" type="curve" smooth="yes"/>
      <point x="571" y="429"/>
      <point x="592" y="431"/>
      <point x="592" y="441" type="curve" smooth="yes"/>
      <point x="588" y="576" type="line" smooth="yes"/>
      <point x="588" y="583"/>
      <point x="577" y="583"/>
      <point x="572" y="579" type="curve" smooth="yes"/>
      <point x="547" y="539" type="line"/>
      <point x="525" y="566"/>
      <point x="488" y="583"/>
      <point x="440" y="583" type="curve" smooth="yes"/>
      <point x="346" y="583"/>
      <point x="240" y="503"/>
      <point x="240" y="364" type="curve" smooth="yes"/>
      <point x="240" y="232"/>
      <point x="340" y="163"/>
      <point x="435" y="163" type="curve" smooth="yes"/>
      <point x="479" y="163"/>
      <point x="523" y="178"/>
      <point x="550" y="209" type="curve"/>
      <point x="577" y="169" type="line" smooth="yes"/>
      <point x="582" y="167"/>
      <point x="594" y="169"/>
      <point x="594" y="169" type="curve"/>
      <point x="594" y="317" type="line" smooth="yes"/>
      <point x="594" y="325"/>
      <point x="572" y="327"/>
      <point x="571" y="318" type="curve" smooth="yes"/>
      <point x="571" y="318"/>
      <point x="562" y="275"/>
      <point x="546" y="247" type="curve" smooth="yes"/>
      <point x="526" y="213"/>
      <point x="492" y="193"/>
      <point x="450" y="193" type="curve" smooth="yes"/>
      <point x="379" y="193"/>
      <point x="325" y="225"/>
    </contour>
  </outline>
</glyph>
<glyph name="ordfeminine" format="1">
  <advance width="348"/>
  <unicode hex="00AA"/>
  <outline>
    <contour>
      <point x="331" y="389" type="curve" smooth="yes"/>
      <point x="326" y="386"/>
      <point x="314" y="377"/>
      <point x="305" y="377" type="curve" smooth="yes"/>
      <point x="297" y="377"/>
      <point x="282" y="391"/>
      <point x="282" y="406" type="curve" smooth="yes"/>
      <point x="282" y="526" type="line" smooth="yes"/>
      <point x="282" y="625"/>
      <point x="222" y="660"/>
      <point x="153" y="660" type="curve" smooth="yes"/>
      <point x="100" y="660"/>
      <point x="54" y="622"/>
      <point x="54" y="576" type="curve" smooth="yes"/>
      <point x="54" y="522"/>
      <point x="133" y="518"/>
      <point x="133" y="573" type="curve" smooth="yes"/>
      <point x="133" y="583"/>
      <point x="96" y="599"/>
      <point x="96" y="599" type="curve"/>
      <point x="101" y="616"/>
      <point x="122" y="630"/>
      <point x="152" y="630" type="curve" smooth="yes"/>
      <point x="195" y="630"/>
      <point x="212" y="609"/>
      <point x="212" y="549" type="curve" smooth="yes"/>
      <point x="212" y="517" type="line"/>
      <point x="212" y="517"/>
      <point x="153" y="512"/>
      <point x="116" y="505" type="curve" smooth="yes"/>
      <point x="70" y="496"/>
      <point x="40" y="465"/>
      <point x="40" y="422" type="curve" smooth="yes"/>
      <point x="40" y="369"/>
      <point x="83" y="340"/>
      <point x="134" y="340" type="curve" smooth="yes"/>
      <point x="179" y="340"/>
      <point x="204" y="361"/>
      <point x="216" y="382" type="curve"/>
      <point x="225" y="355"/>
      <point x="254" y="342"/>
      <point x="282" y="342" type="curve" smooth="yes"/>
      <point x="305" y="342"/>
      <point x="327" y="351"/>
      <point x="342" y="366" type="curve" smooth="yes"/>
      <point x="346" y="370"/>
      <point x="335" y="392"/>
    </contour>
    <contour>
      <point x="212" y="490" type="curve"/>
      <point x="212" y="481"/>
      <point x="213" y="469"/>
      <point x="212" y="440" type="curve" smooth="yes"/>
      <point x="211" y="409"/>
      <point x="196" y="380"/>
      <point x="165" y="380" type="curve" smooth="yes"/>
      <point x="138" y="380"/>
      <point x="120" y="398"/>
      <point x="120" y="431" type="curve" smooth="yes"/>
      <point x="120" y="463"/>
      <point x="138" y="477"/>
      <point x="162" y="482" type="curve" smooth="yes"/>
      <point x="181" y="486"/>
      <point x="212" y="490"/>
    </contour>
    <contour>
      <point x="323" y="189" type="line"/>
      <point x="333" y="189"/>
      <point x="333" y="224"/>
      <point x="323" y="224" type="curve" smooth="yes"/>
      <point x="52" y="224" type="line" smooth="yes"/>
      <point x="42" y="224"/>
      <point x="42" y="189"/>
      <point x="52" y="189" type="curve" smooth="yes"/>
    </contour>
  </outline>
</glyph>
<glyph name="logicalnot" format="1">
  <advance width="578"/>
  <unicode hex="00AC"/>
  <outline>
    <contour>
      <point x="498" y="11" type="curve"/>
      <point x="498" y="265" type="line" smooth="yes"/>
      <point x="498" y="274"/>
      <point x="496" y="283"/>
      <point x="491" y="283" type="curve" smooth="yes"/>
      <point x="63" y="283" type="line" smooth="yes"/>
      <point x="53" y="283"/>
      <point x="53" y="248"/>
      <point x="63" y="248" type="curve" smooth="yes"/>
      <point x="458" y="248" type="line"/>
      <point x="458" y="11" type="line"/>
      <point x="455" y="6"/>
      <point x="496" y="5"/>
    </contour>
  </outline>
</glyph>
<glyph name="registered" format="1">
  <advance width="859"/>
  <unicode hex="00AE"/>
  <outline>
    <contour>
      <point x="55" y="360" type="curve" smooth="yes"/>
      <point x="55" y="154"/>
      <point x="223" y="-15"/>
      <point x="429" y="-15" type="curve" smooth="yes"/>
      <point x="636" y="-15"/>
      <point x="804" y="154"/>
      <point x="804" y="360" type="curve" smooth="yes"/>
      <point x="804" y="567"/>
      <point x="636" y="735"/>
      <point x="429" y="735" type="curve" smooth="yes"/>
      <point x="223" y="735"/>
      <point x="55" y="567"/>
    </contour>
    <contour>
      <point x="95" y="359" type="curve" smooth="yes"/>
      <point x="95" y="555"/>
      <point x="240" y="705"/>
      <point x="430" y="705" type="curve" smooth="yes"/>
      <point x="620" y="705"/>
      <point x="765" y="555"/>
      <point x="765" y="359" type="curve" smooth="yes"/>
      <point x="765" y="164"/>
      <point x="620" y="15"/>
      <point x="430" y="15" type="curve" smooth="yes"/>
      <point x="240" y="15"/>
      <point x="95" y="164"/>
    </contour>
    <contour>
      <point x="410" y="543" type="line"/>
      <point x="466" y="543"/>
      <point x="510" y="539"/>
      <point x="510" y="470" type="curve" smooth="yes"/>
      <point x="510" y="407"/>
      <point x="482" y="387"/>
      <point x="422" y="387" type="curve" smooth="yes"/>
      <point x="381" y="387" type="line"/>
      <point x="381" y="543" type="line"/>
    </contour>
    <contour>
      <point x="306" y="211" type="line"/>
      <point x="306" y="204"/>
      <point x="304" y="202"/>
      <point x="298" y="202" type="curve" smooth="yes"/>
      <point x="245" y="202" type="line" smooth="yes"/>
      <point x="237" y="202"/>
      <point x="237" y="172"/>
      <point x="245" y="172" type="curve" smooth="yes"/>
      <point x="428" y="172" type="line" smooth="yes"/>
      <point x="436" y="172"/>
      <point x="436" y="202"/>
      <point x="428" y="202" type="curve" smooth="yes"/>
      <point x="390" y="202" type="line" smooth="yes"/>
      <point x="384" y="202"/>
      <point x="381" y="205"/>
      <point x="381" y="211" type="curve" smooth="yes"/>
      <point x="381" y="357" type="line"/>
      <point x="439" y="357" type="line" smooth="yes"/>
      <point x="474" y="357"/>
      <point x="505" y="353"/>
      <point x="509" y="308" type="curve" smooth="yes"/>
      <point x="511" y="288"/>
      <point x="512" y="259"/>
      <point x="514" y="239" type="curve" smooth="yes"/>
      <point x="520" y="187"/>
      <point x="548" y="163"/>
      <point x="591" y="163" type="curve" smooth="yes"/>
      <point x="637" y="163"/>
      <point x="660" y="195"/>
      <point x="660" y="228" type="curve" smooth="yes"/>
      <point x="660" y="240"/>
      <point x="636" y="238"/>
      <point x="636" y="230" type="curve" smooth="yes"/>
      <point x="636" y="213"/>
      <point x="629" y="197"/>
      <point x="616" y="197" type="curve" smooth="yes"/>
      <point x="601" y="197"/>
      <point x="598" y="212"/>
      <point x="595" y="234" type="curve" smooth="yes"/>
      <point x="593" y="253"/>
      <point x="592" y="281"/>
      <point x="589" y="305" type="curve" smooth="yes"/>
      <point x="582" y="354"/>
      <point x="531" y="377"/>
      <point x="472" y="374" type="curve"/>
      <point x="529" y="378"/>
      <point x="590" y="415"/>
      <point x="590" y="475" type="curve" smooth="yes"/>
      <point x="590" y="546"/>
      <point x="514" y="573"/>
      <point x="408" y="573" type="curve" smooth="yes"/>
      <point x="245" y="573" type="line" smooth="yes"/>
      <point x="237" y="573"/>
      <point x="237" y="543"/>
      <point x="245" y="543" type="curve" smooth="yes"/>
      <point x="300" y="543" type="line" smooth="yes"/>
      <point x="305" y="543"/>
      <point x="306" y="542"/>
      <point x="306" y="536" type="curve" smooth="yes"/>
    </contour>
  </outline>
</glyph>
<glyph name="degree" format="1">
  <advance width="380"/>
  <unicode hex="00B0"/>
  <outline>
    <contour>
      <point x="45" y="592" type="curve" smooth="yes"/>
      <point x="45" y="508"/>
      <point x="111" y="449"/>
      <point x="190" y="449" type="curve" smooth="yes"/>
      <point x="269" y="449"/>
      <point x="335" y="508"/>
      <point x="335" y="592" type="curve" smooth="yes"/>
      <point x="335" y="675"/>
      <point x="269" y="735"/>
      <point x="190" y="735" type="curve" smooth="yes"/>
      <point x="111" y="735"/>
      <point x="45" y="675"/>
    </contour>
    <contour>
      <point x="85" y="592" type="curve" smooth="yes"/>
      <point x="85" y="664"/>
      <point x="129" y="705"/>
      <point x="190" y="705" type="curve" smooth="yes"/>
      <point x="251" y="705"/>
      <point x="295" y="664"/>
      <point x="295" y="592" type="curve" smooth="yes"/>
      <point x="295" y="519"/>
      <point x="251" y="480"/>
      <point x="190" y="480" type="curve" smooth="yes"/>
      <point x="129" y="480"/>
      <point x="85" y="519"/>
    </contour>
  </outline>
</glyph>
<glyph name="plusminus" format="1">
  <advance width="611"/>
  <unicode hex="00B1"/>
  <outline>
    <contour>
      <point x="85" y="353" type="line"/>
      <point x="80" y="356"/>
      <point x="79" y="320"/>
      <point x="85" y="318" type="curve"/>
      <point x="284" y="318" type="line"/>
      <point x="284" y="106" type="line"/>
      <point x="281" y="101"/>
      <point x="322" y="100"/>
      <point x="324" y="106" type="curve"/>
      <point x="324" y="318" type="line"/>
      <point x="523" y="318" type="line"/>
      <point x="529" y="316"/>
      <point x="531" y="350"/>
      <point x="523" y="353" type="curve"/>
      <point x="324" y="353" type="line"/>
      <point x="324" y="566" type="line"/>
      <point x="326" y="572"/>
      <point x="287" y="574"/>
      <point x="284" y="566" type="curve"/>
      <point x="284" y="353" type="line"/>
    </contour>
    <contour>
      <point x="523" y="-15" type="line"/>
      <point x="533" y="-15"/>
      <point x="533" y="20"/>
      <point x="523" y="20" type="curve" smooth="yes"/>
      <point x="95" y="20" type="line" smooth="yes"/>
      <point x="85" y="20"/>
      <point x="85" y="-15"/>
      <point x="95" y="-15" type="curve" smooth="yes"/>
    </contour>
  </outline>
</glyph>
<glyph name="twosuperior" format="1">
  <advance width="369"/>
  <unicode hex="00B2"/>
  <outline>
    <contour>
      <point x="46" y="350" type="line"/>
      <point x="312" y="350" type="line"/>
      <point x="328" y="463" type="line"/>
      <point x="330" y="473"/>
      <point x="310" y="475"/>
      <point x="307" y="466" type="curve" smooth="yes"/>
      <point x="292" y="414"/>
      <point x="284" y="405"/>
      <point x="273" y="405" type="curve" smooth="yes"/>
      <point x="203" y="405" type="line" smooth="yes"/>
      <point x="145" y="405"/>
      <point x="102" y="390"/>
      <point x="88" y="380" type="curve"/>
      <point x="87" y="382" type="line"/>
      <point x="167" y="432"/>
      <point x="298" y="515"/>
      <point x="298" y="610" type="curve" smooth="yes"/>
      <point x="298" y="695"/>
      <point x="232" y="735"/>
      <point x="160" y="735" type="curve" smooth="yes"/>
      <point x="91" y="735"/>
      <point x="40" y="690"/>
      <point x="40" y="631" type="curve" smooth="yes"/>
      <point x="40" y="599"/>
      <point x="63" y="581"/>
      <point x="85" y="581" type="curve" smooth="yes"/>
      <point x="106" y="581"/>
      <point x="125" y="598"/>
      <point x="125" y="629" type="curve" smooth="yes"/>
      <point x="125" y="637"/>
      <point x="77" y="654"/>
      <point x="77" y="654" type="curve"/>
      <point x="82" y="682"/>
      <point x="112" y="705"/>
      <point x="144" y="705" type="curve" smooth="yes"/>
      <point x="193" y="705"/>
      <point x="218" y="670"/>
      <point x="218" y="606" type="curve" smooth="yes"/>
      <point x="218" y="489"/>
      <point x="116" y="435"/>
      <point x="42" y="370" type="curve"/>
    </contour>
    <contour>
      <point x="46" y="350" type="move" smooth="yes"/>
    </contour>
  </outline>
</glyph>
<glyph name="threesuperior" format="1">
  <advance width="374"/>
  <unicode hex="00B3"/>
  <outline>
    <contour>
      <point x="185" y="735" type="curve" smooth="yes"/>
      <point x="272" y="735"/>
      <point x="327" y="688"/>
      <point x="327" y="637" type="curve" smooth="yes"/>
      <point x="327" y="594"/>
      <point x="287" y="554"/>
      <point x="225" y="545" type="curve"/>
      <point x="288" y="543"/>
      <point x="339" y="509"/>
      <point x="339" y="453" type="curve" smooth="yes"/>
      <point x="339" y="393"/>
      <point x="278" y="340"/>
      <point x="178" y="340" type="curve" smooth="yes"/>
      <point x="120" y="340"/>
      <point x="60" y="377"/>
      <point x="60" y="443" type="curve" smooth="yes"/>
      <point x="60" y="475"/>
      <point x="83" y="492"/>
      <point x="105" y="492" type="curve" smooth="yes"/>
      <point x="125" y="492"/>
      <point x="144" y="478"/>
      <point x="144" y="446" type="curve" smooth="yes"/>
      <point x="144" y="442"/>
      <point x="105" y="423"/>
      <point x="96" y="421" type="curve"/>
      <point x="96" y="421"/>
      <point x="110" y="370"/>
      <point x="178" y="370" type="curve" smooth="yes"/>
      <point x="227" y="370"/>
      <point x="259" y="389"/>
      <point x="259" y="454" type="curve" smooth="yes"/>
      <point x="259" y="500"/>
      <point x="242" y="522"/>
      <point x="196" y="525" type="curve" smooth="yes"/>
      <point x="186" y="526"/>
      <point x="179" y="527"/>
      <point x="165" y="526" type="curve" smooth="yes"/>
      <point x="155" y="525"/>
      <point x="154" y="554"/>
      <point x="166" y="554" type="curve" smooth="yes"/>
      <point x="227" y="551"/>
      <point x="247" y="573"/>
      <point x="247" y="635" type="curve" smooth="yes"/>
      <point x="247" y="683"/>
      <point x="217" y="705"/>
      <point x="173" y="705" type="curve" smooth="yes"/>
      <point x="108" y="705"/>
      <point x="101" y="653"/>
      <point x="101" y="653" type="curve"/>
      <point x="101" y="653"/>
      <point x="149" y="636"/>
      <point x="149" y="628" type="curve" smooth="yes"/>
      <point x="149" y="595"/>
      <point x="129" y="580"/>
      <point x="108" y="580" type="curve" smooth="yes"/>
      <point x="86" y="580"/>
      <point x="64" y="597"/>
      <point x="64" y="630" type="curve" smooth="yes"/>
      <point x="64" y="685"/>
      <point x="111" y="735"/>
    </contour>
  </outline>
</glyph>
<glyph name="acute" format="1">
  <advance width="400"/>
  <unicode hex="00B4"/>
  <outline>
    <contour>
      <point x="115" y="521" type="curve" smooth="yes"/>
      <point x="115" y="521"/>
      <point x="220" y="632"/>
      <point x="300" y="719" type="curve" smooth="yes"/>
      <point x="303" y="722"/>
      <point x="171" y="722"/>
      <point x="170" y="719" type="curve" smooth="yes"/>
      <point x="140" y="638"/>
      <point x="99" y="523"/>
      <point x="99" y="523" type="curve" smooth="yes"/>
      <point x="98" y="521"/>
      <point x="113" y="519"/>
    </contour>
  </outline>
</glyph>
<glyph name="paragraph" format="1">
  <advance width="521"/>
  <unicode hex="00B6"/>
  <outline>
    <contour>
      <point x="404" y="-135" type="line"/>
      <point x="404" y="690" type="line"/>
      <point x="484" y="690" type="line" smooth="yes"/>
      <point x="494" y="690"/>
      <point x="494" y="720"/>
      <point x="484" y="720" type="curve" smooth="yes"/>
      <point x="244" y="720" type="line" smooth="yes"/>
      <point x="4" y="720"/>
      <point x="-1" y="354"/>
      <point x="244" y="354" type="curve" smooth="yes"/>
      <point x="276" y="354" type="line"/>
      <point x="276" y="-105" type="line"/>
      <point x="175" y="-105" type="line" smooth="yes"/>
      <point x="165" y="-105"/>
      <point x="165" y="-135"/>
      <point x="175" y="-135" type="curve" smooth="yes"/>
    </contour>
    <contour>
      <point x="316" y="690" type="line"/>
      <point x="364" y="690" type="line"/>
      <point x="364" y="-105" type="line"/>
      <point x="316" y="-105" type="line"/>
    </contour>
  </outline>
</glyph>
<glyph name="cedilla" format="1">
  <advance width="400"/>
  <unicode hex="00B8"/>
  <outline>
    <contour>
      <point x="243" y="-7" type="line"/>
      <point x="213" y="-50"/>
      <point x="162" y="-125"/>
      <point x="162" y="-134" type="curve" smooth="yes"/>
      <point x="162" y="-142"/>
      <point x="226" y="-164"/>
      <point x="226" y="-219" type="curve" smooth="yes"/>
      <point x="226" y="-252"/>
      <point x="206" y="-264"/>
      <point x="177" y="-264" type="curve" smooth="yes"/>
      <point x="157" y="-264"/>
      <point x="131" y="-247"/>
      <point x="118" y="-225" type="curve" smooth="yes"/>
      <point x="116" y="-222"/>
      <point x="105" y="-230"/>
      <point x="107" y="-233" type="curve" smooth="yes"/>
      <point x="124" y="-264"/>
      <point x="158" y="-285"/>
      <point x="193" y="-285" type="curve" smooth="yes"/>
      <point x="251" y="-285"/>
      <point x="294" y="-246"/>
      <point x="294" y="-191" type="curve" smooth="yes"/>
      <point x="294" y="-116"/>
      <point x="219" y="-72"/>
      <point x="219" y="-72" type="curve" smooth="yes"/>
      <point x="219" y="-70"/>
      <point x="236" y="-46"/>
      <point x="260" y="-8" type="curve"/>
    </contour>
  </outline>
</glyph>
<glyph name="onesuperior" format="1">
  <advance width="305"/>
  <unicode hex="00B9"/>
  <outline>
    <contour>
      <point x="198" y="729" type="line"/>
      <point x="198" y="737"/>
      <point x="189" y="736"/>
      <point x="183" y="731" type="curve" smooth="yes"/>
      <point x="152" y="708"/>
      <point x="101" y="684"/>
      <point x="52" y="667" type="curve" smooth="yes"/>
      <point x="47" y="665"/>
      <point x="54" y="639"/>
      <point x="61" y="641" type="curve" smooth="yes"/>
      <point x="111" y="655" type="line" smooth="yes"/>
      <point x="117" y="656"/>
      <point x="123" y="657"/>
      <point x="123" y="646" type="curve" smooth="yes"/>
      <point x="123" y="386" type="line" smooth="yes"/>
      <point x="123" y="381"/>
      <point x="123" y="380"/>
      <point x="117" y="380" type="curve" smooth="yes"/>
      <point x="50" y="380" type="line" smooth="yes"/>
      <point x="44" y="380"/>
      <point x="44" y="350"/>
      <point x="50" y="350" type="curve" smooth="yes"/>
      <point x="270" y="350" type="line" smooth="yes"/>
      <point x="276" y="350"/>
      <point x="276" y="380"/>
      <point x="270" y="380" type="curve" smooth="yes"/>
      <point x="204" y="380" type="line" smooth="yes"/>
      <point x="199" y="380"/>
      <point x="198" y="381"/>
      <point x="198" y="386" type="curve" smooth="yes"/>
    </contour>
  </outline>
</glyph>
<glyph name="ordmasculine" format="1">
  <advance width="385"/>
  <unicode hex="00BA"/>
  <outline>
    <contour>
      <point x="192" y="630" type="curve" smooth="yes"/>
      <point x="248" y="630"/>
      <point x="270" y="588"/>
      <point x="270" y="499" type="curve" smooth="yes"/>
      <point x="270" y="410"/>
      <point x="248" y="370"/>
      <point x="192" y="370" type="curve" smooth="yes"/>
      <point x="136" y="370"/>
      <point x="115" y="410"/>
      <point x="115" y="499" type="curve" smooth="yes"/>
      <point x="115" y="588"/>
      <point x="136" y="630"/>
    </contour>
    <contour>
      <point x="192" y="660" type="curve" smooth="yes"/>
      <point x="87" y="660"/>
      <point x="35" y="577"/>
      <point x="35" y="500" type="curve" smooth="yes"/>
      <point x="35" y="422"/>
      <point x="87" y="340"/>
      <point x="192" y="340" type="curve" smooth="yes"/>
      <point x="297" y="340"/>
      <point x="350" y="422"/>
      <point x="350" y="500" type="curve" smooth="yes"/>
      <point x="350" y="577"/>
      <point x="297" y="660"/>
    </contour>
    <contour>
      <point x="338" y="189" type="line"/>
      <point x="348" y="189"/>
      <point x="348" y="224"/>
      <point x="338" y="224" type="curve" smooth="yes"/>
      <point x="47" y="224" type="line" smooth="yes"/>
      <point x="37" y="224"/>
      <point x="37" y="189"/>
      <point x="47" y="189" type="curve" smooth="yes"/>
    </contour>
  </outline>
</glyph>
<glyph name="onequarter" format="1">
  <advance width="729"/>
  <unicode hex="00BC"/>
  <outline>
    <contour>
      <point x="666" y="215" type="line"/>
      <point x="676" y="215"/>
      <point x="676" y="245"/>
      <point x="666" y="245" type="curve" smooth="yes"/>
      <point x="63" y="245" type="line" smooth="yes"/>
      <point x="53" y="245"/>
      <point x="53" y="215"/>
      <point x="63" y="215" type="curve" smooth="yes"/>
    </contour>
    <component base="onesuperior" xOffset="217"/>
    <component base="foursuperior" xOffset="175" yOffset="-620"/>
  </outline>
</glyph>
<glyph name="AE" format="1">
  <advance width="1012"/>
  <unicode hex="00C6"/>
  <outline>
    <contour>
      <point x="510" y="44" type="line"/>
      <point x="606" y="44" type="line"/>
      <point x="596" y="704" type="line"/>
      <point x="414" y="715" type="line"/>
      <point x="71" y="20" type="line" smooth="yes"/>
      <point x="69" y="15"/>
      <point x="67" y="15"/>
      <point x="64" y="15" type="curve" smooth="yes"/>
      <point x="-11" y="15" type="line" smooth="yes"/>
      <point x="-16" y="15"/>
      <point x="-16" y="0"/>
      <point x="-11" y="0" type="curve" smooth="yes"/>
      <point x="175" y="0" type="line" smooth="yes"/>
      <point x="180" y="0"/>
      <point x="180" y="15"/>
      <point x="175" y="15" type="curve" smooth="yes"/>
      <point x="92" y="15" type="line" smooth="yes"/>
      <point x="89" y="15"/>
      <point x="87" y="16"/>
      <point x="90" y="22" type="curve" smooth="yes"/>
      <point x="427" y="706" type="line"/>
      <point x="526" y="704" type="line"/>
    </contour>
    <contour>
      <point x="527" y="371" type="line"/>
      <point x="259" y="371" type="line"/>
      <point x="259" y="370"/>
      <point x="250" y="356"/>
      <point x="250" y="356" type="curve"/>
      <point x="539" y="356" type="line"/>
    </contour>
    <contour>
      <point x="626" y="699" type="line"/>
      <point x="626" y="704"/>
      <point x="627" y="705"/>
      <point x="630" y="705" type="curve" smooth="yes"/>
      <point x="738" y="705" type="line" smooth="yes"/>
      <point x="818" y="705"/>
      <point x="830" y="702"/>
      <point x="845" y="679" type="curve" smooth="yes"/>
      <point x="869" y="641"/>
      <point x="907" y="558"/>
      <point x="919" y="538" type="curve" smooth="yes"/>
      <point x="921" y="535"/>
      <point x="929" y="538"/>
      <point x="929" y="541" type="curve" smooth="yes"/>
      <point x="929" y="720" type="line"/>
      <point x="419" y="720" type="line" smooth="yes"/>
      <point x="414" y="720"/>
      <point x="409" y="705"/>
      <point x="414" y="705" type="curve" smooth="yes"/>
      <point x="500" y="705" type="line" smooth="yes"/>
      <point x="505" y="705"/>
      <point x="506" y="704"/>
      <point x="506" y="699" type="curve" smooth="yes"/>
      <point x="506" y="20" type="line" smooth="yes"/>
      <point x="506" y="16"/>
      <point x="505" y="15"/>
      <point x="502" y="15" type="curve" smooth="yes"/>
      <point x="420" y="15" type="line" smooth="yes"/>
      <point x="415" y="15"/>
      <point x="415" y="0"/>
      <point x="420" y="0" type="curve" smooth="yes"/>
      <point x="952" y="0" type="line"/>
      <point x="952" y="226" type="line" smooth="yes"/>
      <point x="952" y="229"/>
      <point x="943" y="230"/>
      <point x="942" y="227" type="curve" smooth="yes"/>
      <point x="938" y="216"/>
      <point x="897" y="102"/>
      <point x="871" y="46" type="curve" smooth="yes"/>
      <point x="858" y="18"/>
      <point x="855" y="15"/>
      <point x="781" y="15" type="curve" smooth="yes"/>
      <point x="630" y="15" type="line" smooth="yes"/>
      <point x="626" y="15"/>
      <point x="626" y="16"/>
      <point x="626" y="20" type="curve" smooth="yes"/>
      <point x="626" y="356" type="line"/>
      <point x="741" y="356" type="line" smooth="yes"/>
      <point x="757" y="356"/>
      <point x="760" y="352"/>
      <point x="764" y="342" type="curve" smooth="yes"/>
      <point x="822" y="238" type="line" smooth="yes"/>
      <point x="825" y="234"/>
      <point x="833" y="235"/>
      <point x="833" y="239" type="curve" smooth="yes"/>
      <point x="833" y="492" type="line" smooth="yes"/>
      <point x="833" y="496"/>
      <point x="824" y="499"/>
      <point x="821" y="495" type="curve" smooth="yes"/>
      <point x="764" y="386" type="line" smooth="yes"/>
      <point x="759" y="375"/>
      <point x="757" y="371"/>
      <point x="741" y="371" type="curve" smooth="yes"/>
      <point x="626" y="371" type="line"/>
    </contour>
  </outline>
</glyph>
<glyph name="multiply" format="1">
  <advance width="578"/>
  <unicode hex="00D7"/>
  <outline>
    <contour>
      <point x="89" y="91" type="line"/>
      <point x="83" y="90"/>
      <point x="108" y="64"/>
      <point x="114" y="67" type="curve"/>
      <point x="285" y="240" type="line"/>
      <point x="469" y="54" type="line"/>
      <point x="471" y="48"/>
      <point x="499" y="77"/>
      <point x="497" y="82" type="curve"/>
      <point x="313" y="268" type="line"/>
      <point x="479" y="436" type="line"/>
      <point x="485" y="439"/>
      <point x="462" y="464"/>
      <point x="454" y="461" type="curve"/>
      <point x="288" y="293" type="line"/>
      <point x="109" y="474" type="line"/>
      <point x="106" y="480"/>
      <point x="78" y="455"/>
      <point x="81" y="447" type="curve"/>
      <point x="260" y="265" type="line"/>
    </contour>
  </outline>
</glyph>
